<?xml version="1.0" encoding="utf-8" standalone="no"?>
<!DOCTYPE svg PUBLIC "-//W3C//DTD SVG 1.1//EN"
  "http://www.w3.org/Graphics/SVG/1.1/DTD/svg11.dtd">
<svg xmlns:xlink="http://www.w3.org/1999/xlink" width="426.569231pt" height="153pt" viewBox="0 0 426.569231 153" xmlns="http://www.w3.org/2000/svg" version="1.1">
 <metadata>
  <rdf:RDF xmlns:dc="http://purl.org/dc/elements/1.1/" xmlns:cc="http://creativecommons.org/ns#" xmlns:rdf="http://www.w3.org/1999/02/22-rdf-syntax-ns#">
   <cc:Work>
    <dc:type rdf:resource="http://purl.org/dc/dcmitype/StillImage"/>
    <dc:date>2025-09-23T18:13:32.477337</dc:date>
    <dc:format>image/svg+xml</dc:format>
    <dc:creator>
     <cc:Agent>
      <dc:title>Matplotlib v3.8.3, https://matplotlib.org/</dc:title>
     </cc:Agent>
    </dc:creator>
   </cc:Work>
  </rdf:RDF>
 </metadata>
 <defs>
  <style type="text/css">*{stroke-linejoin: round; stroke-linecap: butt}</style>
 </defs>
 <g id="figure_1">
  <g id="patch_1">
   <path d="M 0 153 
L 426.569231 153 
L 426.569231 0 
L 0 0 
z
" style="fill: #ffffff"/>
  </g>
  <g id="axes_1">
   <g id="PolyCollection_1">
    <defs>
     <path id="md1375bc55c" d="M 103.721434 -28.754237 
L 103.721434 -13.5 
L 108.599056 -13.5 
L 108.599056 -28.754237 
L 108.599056 -28.754237 
L 103.721434 -28.754237 
z
" style="stroke: #db5f57; stroke-opacity: 0.99"/>
    </defs>
    <g clip-path="url(#p60cd79d01b)">
     <use xlink:href="#md1375bc55c" x="0" y="153" style="fill: #db5f57; fill-opacity: 0.99; stroke: #db5f57; stroke-opacity: 0.99"/>
    </g>
   </g>
   <g id="PolyCollection_2">
    <defs>
     <path id="m8450401949" d="M 103.721434 -47.211864 
L 103.721434 -31.957627 
L 108.599056 -31.957627 
L 108.599056 -47.211864 
L 108.599056 -47.211864 
L 103.721434 -47.211864 
z
" style="stroke: #dbb757; stroke-opacity: 0.99"/>
    </defs>
    <g clip-path="url(#p60cd79d01b)">
     <use xlink:href="#m8450401949" x="0" y="153" style="fill: #dbb757; fill-opacity: 0.99; stroke: #dbb757; stroke-opacity: 0.99"/>
    </g>
   </g>
   <g id="PolyCollection_3">
    <defs>
     <path id="m8f0647f179" d="M 103.721434 -65.669492 
L 103.721434 -50.415254 
L 108.599056 -50.415254 
L 108.599056 -65.669492 
L 108.599056 -65.669492 
L 103.721434 -65.669492 
z
" style="stroke: #a7db57; stroke-opacity: 0.99"/>
    </defs>
    <g clip-path="url(#p60cd79d01b)">
     <use xlink:href="#m8f0647f179" x="0" y="153" style="fill: #a7db57; fill-opacity: 0.99; stroke: #a7db57; stroke-opacity: 0.99"/>
    </g>
   </g>
   <g id="PolyCollection_4">
    <defs>
     <path id="mf4062d2f62" d="M 103.721434 -84.127119 
L 103.721434 -68.872881 
L 108.599056 -68.872881 
L 108.599056 -84.127119 
L 108.599056 -84.127119 
L 103.721434 -84.127119 
z
" style="stroke: #57db5f; stroke-opacity: 0.99"/>
    </defs>
    <g clip-path="url(#p60cd79d01b)">
     <use xlink:href="#mf4062d2f62" x="0" y="153" style="fill: #57db5f; fill-opacity: 0.99; stroke: #57db5f; stroke-opacity: 0.99"/>
    </g>
   </g>
   <g id="PolyCollection_5">
    <defs>
     <path id="mdbe8bc12b0" d="M 103.721434 -102.584746 
L 103.721434 -87.330508 
L 108.599056 -87.330508 
L 108.599056 -102.584746 
L 108.599056 -102.584746 
L 103.721434 -102.584746 
z
" style="stroke: #57dbb7; stroke-opacity: 0.99"/>
    </defs>
    <g clip-path="url(#p60cd79d01b)">
     <use xlink:href="#mdbe8bc12b0" x="0" y="153" style="fill: #57dbb7; fill-opacity: 0.99; stroke: #57dbb7; stroke-opacity: 0.99"/>
    </g>
   </g>
   <g id="PolyCollection_6">
    <defs>
     <path id="m3d6dcdddd2" d="M 103.721434 -121.042373 
L 103.721434 -105.788136 
L 108.599056 -105.788136 
L 108.599056 -121.042373 
L 108.599056 -121.042373 
L 103.721434 -121.042373 
z
" style="stroke: #57a7db; stroke-opacity: 0.99"/>
    </defs>
    <g clip-path="url(#p60cd79d01b)">
     <use xlink:href="#m3d6dcdddd2" x="0" y="153" style="fill: #57a7db; fill-opacity: 0.99; stroke: #57a7db; stroke-opacity: 0.99"/>
    </g>
   </g>
   <g id="PolyCollection_7">
    <defs>
     <path id="m3f0651e0d6" d="M 103.721434 -139.5 
L 103.721434 -124.245763 
L 108.599056 -124.245763 
L 108.599056 -139.5 
L 108.599056 -139.5 
L 103.721434 -139.5 
z
" style="stroke: #5f57db; stroke-opacity: 0.99"/>
    </defs>
    <g clip-path="url(#p60cd79d01b)">
     <use xlink:href="#m3f0651e0d6" x="0" y="153" style="fill: #5f57db; fill-opacity: 0.99; stroke: #5f57db; stroke-opacity: 0.99"/>
    </g>
   </g>
   <g id="PolyCollection_8">
    <defs>
     <path id="mbe5b7c432e" d="M 352.480175 -51.805608 
L 352.480175 -13.5 
L 357.357797 -13.5 
L 357.357797 -51.805608 
L 357.357797 -51.805608 
L 352.480175 -51.805608 
z
" style="stroke: #b757db; stroke-opacity: 0.99"/>
    </defs>
    <g clip-path="url(#p60cd79d01b)">
     <use xlink:href="#mbe5b7c432e" x="0" y="153" style="fill: #b757db; fill-opacity: 0.99; stroke: #b757db; stroke-opacity: 0.99"/>
    </g>
   </g>
   <g id="PolyCollection_9">
    <defs>
     <path id="m844a417aab" d="M 352.480175 -123.483051 
L 352.480175 -55.008998 
L 357.357797 -55.008998 
L 357.357797 -123.483051 
L 357.357797 -123.483051 
L 352.480175 -123.483051 
z
" style="stroke: #db57a7; stroke-opacity: 0.99"/>
    </defs>
    <g clip-path="url(#p60cd79d01b)">
     <use xlink:href="#m844a417aab" x="0" y="153" style="fill: #db57a7; fill-opacity: 0.99; stroke: #db57a7; stroke-opacity: 0.99"/>
    </g>
   </g>
   <g id="PolyCollection_10">
    <defs>
     <path id="m10d5d41d45" d="M 108.599056 -25.749615 
L 108.599056 -13.5 
L 112.597107 -13.5 
L 116.595158 -13.5 
L 120.593209 -13.5 
L 124.59126 -13.5 
L 128.589312 -13.5 
L 132.587363 -13.5 
L 136.585414 -13.5 
L 140.583465 -13.5 
L 144.581516 -13.5 
L 148.579567 -13.5 
L 152.577618 -13.5 
L 156.575669 -13.5 
L 160.573721 -13.5 
L 164.571772 -13.5 
L 168.569823 -13.5 
L 172.567874 -13.5 
L 176.565925 -13.5 
L 180.563976 -13.5 
L 184.562027 -13.5 
L 188.560079 -13.5 
L 192.55813 -13.5 
L 196.556181 -13.5 
L 200.554232 -13.5 
L 204.552283 -13.5 
L 208.550334 -13.5 
L 212.548385 -13.5 
L 216.546436 -13.5 
L 220.544488 -13.5 
L 224.542539 -13.5 
L 228.54059 -13.5 
L 232.538641 -13.5 
L 236.536692 -13.5 
L 240.534743 -13.5 
L 244.532794 -13.5 
L 248.530845 -13.5 
L 252.528897 -13.5 
L 256.526948 -13.5 
L 260.524999 -13.5 
L 264.52305 -13.5 
L 268.521101 -13.5 
L 272.519152 -13.5 
L 276.517203 -13.5 
L 280.515254 -13.5 
L 284.513306 -13.5 
L 288.511357 -13.5 
L 292.509408 -13.5 
L 296.507459 -13.5 
L 300.50551 -13.5 
L 304.503561 -13.5 
L 308.501612 -13.5 
L 312.499664 -13.5 
L 316.497715 -13.5 
L 320.495766 -13.5 
L 324.493817 -13.5 
L 328.491868 -13.5 
L 332.489919 -13.5 
L 336.48797 -13.5 
L 340.486021 -13.5 
L 344.484073 -13.5 
L 348.482124 -13.5 
L 352.480175 -13.5 
L 352.480175 -25.749615 
L 352.480175 -25.749615 
L 348.482124 -25.749615 
L 344.484073 -25.749615 
L 340.486021 -25.749615 
L 336.48797 -25.749615 
L 332.489919 -25.749615 
L 328.491868 -25.749615 
L 324.493817 -25.749615 
L 320.495766 -25.749615 
L 316.497715 -25.749615 
L 312.499664 -25.749615 
L 308.501612 -25.749615 
L 304.503561 -25.749615 
L 300.50551 -25.749615 
L 296.507459 -25.749615 
L 292.509408 -25.749615 
L 288.511357 -25.749615 
L 284.513306 -25.749615 
L 280.515254 -25.749615 
L 276.517203 -25.749615 
L 272.519152 -25.749615 
L 268.521101 -25.749615 
L 264.52305 -25.749615 
L 260.524999 -25.749615 
L 256.526948 -25.749615 
L 252.528897 -25.749615 
L 248.530845 -25.749615 
L 244.532794 -25.749615 
L 240.534743 -25.749615 
L 236.536692 -25.749615 
L 232.538641 -25.749615 
L 228.54059 -25.749615 
L 224.542539 -25.749615 
L 220.544488 -25.749615 
L 216.546436 -25.749615 
L 212.548385 -25.749615 
L 208.550334 -25.749615 
L 204.552283 -25.749615 
L 200.554232 -25.749615 
L 196.556181 -25.749615 
L 192.55813 -25.749615 
L 188.560079 -25.749615 
L 184.562027 -25.749615 
L 180.563976 -25.749615 
L 176.565925 -25.749615 
L 172.567874 -25.749615 
L 168.569823 -25.749615 
L 164.571772 -25.749615 
L 160.573721 -25.749615 
L 156.575669 -25.749615 
L 152.577618 -25.749615 
L 148.579567 -25.749615 
L 144.581516 -25.749615 
L 140.583465 -25.749615 
L 136.585414 -25.749615 
L 132.587363 -25.749615 
L 128.589312 -25.749615 
L 124.59126 -25.749615 
L 120.593209 -25.749615 
L 116.595158 -25.749615 
L 112.597107 -25.749615 
L 108.599056 -25.749615 
z
" style="stroke: #db5f57; stroke-opacity: 0.65"/>
    </defs>
    <g clip-path="url(#p60cd79d01b)">
     <use xlink:href="#m10d5d41d45" x="0" y="153" style="fill: #db5f57; fill-opacity: 0.65; stroke: #db5f57; stroke-opacity: 0.65"/>
    </g>
   </g>
   <g id="PolyCollection_11">
    <defs>
     <path id="m1c6d25e00e" d="M 108.599056 -28.754237 
L 108.599056 -25.749615 
L 112.597107 -25.749615 
L 116.595158 -25.749615 
L 120.593209 -25.749615 
L 124.59126 -25.749615 
L 128.589312 -25.749615 
L 132.587363 -25.749615 
L 136.585414 -25.749615 
L 140.583465 -25.749615 
L 144.581516 -25.749615 
L 148.579567 -25.749615 
L 152.577618 -25.749615 
L 156.575669 -25.822763 
L 160.573721 -25.96906 
L 164.571772 -26.188506 
L 168.569823 -26.481099 
L 172.567874 -26.846842 
L 176.565925 -27.285732 
L 180.563976 -27.797772 
L 184.562027 -28.382959 
L 188.560079 -29.041295 
L 192.55813 -29.77278 
L 196.556181 -30.577413 
L 200.554232 -31.455195 
L 204.552283 -32.406124 
L 208.550334 -33.430203 
L 212.548385 -34.52743 
L 216.546436 -35.697805 
L 220.544488 -36.941329 
L 224.542539 -38.258001 
L 228.54059 -39.647822 
L 232.538641 -41.110791 
L 236.536692 -42.500612 
L 240.534743 -43.817284 
L 244.532794 -45.060808 
L 248.530845 -46.231183 
L 252.528897 -47.32841 
L 256.526948 -48.352488 
L 260.524999 -49.303418 
L 264.52305 -50.1812 
L 268.521101 -50.985833 
L 272.519152 -51.717317 
L 276.517203 -52.375654 
L 280.515254 -52.960841 
L 284.513306 -53.47288 
L 288.511357 -53.911771 
L 292.509408 -54.277513 
L 296.507459 -54.570107 
L 300.50551 -54.789553 
L 304.503561 -54.93585 
L 308.501612 -55.008998 
L 312.499664 -55.008998 
L 316.497715 -55.008998 
L 320.495766 -55.008998 
L 324.493817 -55.008998 
L 328.491868 -55.008998 
L 332.489919 -55.008998 
L 336.48797 -55.008998 
L 340.486021 -55.008998 
L 344.484073 -55.008998 
L 348.482124 -55.008998 
L 352.480175 -55.008998 
L 352.480175 -58.013621 
L 352.480175 -58.013621 
L 348.482124 -58.013621 
L 344.484073 -58.013621 
L 340.486021 -58.013621 
L 336.48797 -58.013621 
L 332.489919 -58.013621 
L 328.491868 -58.013621 
L 324.493817 -58.013621 
L 320.495766 -58.013621 
L 316.497715 -58.013621 
L 312.499664 -58.013621 
L 308.501612 -58.013621 
L 304.503561 -57.940472 
L 300.50551 -57.794175 
L 296.507459 -57.57473 
L 292.509408 -57.282136 
L 288.511357 -56.916394 
L 284.513306 -56.477503 
L 280.515254 -55.965464 
L 276.517203 -55.380276 
L 272.519152 -54.72194 
L 268.521101 -53.990455 
L 264.52305 -53.185822 
L 260.524999 -52.308041 
L 256.526948 -51.357111 
L 252.528897 -50.333032 
L 248.530845 -49.235806 
L 244.532794 -48.06543 
L 240.534743 -46.821906 
L 236.536692 -45.505234 
L 232.538641 -44.115413 
L 228.54059 -42.652444 
L 224.542539 -41.262624 
L 220.544488 -39.945951 
L 216.546436 -38.702428 
L 212.548385 -37.532052 
L 208.550334 -36.434825 
L 204.552283 -35.410747 
L 200.554232 -34.459817 
L 196.556181 -33.582036 
L 192.55813 -32.777402 
L 188.560079 -32.045918 
L 184.562027 -31.387582 
L 180.563976 -30.802394 
L 176.565925 -30.290355 
L 172.567874 -29.851464 
L 168.569823 -29.485722 
L 164.571772 -29.193128 
L 160.573721 -28.973683 
L 156.575669 -28.827386 
L 152.577618 -28.754237 
L 148.579567 -28.754237 
L 144.581516 -28.754237 
L 140.583465 -28.754237 
L 136.585414 -28.754237 
L 132.587363 -28.754237 
L 128.589312 -28.754237 
L 124.59126 -28.754237 
L 120.593209 -28.754237 
L 116.595158 -28.754237 
L 112.597107 -28.754237 
L 108.599056 -28.754237 
z
" style="stroke: #db5f57; stroke-opacity: 0.65"/>
    </defs>
    <g clip-path="url(#p60cd79d01b)">
     <use xlink:href="#m1c6d25e00e" x="0" y="153" style="fill: #db5f57; fill-opacity: 0.65; stroke: #db5f57; stroke-opacity: 0.65"/>
    </g>
   </g>
   <g id="PolyCollection_12">
    <defs>
     <path id="md310972b70" d="M 108.599056 -46.841289 
L 108.599056 -31.957627 
L 112.597107 -31.957627 
L 116.595158 -31.957627 
L 120.593209 -31.957627 
L 124.59126 -31.957627 
L 128.589312 -31.957627 
L 132.587363 -31.957627 
L 136.585414 -31.957627 
L 140.583465 -31.957627 
L 144.581516 -31.957627 
L 148.579567 -31.957627 
L 152.577618 -31.957627 
L 156.575669 -31.942107 
L 160.573721 -31.911067 
L 164.571772 -31.864507 
L 168.569823 -31.802427 
L 172.567874 -31.724827 
L 176.565925 -31.631706 
L 180.563976 -31.523066 
L 184.562027 -31.398906 
L 188.560079 -31.259226 
L 192.55813 -31.104025 
L 196.556181 -30.933305 
L 200.554232 -30.747065 
L 204.552283 -30.545304 
L 208.550334 -30.328024 
L 212.548385 -30.095223 
L 216.546436 -29.846903 
L 220.544488 -29.583062 
L 224.542539 -29.303702 
L 228.54059 -29.008821 
L 232.538641 -28.698421 
L 236.536692 -28.40354 
L 240.534743 -28.12418 
L 244.532794 -27.860339 
L 248.530845 -27.612018 
L 252.528897 -27.379218 
L 256.526948 -27.161938 
L 260.524999 -26.960177 
L 264.52305 -26.773937 
L 268.521101 -26.603216 
L 272.519152 -26.448016 
L 276.517203 -26.308336 
L 280.515254 -26.184176 
L 284.513306 -26.075535 
L 288.511357 -25.982415 
L 292.509408 -25.904815 
L 296.507459 -25.842735 
L 300.50551 -25.796175 
L 304.503561 -25.765135 
L 308.501612 -25.749615 
L 312.499664 -25.749615 
L 316.497715 -25.749615 
L 320.495766 -25.749615 
L 324.493817 -25.749615 
L 328.491868 -25.749615 
L 332.489919 -25.749615 
L 336.48797 -25.749615 
L 340.486021 -25.749615 
L 344.484073 -25.749615 
L 348.482124 -25.749615 
L 352.480175 -25.749615 
L 352.480175 -40.633277 
L 352.480175 -40.633277 
L 348.482124 -40.633277 
L 344.484073 -40.633277 
L 340.486021 -40.633277 
L 336.48797 -40.633277 
L 332.489919 -40.633277 
L 328.491868 -40.633277 
L 324.493817 -40.633277 
L 320.495766 -40.633277 
L 316.497715 -40.633277 
L 312.499664 -40.633277 
L 308.501612 -40.633277 
L 304.503561 -40.648797 
L 300.50551 -40.679837 
L 296.507459 -40.726397 
L 292.509408 -40.788477 
L 288.511357 -40.866077 
L 284.513306 -40.959198 
L 280.515254 -41.067838 
L 276.517203 -41.191998 
L 272.519152 -41.331678 
L 268.521101 -41.486879 
L 264.52305 -41.657599 
L 260.524999 -41.843839 
L 256.526948 -42.0456 
L 252.528897 -42.26288 
L 248.530845 -42.495681 
L 244.532794 -42.744001 
L 240.534743 -43.007842 
L 236.536692 -43.287202 
L 232.538641 -43.582083 
L 228.54059 -43.892483 
L 224.542539 -44.187364 
L 220.544488 -44.466725 
L 216.546436 -44.730565 
L 212.548385 -44.978886 
L 208.550334 -45.211686 
L 204.552283 -45.428967 
L 200.554232 -45.630727 
L 196.556181 -45.816967 
L 192.55813 -45.987688 
L 188.560079 -46.142888 
L 184.562027 -46.282568 
L 180.563976 -46.406728 
L 176.565925 -46.515369 
L 172.567874 -46.608489 
L 168.569823 -46.686089 
L 164.571772 -46.748169 
L 160.573721 -46.794729 
L 156.575669 -46.825769 
L 152.577618 -46.841289 
L 148.579567 -46.841289 
L 144.581516 -46.841289 
L 140.583465 -46.841289 
L 136.585414 -46.841289 
L 132.587363 -46.841289 
L 128.589312 -46.841289 
L 124.59126 -46.841289 
L 120.593209 -46.841289 
L 116.595158 -46.841289 
L 112.597107 -46.841289 
L 108.599056 -46.841289 
z
" style="stroke: #dbb757; stroke-opacity: 0.65"/>
    </defs>
    <g clip-path="url(#p60cd79d01b)">
     <use xlink:href="#md310972b70" x="0" y="153" style="fill: #dbb757; fill-opacity: 0.65; stroke: #dbb757; stroke-opacity: 0.65"/>
    </g>
   </g>
   <g id="PolyCollection_13">
    <defs>
     <path id="me258aea5ef" d="M 108.599056 -47.211864 
L 108.599056 -46.841289 
L 112.597107 -46.841289 
L 116.595158 -46.841289 
L 120.593209 -46.841289 
L 124.59126 -46.841289 
L 128.589312 -46.841289 
L 132.587363 -46.841289 
L 136.585414 -46.841289 
L 140.583465 -46.841289 
L 144.581516 -46.841289 
L 148.579567 -46.841289 
L 152.577618 -46.841289 
L 156.575669 -46.86922 
L 160.573721 -46.925082 
L 164.571772 -47.008874 
L 168.569823 -47.120598 
L 172.567874 -47.260252 
L 176.565925 -47.427837 
L 180.563976 -47.623353 
L 184.562027 -47.846799 
L 188.560079 -48.098177 
L 192.55813 -48.377485 
L 196.556181 -48.684724 
L 200.554232 -49.019894 
L 204.552283 -49.382995 
L 208.550334 -49.774026 
L 212.548385 -50.192989 
L 216.546436 -50.639882 
L 220.544488 -51.114706 
L 224.542539 -51.617461 
L 228.54059 -52.148147 
L 232.538641 -52.706763 
L 236.536692 -53.237449 
L 240.534743 -53.740204 
L 244.532794 -54.215028 
L 248.530845 -54.661921 
L 252.528897 -55.080884 
L 256.526948 -55.471915 
L 260.524999 -55.835016 
L 264.52305 -56.170186 
L 268.521101 -56.477425 
L 272.519152 -56.756733 
L 276.517203 -57.008111 
L 280.515254 -57.231557 
L 284.513306 -57.427073 
L 288.511357 -57.594658 
L 292.509408 -57.734312 
L 296.507459 -57.846036 
L 300.50551 -57.929828 
L 304.503561 -57.98569 
L 308.501612 -58.013621 
L 312.499664 -58.013621 
L 316.497715 -58.013621 
L 320.495766 -58.013621 
L 324.493817 -58.013621 
L 328.491868 -58.013621 
L 332.489919 -58.013621 
L 336.48797 -58.013621 
L 340.486021 -58.013621 
L 344.484073 -58.013621 
L 348.482124 -58.013621 
L 352.480175 -58.013621 
L 352.480175 -58.384196 
L 352.480175 -58.384196 
L 348.482124 -58.384196 
L 344.484073 -58.384196 
L 340.486021 -58.384196 
L 336.48797 -58.384196 
L 332.489919 -58.384196 
L 328.491868 -58.384196 
L 324.493817 -58.384196 
L 320.495766 -58.384196 
L 316.497715 -58.384196 
L 312.499664 -58.384196 
L 308.501612 -58.384196 
L 304.503561 -58.356265 
L 300.50551 -58.300403 
L 296.507459 -58.216611 
L 292.509408 -58.104887 
L 288.511357 -57.965233 
L 284.513306 -57.797648 
L 280.515254 -57.602132 
L 276.517203 -57.378686 
L 272.519152 -57.127308 
L 268.521101 -56.848 
L 264.52305 -56.540761 
L 260.524999 -56.205591 
L 256.526948 -55.84249 
L 252.528897 -55.451459 
L 248.530845 -55.032496 
L 244.532794 -54.585603 
L 240.534743 -54.110779 
L 236.536692 -53.608024 
L 232.538641 -53.077338 
L 228.54059 -52.518722 
L 224.542539 -51.988036 
L 220.544488 -51.485281 
L 216.546436 -51.010457 
L 212.548385 -50.563564 
L 208.550334 -50.144601 
L 204.552283 -49.75357 
L 200.554232 -49.390469 
L 196.556181 -49.055299 
L 192.55813 -48.74806 
L 188.560079 -48.468752 
L 184.562027 -48.217374 
L 180.563976 -47.993928 
L 176.565925 -47.798412 
L 172.567874 -47.630827 
L 168.569823 -47.491173 
L 164.571772 -47.379449 
L 160.573721 -47.295657 
L 156.575669 -47.239795 
L 152.577618 -47.211864 
L 148.579567 -47.211864 
L 144.581516 -47.211864 
L 140.583465 -47.211864 
L 136.585414 -47.211864 
L 132.587363 -47.211864 
L 128.589312 -47.211864 
L 124.59126 -47.211864 
L 120.593209 -47.211864 
L 116.595158 -47.211864 
L 112.597107 -47.211864 
L 108.599056 -47.211864 
z
" style="stroke: #dbb757; stroke-opacity: 0.65"/>
    </defs>
    <g clip-path="url(#p60cd79d01b)">
     <use xlink:href="#me258aea5ef" x="0" y="153" style="fill: #dbb757; fill-opacity: 0.65; stroke: #dbb757; stroke-opacity: 0.65"/>
    </g>
   </g>
   <g id="PolyCollection_14">
    <defs>
     <path id="m876fb79b50" d="M 108.599056 -50.818735 
L 108.599056 -50.415254 
L 112.597107 -50.415254 
L 116.595158 -50.415254 
L 120.593209 -50.415254 
L 124.59126 -50.415254 
L 128.589312 -50.415254 
L 132.587363 -50.415254 
L 136.585414 -50.415254 
L 140.583465 -50.415254 
L 144.581516 -50.415254 
L 148.579567 -50.415254 
L 152.577618 -50.415254 
L 156.575669 -50.390799 
L 160.573721 -50.341889 
L 164.571772 -50.268525 
L 168.569823 -50.170705 
L 172.567874 -50.04843 
L 176.565925 -49.9017 
L 180.563976 -49.730516 
L 184.562027 -49.534876 
L 188.560079 -49.314782 
L 192.55813 -49.070232 
L 196.556181 -48.801228 
L 200.554232 -48.507769 
L 204.552283 -48.189854 
L 208.550334 -47.847485 
L 212.548385 -47.480661 
L 216.546436 -47.089382 
L 220.544488 -46.673648 
L 224.542539 -46.233459 
L 228.54059 -45.768815 
L 232.538641 -45.279716 
L 236.536692 -44.815072 
L 240.534743 -44.374883 
L 244.532794 -43.959149 
L 248.530845 -43.56787 
L 252.528897 -43.201046 
L 256.526948 -42.858677 
L 260.524999 -42.540763 
L 264.52305 -42.247303 
L 268.521101 -41.978299 
L 272.519152 -41.733749 
L 276.517203 -41.513655 
L 280.515254 -41.318015 
L 284.513306 -41.146831 
L 288.511357 -41.000101 
L 292.509408 -40.877826 
L 296.507459 -40.780007 
L 300.50551 -40.706642 
L 304.503561 -40.657732 
L 308.501612 -40.633277 
L 312.499664 -40.633277 
L 316.497715 -40.633277 
L 320.495766 -40.633277 
L 324.493817 -40.633277 
L 328.491868 -40.633277 
L 332.489919 -40.633277 
L 336.48797 -40.633277 
L 340.486021 -40.633277 
L 344.484073 -40.633277 
L 348.482124 -40.633277 
L 352.480175 -40.633277 
L 352.480175 -41.036758 
L 352.480175 -41.036758 
L 348.482124 -41.036758 
L 344.484073 -41.036758 
L 340.486021 -41.036758 
L 336.48797 -41.036758 
L 332.489919 -41.036758 
L 328.491868 -41.036758 
L 324.493817 -41.036758 
L 320.495766 -41.036758 
L 316.497715 -41.036758 
L 312.499664 -41.036758 
L 308.501612 -41.036758 
L 304.503561 -41.061213 
L 300.50551 -41.110123 
L 296.507459 -41.183487 
L 292.509408 -41.281307 
L 288.511357 -41.403582 
L 284.513306 -41.550312 
L 280.515254 -41.721496 
L 276.517203 -41.917136 
L 272.519152 -42.13723 
L 268.521101 -42.38178 
L 264.52305 -42.650784 
L 260.524999 -42.944243 
L 256.526948 -43.262158 
L 252.528897 -43.604527 
L 248.530845 -43.971351 
L 244.532794 -44.36263 
L 240.534743 -44.778364 
L 236.536692 -45.218553 
L 232.538641 -45.683197 
L 228.54059 -46.172296 
L 224.542539 -46.63694 
L 220.544488 -47.077129 
L 216.546436 -47.492863 
L 212.548385 -47.884142 
L 208.550334 -48.250966 
L 204.552283 -48.593335 
L 200.554232 -48.911249 
L 196.556181 -49.204709 
L 192.55813 -49.473713 
L 188.560079 -49.718263 
L 184.562027 -49.938357 
L 180.563976 -50.133997 
L 176.565925 -50.305181 
L 172.567874 -50.451911 
L 168.569823 -50.574186 
L 164.571772 -50.672005 
L 160.573721 -50.74537 
L 156.575669 -50.79428 
L 152.577618 -50.818735 
L 148.579567 -50.818735 
L 144.581516 -50.818735 
L 140.583465 -50.818735 
L 136.585414 -50.818735 
L 132.587363 -50.818735 
L 128.589312 -50.818735 
L 124.59126 -50.818735 
L 120.593209 -50.818735 
L 116.595158 -50.818735 
L 112.597107 -50.818735 
L 108.599056 -50.818735 
z
" style="stroke: #a7db57; stroke-opacity: 0.65"/>
    </defs>
    <g clip-path="url(#p60cd79d01b)">
     <use xlink:href="#m876fb79b50" x="0" y="153" style="fill: #a7db57; fill-opacity: 0.65; stroke: #a7db57; stroke-opacity: 0.65"/>
    </g>
   </g>
   <g id="PolyCollection_15">
    <defs>
     <path id="m2dfc706e12" d="M 108.599056 -65.669492 
L 108.599056 -50.818735 
L 112.597107 -50.818735 
L 116.595158 -50.818735 
L 120.593209 -50.818735 
L 124.59126 -50.818735 
L 128.589312 -50.818735 
L 132.587363 -50.818735 
L 136.585414 -50.818735 
L 140.583465 -50.818735 
L 144.581516 -50.818735 
L 148.579567 -50.818735 
L 152.577618 -50.818735 
L 156.575669 -50.837649 
L 160.573721 -50.875476 
L 164.571772 -50.932217 
L 168.569823 -51.007872 
L 172.567874 -51.10244 
L 176.565925 -51.215922 
L 180.563976 -51.348317 
L 184.562027 -51.499626 
L 188.560079 -51.669849 
L 192.55813 -51.858986 
L 196.556181 -52.067036 
L 200.554232 -52.294 
L 204.552283 -52.539877 
L 208.550334 -52.804668 
L 212.548385 -53.088373 
L 216.546436 -53.390992 
L 220.544488 -53.712524 
L 224.542539 -54.052969 
L 228.54059 -54.412329 
L 232.538641 -54.790602 
L 236.536692 -55.149961 
L 240.534743 -55.490407 
L 244.532794 -55.811939 
L 248.530845 -56.114557 
L 252.528897 -56.398262 
L 256.526948 -56.663053 
L 260.524999 -56.908931 
L 264.52305 -57.135895 
L 268.521101 -57.343945 
L 272.519152 -57.533081 
L 276.517203 -57.703304 
L 280.515254 -57.854613 
L 284.513306 -57.987009 
L 288.511357 -58.100491 
L 292.509408 -58.195059 
L 296.507459 -58.270714 
L 300.50551 -58.327455 
L 304.503561 -58.365282 
L 308.501612 -58.384196 
L 312.499664 -58.384196 
L 316.497715 -58.384196 
L 320.495766 -58.384196 
L 324.493817 -58.384196 
L 328.491868 -58.384196 
L 332.489919 -58.384196 
L 336.48797 -58.384196 
L 340.486021 -58.384196 
L 344.484073 -58.384196 
L 348.482124 -58.384196 
L 352.480175 -58.384196 
L 352.480175 -73.234952 
L 352.480175 -73.234952 
L 348.482124 -73.234952 
L 344.484073 -73.234952 
L 340.486021 -73.234952 
L 336.48797 -73.234952 
L 332.489919 -73.234952 
L 328.491868 -73.234952 
L 324.493817 -73.234952 
L 320.495766 -73.234952 
L 316.497715 -73.234952 
L 312.499664 -73.234952 
L 308.501612 -73.234952 
L 304.503561 -73.216038 
L 300.50551 -73.178211 
L 296.507459 -73.12147 
L 292.509408 -73.045816 
L 288.511357 -72.951247 
L 284.513306 -72.837765 
L 280.515254 -72.70537 
L 276.517203 -72.554061 
L 272.519152 -72.383838 
L 268.521101 -72.194701 
L 264.52305 -71.986651 
L 260.524999 -71.759687 
L 256.526948 -71.51381 
L 252.528897 -71.249019 
L 248.530845 -70.965314 
L 244.532794 -70.662696 
L 240.534743 -70.341163 
L 236.536692 -70.000718 
L 232.538641 -69.641358 
L 228.54059 -69.263085 
L 224.542539 -68.903726 
L 220.544488 -68.56328 
L 216.546436 -68.241748 
L 212.548385 -67.93913 
L 208.550334 -67.655425 
L 204.552283 -67.390634 
L 200.554232 -67.144756 
L 196.556181 -66.917793 
L 192.55813 -66.709742 
L 188.560079 -66.520606 
L 184.562027 -66.350383 
L 180.563976 -66.199074 
L 176.565925 -66.066678 
L 172.567874 -65.953196 
L 168.569823 -65.858628 
L 164.571772 -65.782973 
L 160.573721 -65.726232 
L 156.575669 -65.688405 
L 152.577618 -65.669492 
L 148.579567 -65.669492 
L 144.581516 -65.669492 
L 140.583465 -65.669492 
L 136.585414 -65.669492 
L 132.587363 -65.669492 
L 128.589312 -65.669492 
L 124.59126 -65.669492 
L 120.593209 -65.669492 
L 116.595158 -65.669492 
L 112.597107 -65.669492 
L 108.599056 -65.669492 
z
" style="stroke: #a7db57; stroke-opacity: 0.65"/>
    </defs>
    <g clip-path="url(#p60cd79d01b)">
     <use xlink:href="#m2dfc706e12" x="0" y="153" style="fill: #a7db57; fill-opacity: 0.65; stroke: #a7db57; stroke-opacity: 0.65"/>
    </g>
   </g>
   <g id="PolyCollection_16">
    <defs>
     <path id="mbb7b1f8b57" d="M 108.599056 -84.127119 
L 108.599056 -68.872881 
L 112.597107 -68.872881 
L 116.595158 -68.872881 
L 120.593209 -68.872881 
L 124.59126 -68.872881 
L 128.589312 -68.872881 
L 132.587363 -68.872881 
L 136.585414 -68.872881 
L 140.583465 -68.872881 
L 144.581516 -68.872881 
L 148.579567 -68.872881 
L 152.577618 -68.872881 
L 156.575669 -68.883787 
L 160.573721 -68.905597 
L 164.571772 -68.938312 
L 168.569823 -68.981933 
L 172.567874 -69.036459 
L 176.565925 -69.10189 
L 180.563976 -69.178226 
L 184.562027 -69.265468 
L 188.560079 -69.363614 
L 192.55813 -69.472666 
L 196.556181 -69.592623 
L 200.554232 -69.723485 
L 204.552283 -69.865252 
L 208.550334 -70.017925 
L 212.548385 -70.181503 
L 216.546436 -70.355985 
L 220.544488 -70.541373 
L 224.542539 -70.737667 
L 228.54059 -70.944865 
L 232.538641 -71.162968 
L 236.536692 -71.370167 
L 240.534743 -71.56646 
L 244.532794 -71.751848 
L 248.530845 -71.926331 
L 252.528897 -72.089909 
L 256.526948 -72.242581 
L 260.524999 -72.384348 
L 264.52305 -72.51521 
L 268.521101 -72.635167 
L 272.519152 -72.744219 
L 276.517203 -72.842366 
L 280.515254 -72.929607 
L 284.513306 -73.005943 
L 288.511357 -73.071374 
L 292.509408 -73.1259 
L 296.507459 -73.169521 
L 300.50551 -73.202237 
L 304.503561 -73.224047 
L 308.501612 -73.234952 
L 312.499664 -73.234952 
L 316.497715 -73.234952 
L 320.495766 -73.234952 
L 324.493817 -73.234952 
L 328.491868 -73.234952 
L 332.489919 -73.234952 
L 336.48797 -73.234952 
L 340.486021 -73.234952 
L 344.484073 -73.234952 
L 348.482124 -73.234952 
L 352.480175 -73.234952 
L 352.480175 -88.489189 
L 352.480175 -88.489189 
L 348.482124 -88.489189 
L 344.484073 -88.489189 
L 340.486021 -88.489189 
L 336.48797 -88.489189 
L 332.489919 -88.489189 
L 328.491868 -88.489189 
L 324.493817 -88.489189 
L 320.495766 -88.489189 
L 316.497715 -88.489189 
L 312.499664 -88.489189 
L 308.501612 -88.489189 
L 304.503561 -88.478284 
L 300.50551 -88.456474 
L 296.507459 -88.423758 
L 292.509408 -88.380138 
L 288.511357 -88.325612 
L 284.513306 -88.260181 
L 280.515254 -88.183844 
L 276.517203 -88.096603 
L 272.519152 -87.998456 
L 268.521101 -87.889405 
L 264.52305 -87.769448 
L 260.524999 -87.638586 
L 256.526948 -87.496818 
L 252.528897 -87.344146 
L 248.530845 -87.180568 
L 244.532794 -87.006085 
L 240.534743 -86.820697 
L 236.536692 -86.624404 
L 232.538641 -86.417206 
L 228.54059 -86.199102 
L 224.542539 -85.991904 
L 220.544488 -85.795611 
L 216.546436 -85.610223 
L 212.548385 -85.43574 
L 208.550334 -85.272162 
L 204.552283 -85.11949 
L 200.554232 -84.977722 
L 196.556181 -84.84686 
L 192.55813 -84.726903 
L 188.560079 -84.617852 
L 184.562027 -84.519705 
L 180.563976 -84.432464 
L 176.565925 -84.356127 
L 172.567874 -84.290696 
L 168.569823 -84.23617 
L 164.571772 -84.19255 
L 160.573721 -84.159834 
L 156.575669 -84.138024 
L 152.577618 -84.127119 
L 148.579567 -84.127119 
L 144.581516 -84.127119 
L 140.583465 -84.127119 
L 136.585414 -84.127119 
L 132.587363 -84.127119 
L 128.589312 -84.127119 
L 124.59126 -84.127119 
L 120.593209 -84.127119 
L 116.595158 -84.127119 
L 112.597107 -84.127119 
L 108.599056 -84.127119 
z
" style="stroke: #57db5f; stroke-opacity: 0.65"/>
    </defs>
    <g clip-path="url(#p60cd79d01b)">
     <use xlink:href="#mbb7b1f8b57" x="0" y="153" style="fill: #57db5f; fill-opacity: 0.65; stroke: #57db5f; stroke-opacity: 0.65"/>
    </g>
   </g>
   <g id="PolyCollection_17">
    <defs>
     <path id="m82bac8e853" d="M 108.599056 -89.063304 
L 108.599056 -87.330508 
L 112.597107 -87.330508 
L 116.595158 -87.330508 
L 120.593209 -87.330508 
L 124.59126 -87.330508 
L 128.589312 -87.330508 
L 132.587363 -87.330508 
L 136.585414 -87.330508 
L 140.583465 -87.330508 
L 144.581516 -87.330508 
L 148.579567 -87.330508 
L 152.577618 -87.330508 
L 156.575669 -87.214774 
L 160.573721 -86.983305 
L 164.571772 -86.636102 
L 168.569823 -86.173165 
L 172.567874 -85.594493 
L 176.565925 -84.900087 
L 180.563976 -84.089946 
L 184.562027 -83.164071 
L 188.560079 -82.122462 
L 192.55813 -80.965118 
L 196.556181 -79.69204 
L 200.554232 -78.303227 
L 204.552283 -76.79868 
L 208.550334 -75.178399 
L 212.548385 -73.442383 
L 216.546436 -71.590633 
L 220.544488 -69.623149 
L 224.542539 -67.53993 
L 228.54059 -65.340977 
L 232.538641 -63.026289 
L 236.536692 -60.827336 
L 240.534743 -58.744117 
L 244.532794 -56.776633 
L 248.530845 -54.924883 
L 252.528897 -53.188867 
L 256.526948 -51.568586 
L 260.524999 -50.064039 
L 264.52305 -48.675227 
L 268.521101 -47.402148 
L 272.519152 -46.244805 
L 276.517203 -45.203195 
L 280.515254 -44.27732 
L 284.513306 -43.46718 
L 288.511357 -42.772773 
L 292.509408 -42.194102 
L 296.507459 -41.731164 
L 300.50551 -41.383961 
L 304.503561 -41.152492 
L 308.501612 -41.036758 
L 312.499664 -41.036758 
L 316.497715 -41.036758 
L 320.495766 -41.036758 
L 324.493817 -41.036758 
L 328.491868 -41.036758 
L 332.489919 -41.036758 
L 336.48797 -41.036758 
L 340.486021 -41.036758 
L 344.484073 -41.036758 
L 348.482124 -41.036758 
L 352.480175 -41.036758 
L 352.480175 -42.769553 
L 352.480175 -42.769553 
L 348.482124 -42.769553 
L 344.484073 -42.769553 
L 340.486021 -42.769553 
L 336.48797 -42.769553 
L 332.489919 -42.769553 
L 328.491868 -42.769553 
L 324.493817 -42.769553 
L 320.495766 -42.769553 
L 316.497715 -42.769553 
L 312.499664 -42.769553 
L 308.501612 -42.769553 
L 304.503561 -42.885288 
L 300.50551 -43.116756 
L 296.507459 -43.463959 
L 292.509408 -43.926897 
L 288.511357 -44.505569 
L 284.513306 -45.199975 
L 280.515254 -46.010116 
L 276.517203 -46.935991 
L 272.519152 -47.9776 
L 268.521101 -49.134944 
L 264.52305 -50.408022 
L 260.524999 -51.796835 
L 256.526948 -53.301382 
L 252.528897 -54.921663 
L 248.530845 -56.657678 
L 244.532794 -58.509428 
L 240.534743 -60.476913 
L 236.536692 -62.560132 
L 232.538641 -64.759085 
L 228.54059 -67.073772 
L 224.542539 -69.272726 
L 220.544488 -71.355944 
L 216.546436 -73.323429 
L 212.548385 -75.175179 
L 208.550334 -76.911194 
L 204.552283 -78.531476 
L 200.554232 -80.036023 
L 196.556181 -81.424835 
L 192.55813 -82.697913 
L 188.560079 -83.855257 
L 184.562027 -84.896866 
L 180.563976 -85.822741 
L 176.565925 -86.632882 
L 172.567874 -87.327288 
L 168.569823 -87.90596 
L 164.571772 -88.368898 
L 160.573721 -88.716101 
L 156.575669 -88.94757 
L 152.577618 -89.063304 
L 148.579567 -89.063304 
L 144.581516 -89.063304 
L 140.583465 -89.063304 
L 136.585414 -89.063304 
L 132.587363 -89.063304 
L 128.589312 -89.063304 
L 124.59126 -89.063304 
L 120.593209 -89.063304 
L 116.595158 -89.063304 
L 112.597107 -89.063304 
L 108.599056 -89.063304 
z
" style="stroke: #57dbb7; stroke-opacity: 0.65"/>
    </defs>
    <g clip-path="url(#p60cd79d01b)">
     <use xlink:href="#m82bac8e853" x="0" y="153" style="fill: #57dbb7; fill-opacity: 0.65; stroke: #57dbb7; stroke-opacity: 0.65"/>
    </g>
   </g>
   <g id="PolyCollection_18">
    <defs>
     <path id="md1a60222d3" d="M 108.599056 -102.584746 
L 108.599056 -89.063304 
L 112.597107 -89.063304 
L 116.595158 -89.063304 
L 120.593209 -89.063304 
L 124.59126 -89.063304 
L 128.589312 -89.063304 
L 132.587363 -89.063304 
L 136.585414 -89.063304 
L 140.583465 -89.063304 
L 144.581516 -89.063304 
L 148.579567 -89.063304 
L 152.577618 -89.063304 
L 156.575669 -89.061869 
L 160.573721 -89.058998 
L 164.571772 -89.054692 
L 168.569823 -89.048951 
L 172.567874 -89.041775 
L 176.565925 -89.033163 
L 180.563976 -89.023116 
L 184.562027 -89.011634 
L 188.560079 -88.998716 
L 192.55813 -88.984363 
L 196.556181 -88.968575 
L 200.554232 -88.951352 
L 204.552283 -88.932693 
L 208.550334 -88.912599 
L 212.548385 -88.89107 
L 216.546436 -88.868105 
L 220.544488 -88.843705 
L 224.542539 -88.81787 
L 228.54059 -88.7906 
L 232.538641 -88.761894 
L 236.536692 -88.734623 
L 240.534743 -88.708788 
L 244.532794 -88.684388 
L 248.530845 -88.661424 
L 252.528897 -88.639894 
L 256.526948 -88.6198 
L 260.524999 -88.601142 
L 264.52305 -88.583918 
L 268.521101 -88.56813 
L 272.519152 -88.553777 
L 276.517203 -88.54086 
L 280.515254 -88.529377 
L 284.513306 -88.51933 
L 288.511357 -88.510719 
L 292.509408 -88.503542 
L 296.507459 -88.497801 
L 300.50551 -88.493495 
L 304.503561 -88.490625 
L 308.501612 -88.489189 
L 312.499664 -88.489189 
L 316.497715 -88.489189 
L 320.495766 -88.489189 
L 324.493817 -88.489189 
L 328.491868 -88.489189 
L 332.489919 -88.489189 
L 336.48797 -88.489189 
L 340.486021 -88.489189 
L 344.484073 -88.489189 
L 348.482124 -88.489189 
L 352.480175 -88.489189 
L 352.480175 -102.010631 
L 352.480175 -102.010631 
L 348.482124 -102.010631 
L 344.484073 -102.010631 
L 340.486021 -102.010631 
L 336.48797 -102.010631 
L 332.489919 -102.010631 
L 328.491868 -102.010631 
L 324.493817 -102.010631 
L 320.495766 -102.010631 
L 316.497715 -102.010631 
L 312.499664 -102.010631 
L 308.501612 -102.010631 
L 304.503561 -102.012067 
L 300.50551 -102.014937 
L 296.507459 -102.019243 
L 292.509408 -102.024984 
L 288.511357 -102.032161 
L 284.513306 -102.040772 
L 280.515254 -102.050819 
L 276.517203 -102.062302 
L 272.519152 -102.075219 
L 268.521101 -102.089572 
L 264.52305 -102.10536 
L 260.524999 -102.122584 
L 256.526948 -102.141242 
L 252.528897 -102.161336 
L 248.530845 -102.182866 
L 244.532794 -102.20583 
L 240.534743 -102.23023 
L 236.536692 -102.256065 
L 232.538641 -102.283336 
L 228.54059 -102.312041 
L 224.542539 -102.339312 
L 220.544488 -102.365147 
L 216.546436 -102.389547 
L 212.548385 -102.412511 
L 208.550334 -102.434041 
L 204.552283 -102.454135 
L 200.554232 -102.472793 
L 196.556181 -102.490017 
L 192.55813 -102.505805 
L 188.560079 -102.520158 
L 184.562027 -102.533075 
L 180.563976 -102.544558 
L 176.565925 -102.554605 
L 172.567874 -102.563216 
L 168.569823 -102.570393 
L 164.571772 -102.576134 
L 160.573721 -102.58044 
L 156.575669 -102.58331 
L 152.577618 -102.584746 
L 148.579567 -102.584746 
L 144.581516 -102.584746 
L 140.583465 -102.584746 
L 136.585414 -102.584746 
L 132.587363 -102.584746 
L 128.589312 -102.584746 
L 124.59126 -102.584746 
L 120.593209 -102.584746 
L 116.595158 -102.584746 
L 112.597107 -102.584746 
L 108.599056 -102.584746 
z
" style="stroke: #57dbb7; stroke-opacity: 0.65"/>
    </defs>
    <g clip-path="url(#p60cd79d01b)">
     <use xlink:href="#md1a60222d3" x="0" y="153" style="fill: #57dbb7; fill-opacity: 0.65; stroke: #57dbb7; stroke-opacity: 0.65"/>
    </g>
   </g>
   <g id="PolyCollection_19">
    <defs>
     <path id="m15b8bf6a65" d="M 108.599056 -114.824191 
L 108.599056 -105.788136 
L 112.597107 -105.788136 
L 116.595158 -105.788136 
L 120.593209 -105.788136 
L 124.59126 -105.788136 
L 128.589312 -105.788136 
L 132.587363 -105.788136 
L 136.585414 -105.788136 
L 140.583465 -105.788136 
L 144.581516 -105.788136 
L 148.579567 -105.788136 
L 152.577618 -105.788136 
L 156.575669 -105.630589 
L 160.573721 -105.315496 
L 164.571772 -104.842857 
L 168.569823 -104.212671 
L 172.567874 -103.424939 
L 176.565925 -102.47966 
L 180.563976 -101.376835 
L 184.562027 -100.116463 
L 188.560079 -98.698545 
L 192.55813 -97.123081 
L 196.556181 -95.39007 
L 200.554232 -93.499512 
L 204.552283 -91.451408 
L 208.550334 -89.245758 
L 212.548385 -86.882561 
L 216.546436 -84.361818 
L 220.544488 -81.683528 
L 224.542539 -78.847692 
L 228.54059 -75.854309 
L 232.538641 -72.70338 
L 236.536692 -69.709997 
L 240.534743 -66.874161 
L 244.532794 -64.195871 
L 248.530845 -61.675128 
L 252.528897 -59.311931 
L 256.526948 -57.106281 
L 260.524999 -55.058177 
L 264.52305 -53.167619 
L 268.521101 -51.434608 
L 272.519152 -49.859144 
L 276.517203 -48.441226 
L 280.515254 -47.180854 
L 284.513306 -46.078029 
L 288.511357 -45.13275 
L 292.509408 -44.345018 
L 296.507459 -43.714832 
L 300.50551 -43.242193 
L 304.503561 -42.9271 
L 308.501612 -42.769553 
L 312.499664 -42.769553 
L 316.497715 -42.769553 
L 320.495766 -42.769553 
L 324.493817 -42.769553 
L 328.491868 -42.769553 
L 332.489919 -42.769553 
L 336.48797 -42.769553 
L 340.486021 -42.769553 
L 344.484073 -42.769553 
L 348.482124 -42.769553 
L 352.480175 -42.769553 
L 352.480175 -51.805608 
L 352.480175 -51.805608 
L 348.482124 -51.805608 
L 344.484073 -51.805608 
L 340.486021 -51.805608 
L 336.48797 -51.805608 
L 332.489919 -51.805608 
L 328.491868 -51.805608 
L 324.493817 -51.805608 
L 320.495766 -51.805608 
L 316.497715 -51.805608 
L 312.499664 -51.805608 
L 308.501612 -51.805608 
L 304.503561 -51.963155 
L 300.50551 -52.278248 
L 296.507459 -52.750887 
L 292.509408 -53.381073 
L 288.511357 -54.168805 
L 284.513306 -55.114084 
L 280.515254 -56.216909 
L 276.517203 -57.477281 
L 272.519152 -58.895199 
L 268.521101 -60.470663 
L 264.52305 -62.203674 
L 260.524999 -64.094232 
L 256.526948 -66.142336 
L 252.528897 -68.347986 
L 248.530845 -70.711183 
L 244.532794 -73.231926 
L 240.534743 -75.910216 
L 236.536692 -78.746052 
L 232.538641 -81.739435 
L 228.54059 -84.890364 
L 224.542539 -87.883747 
L 220.544488 -90.719583 
L 216.546436 -93.397873 
L 212.548385 -95.918616 
L 208.550334 -98.281813 
L 204.552283 -100.487463 
L 200.554232 -102.535567 
L 196.556181 -104.426124 
L 192.55813 -106.159135 
L 188.560079 -107.7346 
L 184.562027 -109.152518 
L 180.563976 -110.41289 
L 176.565925 -111.515715 
L 172.567874 -112.460994 
L 168.569823 -113.248726 
L 164.571772 -113.878912 
L 160.573721 -114.351551 
L 156.575669 -114.666644 
L 152.577618 -114.824191 
L 148.579567 -114.824191 
L 144.581516 -114.824191 
L 140.583465 -114.824191 
L 136.585414 -114.824191 
L 132.587363 -114.824191 
L 128.589312 -114.824191 
L 124.59126 -114.824191 
L 120.593209 -114.824191 
L 116.595158 -114.824191 
L 112.597107 -114.824191 
L 108.599056 -114.824191 
z
" style="stroke: #57a7db; stroke-opacity: 0.65"/>
    </defs>
    <g clip-path="url(#p60cd79d01b)">
     <use xlink:href="#m15b8bf6a65" x="0" y="153" style="fill: #57a7db; fill-opacity: 0.65; stroke: #57a7db; stroke-opacity: 0.65"/>
    </g>
   </g>
   <g id="PolyCollection_20">
    <defs>
     <path id="mb1627846d2" d="M 108.599056 -121.042373 
L 108.599056 -114.824191 
L 112.597107 -114.824191 
L 116.595158 -114.824191 
L 120.593209 -114.824191 
L 124.59126 -114.824191 
L 128.589312 -114.824191 
L 132.587363 -114.824191 
L 136.585414 -114.824191 
L 140.583465 -114.824191 
L 144.581516 -114.824191 
L 148.579567 -114.824191 
L 152.577618 -114.824191 
L 156.575669 -114.792157 
L 160.573721 -114.728089 
L 164.571772 -114.631987 
L 168.569823 -114.503852 
L 172.567874 -114.343682 
L 176.565925 -114.151479 
L 180.563976 -113.927241 
L 184.562027 -113.67097 
L 188.560079 -113.382665 
L 192.55813 -113.062326 
L 196.556181 -112.709953 
L 200.554232 -112.325546 
L 204.552283 -111.909106 
L 208.550334 -111.460631 
L 212.548385 -110.980123 
L 216.546436 -110.46758 
L 220.544488 -109.923004 
L 224.542539 -109.346394 
L 228.54059 -108.73775 
L 232.538641 -108.097072 
L 236.536692 -107.488428 
L 240.534743 -106.911818 
L 244.532794 -106.367241 
L 248.530845 -105.854699 
L 252.528897 -105.374191 
L 256.526948 -104.925716 
L 260.524999 -104.509275 
L 264.52305 -104.124869 
L 268.521101 -103.772496 
L 272.519152 -103.452157 
L 276.517203 -103.163852 
L 280.515254 -102.90758 
L 284.513306 -102.683343 
L 288.511357 -102.49114 
L 292.509408 -102.33097 
L 296.507459 -102.202835 
L 300.50551 -102.106733 
L 304.503561 -102.042665 
L 308.501612 -102.010631 
L 312.499664 -102.010631 
L 316.497715 -102.010631 
L 320.495766 -102.010631 
L 324.493817 -102.010631 
L 328.491868 -102.010631 
L 332.489919 -102.010631 
L 336.48797 -102.010631 
L 340.486021 -102.010631 
L 344.484073 -102.010631 
L 348.482124 -102.010631 
L 352.480175 -102.010631 
L 352.480175 -108.228814 
L 352.480175 -108.228814 
L 348.482124 -108.228814 
L 344.484073 -108.228814 
L 340.486021 -108.228814 
L 336.48797 -108.228814 
L 332.489919 -108.228814 
L 328.491868 -108.228814 
L 324.493817 -108.228814 
L 320.495766 -108.228814 
L 316.497715 -108.228814 
L 312.499664 -108.228814 
L 308.501612 -108.228814 
L 304.503561 -108.260847 
L 300.50551 -108.324915 
L 296.507459 -108.421017 
L 292.509408 -108.549153 
L 288.511357 -108.709322 
L 284.513306 -108.901525 
L 280.515254 -109.125763 
L 276.517203 -109.382034 
L 272.519152 -109.670339 
L 268.521101 -109.990678 
L 264.52305 -110.343051 
L 260.524999 -110.727458 
L 256.526948 -111.143898 
L 252.528897 -111.592373 
L 248.530845 -112.072881 
L 244.532794 -112.585424 
L 240.534743 -113.13 
L 236.536692 -113.70661 
L 232.538641 -114.315254 
L 228.54059 -114.955932 
L 224.542539 -115.564576 
L 220.544488 -116.141186 
L 216.546436 -116.685763 
L 212.548385 -117.198305 
L 208.550334 -117.678814 
L 204.552283 -118.127288 
L 200.554232 -118.543729 
L 196.556181 -118.928136 
L 192.55813 -119.280508 
L 188.560079 -119.600847 
L 184.562027 -119.889153 
L 180.563976 -120.145424 
L 176.565925 -120.369661 
L 172.567874 -120.561864 
L 168.569823 -120.722034 
L 164.571772 -120.850169 
L 160.573721 -120.946271 
L 156.575669 -121.010339 
L 152.577618 -121.042373 
L 148.579567 -121.042373 
L 144.581516 -121.042373 
L 140.583465 -121.042373 
L 136.585414 -121.042373 
L 132.587363 -121.042373 
L 128.589312 -121.042373 
L 124.59126 -121.042373 
L 120.593209 -121.042373 
L 116.595158 -121.042373 
L 112.597107 -121.042373 
L 108.599056 -121.042373 
z
" style="stroke: #57a7db; stroke-opacity: 0.65"/>
    </defs>
    <g clip-path="url(#p60cd79d01b)">
     <use xlink:href="#mb1627846d2" x="0" y="153" style="fill: #57a7db; fill-opacity: 0.65; stroke: #57a7db; stroke-opacity: 0.65"/>
    </g>
   </g>
   <g id="PolyCollection_21">
    <defs>
     <path id="m4374e26bdf" d="M 108.599056 -139.5 
L 108.599056 -124.245763 
L 112.597107 -124.245763 
L 116.595158 -124.245763 
L 120.593209 -124.245763 
L 124.59126 -124.245763 
L 128.589312 -124.245763 
L 132.587363 -124.245763 
L 136.585414 -124.245763 
L 140.583465 -124.245763 
L 144.581516 -124.245763 
L 148.579567 -124.245763 
L 152.577618 -124.245763 
L 156.575669 -124.20572 
L 160.573721 -124.125636 
L 164.571772 -124.005508 
L 168.569823 -123.845339 
L 172.567874 -123.645127 
L 176.565925 -123.404873 
L 180.563976 -123.124576 
L 184.562027 -122.804237 
L 188.560079 -122.443856 
L 192.55813 -122.043432 
L 196.556181 -121.602966 
L 200.554232 -121.122458 
L 204.552283 -120.601907 
L 208.550334 -120.041314 
L 212.548385 -119.440678 
L 216.546436 -118.8 
L 220.544488 -118.11928 
L 224.542539 -117.398517 
L 228.54059 -116.637712 
L 232.538641 -115.836864 
L 236.536692 -115.076059 
L 240.534743 -114.355297 
L 244.532794 -113.674576 
L 248.530845 -113.033898 
L 252.528897 -112.433263 
L 256.526948 -111.872669 
L 260.524999 -111.352119 
L 264.52305 -110.87161 
L 268.521101 -110.431144 
L 272.519152 -110.03072 
L 276.517203 -109.670339 
L 280.515254 -109.35 
L 284.513306 -109.069703 
L 288.511357 -108.829449 
L 292.509408 -108.629237 
L 296.507459 -108.469068 
L 300.50551 -108.348941 
L 304.503561 -108.268856 
L 308.501612 -108.228814 
L 312.499664 -108.228814 
L 316.497715 -108.228814 
L 320.495766 -108.228814 
L 324.493817 -108.228814 
L 328.491868 -108.228814 
L 332.489919 -108.228814 
L 336.48797 -108.228814 
L 340.486021 -108.228814 
L 344.484073 -108.228814 
L 348.482124 -108.228814 
L 352.480175 -108.228814 
L 352.480175 -123.483051 
L 352.480175 -123.483051 
L 348.482124 -123.483051 
L 344.484073 -123.483051 
L 340.486021 -123.483051 
L 336.48797 -123.483051 
L 332.489919 -123.483051 
L 328.491868 -123.483051 
L 324.493817 -123.483051 
L 320.495766 -123.483051 
L 316.497715 -123.483051 
L 312.499664 -123.483051 
L 308.501612 -123.483051 
L 304.503561 -123.523093 
L 300.50551 -123.603178 
L 296.507459 -123.723305 
L 292.509408 -123.883475 
L 288.511357 -124.083686 
L 284.513306 -124.323941 
L 280.515254 -124.604237 
L 276.517203 -124.924576 
L 272.519152 -125.284958 
L 268.521101 -125.685381 
L 264.52305 -126.125847 
L 260.524999 -126.606356 
L 256.526948 -127.126907 
L 252.528897 -127.6875 
L 248.530845 -128.288136 
L 244.532794 -128.928814 
L 240.534743 -129.609534 
L 236.536692 -130.330297 
L 232.538641 -131.091102 
L 228.54059 -131.891949 
L 224.542539 -132.652754 
L 220.544488 -133.373517 
L 216.546436 -134.054237 
L 212.548385 -134.694915 
L 208.550334 -135.295551 
L 204.552283 -135.856144 
L 200.554232 -136.376695 
L 196.556181 -136.857203 
L 192.55813 -137.297669 
L 188.560079 -137.698093 
L 184.562027 -138.058475 
L 180.563976 -138.378814 
L 176.565925 -138.65911 
L 172.567874 -138.899364 
L 168.569823 -139.099576 
L 164.571772 -139.259746 
L 160.573721 -139.379873 
L 156.575669 -139.459958 
L 152.577618 -139.5 
L 148.579567 -139.5 
L 144.581516 -139.5 
L 140.583465 -139.5 
L 136.585414 -139.5 
L 132.587363 -139.5 
L 128.589312 -139.5 
L 124.59126 -139.5 
L 120.593209 -139.5 
L 116.595158 -139.5 
L 112.597107 -139.5 
L 108.599056 -139.5 
z
" style="stroke: #5f57db; stroke-opacity: 0.65"/>
    </defs>
    <g clip-path="url(#p60cd79d01b)">
     <use xlink:href="#m4374e26bdf" x="0" y="153" style="fill: #5f57db; fill-opacity: 0.65; stroke: #5f57db; stroke-opacity: 0.65"/>
    </g>
   </g>
   <g id="text_1">
    <!-- Amazon Light (Idle) -->
    <g transform="translate(18.1975 134.080381) scale(0.08 -0.08)">
     <defs>
      <path id="DejaVuSans-41" d="M 2188 4044 
L 1331 1722 
L 3047 1722 
L 2188 4044 
z
M 1831 4666 
L 2547 4666 
L 4325 0 
L 3669 0 
L 3244 1197 
L 1141 1197 
L 716 0 
L 50 0 
L 1831 4666 
z
" transform="scale(0.015625)"/>
      <path id="DejaVuSans-6d" d="M 3328 2828 
Q 3544 3216 3844 3400 
Q 4144 3584 4550 3584 
Q 5097 3584 5394 3201 
Q 5691 2819 5691 2113 
L 5691 0 
L 5113 0 
L 5113 2094 
Q 5113 2597 4934 2840 
Q 4756 3084 4391 3084 
Q 3944 3084 3684 2787 
Q 3425 2491 3425 1978 
L 3425 0 
L 2847 0 
L 2847 2094 
Q 2847 2600 2669 2842 
Q 2491 3084 2119 3084 
Q 1678 3084 1418 2786 
Q 1159 2488 1159 1978 
L 1159 0 
L 581 0 
L 581 3500 
L 1159 3500 
L 1159 2956 
Q 1356 3278 1631 3431 
Q 1906 3584 2284 3584 
Q 2666 3584 2933 3390 
Q 3200 3197 3328 2828 
z
" transform="scale(0.015625)"/>
      <path id="DejaVuSans-61" d="M 2194 1759 
Q 1497 1759 1228 1600 
Q 959 1441 959 1056 
Q 959 750 1161 570 
Q 1363 391 1709 391 
Q 2188 391 2477 730 
Q 2766 1069 2766 1631 
L 2766 1759 
L 2194 1759 
z
M 3341 1997 
L 3341 0 
L 2766 0 
L 2766 531 
Q 2569 213 2275 61 
Q 1981 -91 1556 -91 
Q 1019 -91 701 211 
Q 384 513 384 1019 
Q 384 1609 779 1909 
Q 1175 2209 1959 2209 
L 2766 2209 
L 2766 2266 
Q 2766 2663 2505 2880 
Q 2244 3097 1772 3097 
Q 1472 3097 1187 3025 
Q 903 2953 641 2809 
L 641 3341 
Q 956 3463 1253 3523 
Q 1550 3584 1831 3584 
Q 2591 3584 2966 3190 
Q 3341 2797 3341 1997 
z
" transform="scale(0.015625)"/>
      <path id="DejaVuSans-7a" d="M 353 3500 
L 3084 3500 
L 3084 2975 
L 922 459 
L 3084 459 
L 3084 0 
L 275 0 
L 275 525 
L 2438 3041 
L 353 3041 
L 353 3500 
z
" transform="scale(0.015625)"/>
      <path id="DejaVuSans-6f" d="M 1959 3097 
Q 1497 3097 1228 2736 
Q 959 2375 959 1747 
Q 959 1119 1226 758 
Q 1494 397 1959 397 
Q 2419 397 2687 759 
Q 2956 1122 2956 1747 
Q 2956 2369 2687 2733 
Q 2419 3097 1959 3097 
z
M 1959 3584 
Q 2709 3584 3137 3096 
Q 3566 2609 3566 1747 
Q 3566 888 3137 398 
Q 2709 -91 1959 -91 
Q 1206 -91 779 398 
Q 353 888 353 1747 
Q 353 2609 779 3096 
Q 1206 3584 1959 3584 
z
" transform="scale(0.015625)"/>
      <path id="DejaVuSans-6e" d="M 3513 2113 
L 3513 0 
L 2938 0 
L 2938 2094 
Q 2938 2591 2744 2837 
Q 2550 3084 2163 3084 
Q 1697 3084 1428 2787 
Q 1159 2491 1159 1978 
L 1159 0 
L 581 0 
L 581 3500 
L 1159 3500 
L 1159 2956 
Q 1366 3272 1645 3428 
Q 1925 3584 2291 3584 
Q 2894 3584 3203 3211 
Q 3513 2838 3513 2113 
z
" transform="scale(0.015625)"/>
      <path id="DejaVuSans-20" transform="scale(0.015625)"/>
      <path id="DejaVuSans-4c" d="M 628 4666 
L 1259 4666 
L 1259 531 
L 3531 531 
L 3531 0 
L 628 0 
L 628 4666 
z
" transform="scale(0.015625)"/>
      <path id="DejaVuSans-69" d="M 603 3500 
L 1178 3500 
L 1178 0 
L 603 0 
L 603 3500 
z
M 603 4863 
L 1178 4863 
L 1178 4134 
L 603 4134 
L 603 4863 
z
" transform="scale(0.015625)"/>
      <path id="DejaVuSans-67" d="M 2906 1791 
Q 2906 2416 2648 2759 
Q 2391 3103 1925 3103 
Q 1463 3103 1205 2759 
Q 947 2416 947 1791 
Q 947 1169 1205 825 
Q 1463 481 1925 481 
Q 2391 481 2648 825 
Q 2906 1169 2906 1791 
z
M 3481 434 
Q 3481 -459 3084 -895 
Q 2688 -1331 1869 -1331 
Q 1566 -1331 1297 -1286 
Q 1028 -1241 775 -1147 
L 775 -588 
Q 1028 -725 1275 -790 
Q 1522 -856 1778 -856 
Q 2344 -856 2625 -561 
Q 2906 -266 2906 331 
L 2906 616 
Q 2728 306 2450 153 
Q 2172 0 1784 0 
Q 1141 0 747 490 
Q 353 981 353 1791 
Q 353 2603 747 3093 
Q 1141 3584 1784 3584 
Q 2172 3584 2450 3431 
Q 2728 3278 2906 2969 
L 2906 3500 
L 3481 3500 
L 3481 434 
z
" transform="scale(0.015625)"/>
      <path id="DejaVuSans-68" d="M 3513 2113 
L 3513 0 
L 2938 0 
L 2938 2094 
Q 2938 2591 2744 2837 
Q 2550 3084 2163 3084 
Q 1697 3084 1428 2787 
Q 1159 2491 1159 1978 
L 1159 0 
L 581 0 
L 581 4863 
L 1159 4863 
L 1159 2956 
Q 1366 3272 1645 3428 
Q 1925 3584 2291 3584 
Q 2894 3584 3203 3211 
Q 3513 2838 3513 2113 
z
" transform="scale(0.015625)"/>
      <path id="DejaVuSans-74" d="M 1172 4494 
L 1172 3500 
L 2356 3500 
L 2356 3053 
L 1172 3053 
L 1172 1153 
Q 1172 725 1289 603 
Q 1406 481 1766 481 
L 2356 481 
L 2356 0 
L 1766 0 
Q 1100 0 847 248 
Q 594 497 594 1153 
L 594 3053 
L 172 3053 
L 172 3500 
L 594 3500 
L 594 4494 
L 1172 4494 
z
" transform="scale(0.015625)"/>
      <path id="DejaVuSans-28" d="M 1984 4856 
Q 1566 4138 1362 3434 
Q 1159 2731 1159 2009 
Q 1159 1288 1364 580 
Q 1569 -128 1984 -844 
L 1484 -844 
Q 1016 -109 783 600 
Q 550 1309 550 2009 
Q 550 2706 781 3412 
Q 1013 4119 1484 4856 
L 1984 4856 
z
" transform="scale(0.015625)"/>
      <path id="DejaVuSans-49" d="M 628 4666 
L 1259 4666 
L 1259 0 
L 628 0 
L 628 4666 
z
" transform="scale(0.015625)"/>
      <path id="DejaVuSans-64" d="M 2906 2969 
L 2906 4863 
L 3481 4863 
L 3481 0 
L 2906 0 
L 2906 525 
Q 2725 213 2448 61 
Q 2172 -91 1784 -91 
Q 1150 -91 751 415 
Q 353 922 353 1747 
Q 353 2572 751 3078 
Q 1150 3584 1784 3584 
Q 2172 3584 2448 3432 
Q 2725 3281 2906 2969 
z
M 947 1747 
Q 947 1113 1208 752 
Q 1469 391 1925 391 
Q 2381 391 2643 752 
Q 2906 1113 2906 1747 
Q 2906 2381 2643 2742 
Q 2381 3103 1925 3103 
Q 1469 3103 1208 2742 
Q 947 2381 947 1747 
z
" transform="scale(0.015625)"/>
      <path id="DejaVuSans-6c" d="M 603 4863 
L 1178 4863 
L 1178 0 
L 603 0 
L 603 4863 
z
" transform="scale(0.015625)"/>
      <path id="DejaVuSans-65" d="M 3597 1894 
L 3597 1613 
L 953 1613 
Q 991 1019 1311 708 
Q 1631 397 2203 397 
Q 2534 397 2845 478 
Q 3156 559 3463 722 
L 3463 178 
Q 3153 47 2828 -22 
Q 2503 -91 2169 -91 
Q 1331 -91 842 396 
Q 353 884 353 1716 
Q 353 2575 817 3079 
Q 1281 3584 2069 3584 
Q 2775 3584 3186 3129 
Q 3597 2675 3597 1894 
z
M 3022 2063 
Q 3016 2534 2758 2815 
Q 2500 3097 2075 3097 
Q 1594 3097 1305 2825 
Q 1016 2553 972 2059 
L 3022 2063 
z
" transform="scale(0.015625)"/>
      <path id="DejaVuSans-29" d="M 513 4856 
L 1013 4856 
Q 1481 4119 1714 3412 
Q 1947 2706 1947 2009 
Q 1947 1309 1714 600 
Q 1481 -109 1013 -844 
L 513 -844 
Q 928 -128 1133 580 
Q 1338 1288 1338 2009 
Q 1338 2731 1133 3434 
Q 928 4138 513 4856 
z
" transform="scale(0.015625)"/>
     </defs>
     <use xlink:href="#DejaVuSans-41"/>
     <use xlink:href="#DejaVuSans-6d" x="68.408203"/>
     <use xlink:href="#DejaVuSans-61" x="165.820312"/>
     <use xlink:href="#DejaVuSans-7a" x="227.099609"/>
     <use xlink:href="#DejaVuSans-6f" x="279.589844"/>
     <use xlink:href="#DejaVuSans-6e" x="340.771484"/>
     <use xlink:href="#DejaVuSans-20" x="404.150391"/>
     <use xlink:href="#DejaVuSans-4c" x="435.9375"/>
     <use xlink:href="#DejaVuSans-69" x="491.650391"/>
     <use xlink:href="#DejaVuSans-67" x="519.433594"/>
     <use xlink:href="#DejaVuSans-68" x="582.910156"/>
     <use xlink:href="#DejaVuSans-74" x="646.289062"/>
     <use xlink:href="#DejaVuSans-20" x="685.498047"/>
     <use xlink:href="#DejaVuSans-28" x="717.285156"/>
     <use xlink:href="#DejaVuSans-49" x="756.298828"/>
     <use xlink:href="#DejaVuSans-64" x="785.791016"/>
     <use xlink:href="#DejaVuSans-6c" x="849.267578"/>
     <use xlink:href="#DejaVuSans-65" x="877.050781"/>
     <use xlink:href="#DejaVuSans-29" x="938.574219"/>
    </g>
   </g>
   <g id="text_2">
    <!-- Echo Dot 5 (Idle) -->
    <g transform="translate(29.25125 115.622754) scale(0.08 -0.08)">
     <defs>
      <path id="DejaVuSans-45" d="M 628 4666 
L 3578 4666 
L 3578 4134 
L 1259 4134 
L 1259 2753 
L 3481 2753 
L 3481 2222 
L 1259 2222 
L 1259 531 
L 3634 531 
L 3634 0 
L 628 0 
L 628 4666 
z
" transform="scale(0.015625)"/>
      <path id="DejaVuSans-63" d="M 3122 3366 
L 3122 2828 
Q 2878 2963 2633 3030 
Q 2388 3097 2138 3097 
Q 1578 3097 1268 2742 
Q 959 2388 959 1747 
Q 959 1106 1268 751 
Q 1578 397 2138 397 
Q 2388 397 2633 464 
Q 2878 531 3122 666 
L 3122 134 
Q 2881 22 2623 -34 
Q 2366 -91 2075 -91 
Q 1284 -91 818 406 
Q 353 903 353 1747 
Q 353 2603 823 3093 
Q 1294 3584 2113 3584 
Q 2378 3584 2631 3529 
Q 2884 3475 3122 3366 
z
" transform="scale(0.015625)"/>
      <path id="DejaVuSans-44" d="M 1259 4147 
L 1259 519 
L 2022 519 
Q 2988 519 3436 956 
Q 3884 1394 3884 2338 
Q 3884 3275 3436 3711 
Q 2988 4147 2022 4147 
L 1259 4147 
z
M 628 4666 
L 1925 4666 
Q 3281 4666 3915 4102 
Q 4550 3538 4550 2338 
Q 4550 1131 3912 565 
Q 3275 0 1925 0 
L 628 0 
L 628 4666 
z
" transform="scale(0.015625)"/>
      <path id="DejaVuSans-35" d="M 691 4666 
L 3169 4666 
L 3169 4134 
L 1269 4134 
L 1269 2991 
Q 1406 3038 1543 3061 
Q 1681 3084 1819 3084 
Q 2600 3084 3056 2656 
Q 3513 2228 3513 1497 
Q 3513 744 3044 326 
Q 2575 -91 1722 -91 
Q 1428 -91 1123 -41 
Q 819 9 494 109 
L 494 744 
Q 775 591 1075 516 
Q 1375 441 1709 441 
Q 2250 441 2565 725 
Q 2881 1009 2881 1497 
Q 2881 1984 2565 2268 
Q 2250 2553 1709 2553 
Q 1456 2553 1204 2497 
Q 953 2441 691 2322 
L 691 4666 
z
" transform="scale(0.015625)"/>
     </defs>
     <use xlink:href="#DejaVuSans-45"/>
     <use xlink:href="#DejaVuSans-63" x="63.183594"/>
     <use xlink:href="#DejaVuSans-68" x="118.164062"/>
     <use xlink:href="#DejaVuSans-6f" x="181.542969"/>
     <use xlink:href="#DejaVuSans-20" x="242.724609"/>
     <use xlink:href="#DejaVuSans-44" x="274.511719"/>
     <use xlink:href="#DejaVuSans-6f" x="351.513672"/>
     <use xlink:href="#DejaVuSans-74" x="412.695312"/>
     <use xlink:href="#DejaVuSans-20" x="451.904297"/>
     <use xlink:href="#DejaVuSans-35" x="483.691406"/>
     <use xlink:href="#DejaVuSans-20" x="547.314453"/>
     <use xlink:href="#DejaVuSans-28" x="579.101562"/>
     <use xlink:href="#DejaVuSans-49" x="618.115234"/>
     <use xlink:href="#DejaVuSans-64" x="647.607422"/>
     <use xlink:href="#DejaVuSans-6c" x="711.083984"/>
     <use xlink:href="#DejaVuSans-65" x="738.867188"/>
     <use xlink:href="#DejaVuSans-29" x="800.390625"/>
    </g>
   </g>
   <g id="text_3">
    <!-- Govee Kettle (Idle) -->
    <g transform="translate(21.63375 97.165127) scale(0.08 -0.08)">
     <defs>
      <path id="DejaVuSans-47" d="M 3809 666 
L 3809 1919 
L 2778 1919 
L 2778 2438 
L 4434 2438 
L 4434 434 
Q 4069 175 3628 42 
Q 3188 -91 2688 -91 
Q 1594 -91 976 548 
Q 359 1188 359 2328 
Q 359 3472 976 4111 
Q 1594 4750 2688 4750 
Q 3144 4750 3555 4637 
Q 3966 4525 4313 4306 
L 4313 3634 
Q 3963 3931 3569 4081 
Q 3175 4231 2741 4231 
Q 1884 4231 1454 3753 
Q 1025 3275 1025 2328 
Q 1025 1384 1454 906 
Q 1884 428 2741 428 
Q 3075 428 3337 486 
Q 3600 544 3809 666 
z
" transform="scale(0.015625)"/>
      <path id="DejaVuSans-76" d="M 191 3500 
L 800 3500 
L 1894 563 
L 2988 3500 
L 3597 3500 
L 2284 0 
L 1503 0 
L 191 3500 
z
" transform="scale(0.015625)"/>
      <path id="DejaVuSans-4b" d="M 628 4666 
L 1259 4666 
L 1259 2694 
L 3353 4666 
L 4166 4666 
L 1850 2491 
L 4331 0 
L 3500 0 
L 1259 2247 
L 1259 0 
L 628 0 
L 628 4666 
z
" transform="scale(0.015625)"/>
     </defs>
     <use xlink:href="#DejaVuSans-47"/>
     <use xlink:href="#DejaVuSans-6f" x="77.490234"/>
     <use xlink:href="#DejaVuSans-76" x="138.671875"/>
     <use xlink:href="#DejaVuSans-65" x="197.851562"/>
     <use xlink:href="#DejaVuSans-65" x="259.375"/>
     <use xlink:href="#DejaVuSans-20" x="320.898438"/>
     <use xlink:href="#DejaVuSans-4b" x="352.685547"/>
     <use xlink:href="#DejaVuSans-65" x="413.261719"/>
     <use xlink:href="#DejaVuSans-74" x="474.785156"/>
     <use xlink:href="#DejaVuSans-74" x="513.994141"/>
     <use xlink:href="#DejaVuSans-6c" x="553.203125"/>
     <use xlink:href="#DejaVuSans-65" x="580.986328"/>
     <use xlink:href="#DejaVuSans-20" x="642.509766"/>
     <use xlink:href="#DejaVuSans-28" x="674.296875"/>
     <use xlink:href="#DejaVuSans-49" x="713.310547"/>
     <use xlink:href="#DejaVuSans-64" x="742.802734"/>
     <use xlink:href="#DejaVuSans-6c" x="806.279297"/>
     <use xlink:href="#DejaVuSans-65" x="834.0625"/>
     <use xlink:href="#DejaVuSans-29" x="895.585938"/>
    </g>
   </g>
   <g id="text_4">
    <!-- Litokam Camera (Idle) -->
    <g transform="translate(7.2 78.7075) scale(0.08 -0.08)">
     <defs>
      <path id="DejaVuSans-6b" d="M 581 4863 
L 1159 4863 
L 1159 1991 
L 2875 3500 
L 3609 3500 
L 1753 1863 
L 3688 0 
L 2938 0 
L 1159 1709 
L 1159 0 
L 581 0 
L 581 4863 
z
" transform="scale(0.015625)"/>
      <path id="DejaVuSans-43" d="M 4122 4306 
L 4122 3641 
Q 3803 3938 3442 4084 
Q 3081 4231 2675 4231 
Q 1875 4231 1450 3742 
Q 1025 3253 1025 2328 
Q 1025 1406 1450 917 
Q 1875 428 2675 428 
Q 3081 428 3442 575 
Q 3803 722 4122 1019 
L 4122 359 
Q 3791 134 3420 21 
Q 3050 -91 2638 -91 
Q 1578 -91 968 557 
Q 359 1206 359 2328 
Q 359 3453 968 4101 
Q 1578 4750 2638 4750 
Q 3056 4750 3426 4639 
Q 3797 4528 4122 4306 
z
" transform="scale(0.015625)"/>
      <path id="DejaVuSans-72" d="M 2631 2963 
Q 2534 3019 2420 3045 
Q 2306 3072 2169 3072 
Q 1681 3072 1420 2755 
Q 1159 2438 1159 1844 
L 1159 0 
L 581 0 
L 581 3500 
L 1159 3500 
L 1159 2956 
Q 1341 3275 1631 3429 
Q 1922 3584 2338 3584 
Q 2397 3584 2469 3576 
Q 2541 3569 2628 3553 
L 2631 2963 
z
" transform="scale(0.015625)"/>
     </defs>
     <use xlink:href="#DejaVuSans-4c"/>
     <use xlink:href="#DejaVuSans-69" x="55.712891"/>
     <use xlink:href="#DejaVuSans-74" x="83.496094"/>
     <use xlink:href="#DejaVuSans-6f" x="122.705078"/>
     <use xlink:href="#DejaVuSans-6b" x="183.886719"/>
     <use xlink:href="#DejaVuSans-61" x="240.046875"/>
     <use xlink:href="#DejaVuSans-6d" x="301.326172"/>
     <use xlink:href="#DejaVuSans-20" x="398.738281"/>
     <use xlink:href="#DejaVuSans-43" x="430.525391"/>
     <use xlink:href="#DejaVuSans-61" x="500.349609"/>
     <use xlink:href="#DejaVuSans-6d" x="561.628906"/>
     <use xlink:href="#DejaVuSans-65" x="659.041016"/>
     <use xlink:href="#DejaVuSans-72" x="720.564453"/>
     <use xlink:href="#DejaVuSans-61" x="761.677734"/>
     <use xlink:href="#DejaVuSans-20" x="822.957031"/>
     <use xlink:href="#DejaVuSans-28" x="854.744141"/>
     <use xlink:href="#DejaVuSans-49" x="893.757812"/>
     <use xlink:href="#DejaVuSans-64" x="923.25"/>
     <use xlink:href="#DejaVuSans-6c" x="986.726562"/>
     <use xlink:href="#DejaVuSans-65" x="1014.509766"/>
     <use xlink:href="#DejaVuSans-29" x="1076.033203"/>
    </g>
   </g>
   <g id="text_5">
    <!-- Netvue Camera (Idle) -->
    <g transform="translate(10.3275 60.249873) scale(0.08 -0.08)">
     <defs>
      <path id="DejaVuSans-4e" d="M 628 4666 
L 1478 4666 
L 3547 763 
L 3547 4666 
L 4159 4666 
L 4159 0 
L 3309 0 
L 1241 3903 
L 1241 0 
L 628 0 
L 628 4666 
z
" transform="scale(0.015625)"/>
      <path id="DejaVuSans-75" d="M 544 1381 
L 544 3500 
L 1119 3500 
L 1119 1403 
Q 1119 906 1312 657 
Q 1506 409 1894 409 
Q 2359 409 2629 706 
Q 2900 1003 2900 1516 
L 2900 3500 
L 3475 3500 
L 3475 0 
L 2900 0 
L 2900 538 
Q 2691 219 2414 64 
Q 2138 -91 1772 -91 
Q 1169 -91 856 284 
Q 544 659 544 1381 
z
M 1991 3584 
L 1991 3584 
z
" transform="scale(0.015625)"/>
     </defs>
     <use xlink:href="#DejaVuSans-4e"/>
     <use xlink:href="#DejaVuSans-65" x="74.804688"/>
     <use xlink:href="#DejaVuSans-74" x="136.328125"/>
     <use xlink:href="#DejaVuSans-76" x="175.537109"/>
     <use xlink:href="#DejaVuSans-75" x="234.716797"/>
     <use xlink:href="#DejaVuSans-65" x="298.095703"/>
     <use xlink:href="#DejaVuSans-20" x="359.619141"/>
     <use xlink:href="#DejaVuSans-43" x="391.40625"/>
     <use xlink:href="#DejaVuSans-61" x="461.230469"/>
     <use xlink:href="#DejaVuSans-6d" x="522.509766"/>
     <use xlink:href="#DejaVuSans-65" x="619.921875"/>
     <use xlink:href="#DejaVuSans-72" x="681.445312"/>
     <use xlink:href="#DejaVuSans-61" x="722.558594"/>
     <use xlink:href="#DejaVuSans-20" x="783.837891"/>
     <use xlink:href="#DejaVuSans-28" x="815.625"/>
     <use xlink:href="#DejaVuSans-49" x="854.638672"/>
     <use xlink:href="#DejaVuSans-64" x="884.130859"/>
     <use xlink:href="#DejaVuSans-6c" x="947.607422"/>
     <use xlink:href="#DejaVuSans-65" x="975.390625"/>
     <use xlink:href="#DejaVuSans-29" x="1036.914062"/>
    </g>
   </g>
   <g id="text_6">
    <!-- Hue Bridge (Idle) -->
    <g transform="translate(28.405 41.792246) scale(0.08 -0.08)">
     <defs>
      <path id="DejaVuSans-48" d="M 628 4666 
L 1259 4666 
L 1259 2753 
L 3553 2753 
L 3553 4666 
L 4184 4666 
L 4184 0 
L 3553 0 
L 3553 2222 
L 1259 2222 
L 1259 0 
L 628 0 
L 628 4666 
z
" transform="scale(0.015625)"/>
      <path id="DejaVuSans-42" d="M 1259 2228 
L 1259 519 
L 2272 519 
Q 2781 519 3026 730 
Q 3272 941 3272 1375 
Q 3272 1813 3026 2020 
Q 2781 2228 2272 2228 
L 1259 2228 
z
M 1259 4147 
L 1259 2741 
L 2194 2741 
Q 2656 2741 2882 2914 
Q 3109 3088 3109 3444 
Q 3109 3797 2882 3972 
Q 2656 4147 2194 4147 
L 1259 4147 
z
M 628 4666 
L 2241 4666 
Q 2963 4666 3353 4366 
Q 3744 4066 3744 3513 
Q 3744 3084 3544 2831 
Q 3344 2578 2956 2516 
Q 3422 2416 3680 2098 
Q 3938 1781 3938 1306 
Q 3938 681 3513 340 
Q 3088 0 2303 0 
L 628 0 
L 628 4666 
z
" transform="scale(0.015625)"/>
     </defs>
     <use xlink:href="#DejaVuSans-48"/>
     <use xlink:href="#DejaVuSans-75" x="75.195312"/>
     <use xlink:href="#DejaVuSans-65" x="138.574219"/>
     <use xlink:href="#DejaVuSans-20" x="200.097656"/>
     <use xlink:href="#DejaVuSans-42" x="231.884766"/>
     <use xlink:href="#DejaVuSans-72" x="300.488281"/>
     <use xlink:href="#DejaVuSans-69" x="341.601562"/>
     <use xlink:href="#DejaVuSans-64" x="369.384766"/>
     <use xlink:href="#DejaVuSans-67" x="432.861328"/>
     <use xlink:href="#DejaVuSans-65" x="496.337891"/>
     <use xlink:href="#DejaVuSans-20" x="557.861328"/>
     <use xlink:href="#DejaVuSans-28" x="589.648438"/>
     <use xlink:href="#DejaVuSans-49" x="628.662109"/>
     <use xlink:href="#DejaVuSans-64" x="658.154297"/>
     <use xlink:href="#DejaVuSans-6c" x="721.630859"/>
     <use xlink:href="#DejaVuSans-65" x="749.414062"/>
     <use xlink:href="#DejaVuSans-29" x="810.9375"/>
    </g>
   </g>
   <g id="text_7">
    <!-- TP-Link Plug (Idle) -->
    <g transform="translate(24.5 23.334619) scale(0.08 -0.08)">
     <defs>
      <path id="DejaVuSans-54" d="M -19 4666 
L 3928 4666 
L 3928 4134 
L 2272 4134 
L 2272 0 
L 1638 0 
L 1638 4134 
L -19 4134 
L -19 4666 
z
" transform="scale(0.015625)"/>
      <path id="DejaVuSans-50" d="M 1259 4147 
L 1259 2394 
L 2053 2394 
Q 2494 2394 2734 2622 
Q 2975 2850 2975 3272 
Q 2975 3691 2734 3919 
Q 2494 4147 2053 4147 
L 1259 4147 
z
M 628 4666 
L 2053 4666 
Q 2838 4666 3239 4311 
Q 3641 3956 3641 3272 
Q 3641 2581 3239 2228 
Q 2838 1875 2053 1875 
L 1259 1875 
L 1259 0 
L 628 0 
L 628 4666 
z
" transform="scale(0.015625)"/>
      <path id="DejaVuSans-2d" d="M 313 2009 
L 1997 2009 
L 1997 1497 
L 313 1497 
L 313 2009 
z
" transform="scale(0.015625)"/>
     </defs>
     <use xlink:href="#DejaVuSans-54"/>
     <use xlink:href="#DejaVuSans-50" x="61.083984"/>
     <use xlink:href="#DejaVuSans-2d" x="119.136719"/>
     <use xlink:href="#DejaVuSans-4c" x="155.220703"/>
     <use xlink:href="#DejaVuSans-69" x="210.933594"/>
     <use xlink:href="#DejaVuSans-6e" x="238.716797"/>
     <use xlink:href="#DejaVuSans-6b" x="302.095703"/>
     <use xlink:href="#DejaVuSans-20" x="360.005859"/>
     <use xlink:href="#DejaVuSans-50" x="391.792969"/>
     <use xlink:href="#DejaVuSans-6c" x="452.095703"/>
     <use xlink:href="#DejaVuSans-75" x="479.878906"/>
     <use xlink:href="#DejaVuSans-67" x="543.257812"/>
     <use xlink:href="#DejaVuSans-20" x="606.734375"/>
     <use xlink:href="#DejaVuSans-28" x="638.521484"/>
     <use xlink:href="#DejaVuSans-49" x="677.535156"/>
     <use xlink:href="#DejaVuSans-64" x="707.027344"/>
     <use xlink:href="#DejaVuSans-6c" x="770.503906"/>
     <use xlink:href="#DejaVuSans-65" x="798.287109"/>
     <use xlink:href="#DejaVuSans-29" x="859.810547"/>
    </g>
   </g>
   <g id="text_8">
    <!-- First Party -->
    <g transform="translate(364.674231 122.554696) scale(0.08 -0.08)">
     <defs>
      <path id="DejaVuSans-46" d="M 628 4666 
L 3309 4666 
L 3309 4134 
L 1259 4134 
L 1259 2759 
L 3109 2759 
L 3109 2228 
L 1259 2228 
L 1259 0 
L 628 0 
L 628 4666 
z
" transform="scale(0.015625)"/>
      <path id="DejaVuSans-73" d="M 2834 3397 
L 2834 2853 
Q 2591 2978 2328 3040 
Q 2066 3103 1784 3103 
Q 1356 3103 1142 2972 
Q 928 2841 928 2578 
Q 928 2378 1081 2264 
Q 1234 2150 1697 2047 
L 1894 2003 
Q 2506 1872 2764 1633 
Q 3022 1394 3022 966 
Q 3022 478 2636 193 
Q 2250 -91 1575 -91 
Q 1294 -91 989 -36 
Q 684 19 347 128 
L 347 722 
Q 666 556 975 473 
Q 1284 391 1588 391 
Q 1994 391 2212 530 
Q 2431 669 2431 922 
Q 2431 1156 2273 1281 
Q 2116 1406 1581 1522 
L 1381 1569 
Q 847 1681 609 1914 
Q 372 2147 372 2553 
Q 372 3047 722 3315 
Q 1072 3584 1716 3584 
Q 2034 3584 2315 3537 
Q 2597 3491 2834 3397 
z
" transform="scale(0.015625)"/>
      <path id="DejaVuSans-79" d="M 2059 -325 
Q 1816 -950 1584 -1140 
Q 1353 -1331 966 -1331 
L 506 -1331 
L 506 -850 
L 844 -850 
Q 1081 -850 1212 -737 
Q 1344 -625 1503 -206 
L 1606 56 
L 191 3500 
L 800 3500 
L 1894 763 
L 2988 3500 
L 3597 3500 
L 2059 -325 
z
" transform="scale(0.015625)"/>
     </defs>
     <use xlink:href="#DejaVuSans-46"/>
     <use xlink:href="#DejaVuSans-69" x="50.269531"/>
     <use xlink:href="#DejaVuSans-72" x="78.052734"/>
     <use xlink:href="#DejaVuSans-73" x="119.166016"/>
     <use xlink:href="#DejaVuSans-74" x="171.265625"/>
     <use xlink:href="#DejaVuSans-20" x="210.474609"/>
     <use xlink:href="#DejaVuSans-50" x="242.261719"/>
     <use xlink:href="#DejaVuSans-61" x="298.064453"/>
     <use xlink:href="#DejaVuSans-72" x="359.34375"/>
     <use xlink:href="#DejaVuSans-74" x="400.457031"/>
     <use xlink:href="#DejaVuSans-79" x="439.666016"/>
    </g>
   </g>
   <g id="text_9">
    <!-- Support Party -->
    <g transform="translate(364.674231 65.961476) scale(0.08 -0.08)">
     <defs>
      <path id="DejaVuSans-53" d="M 3425 4513 
L 3425 3897 
Q 3066 4069 2747 4153 
Q 2428 4238 2131 4238 
Q 1616 4238 1336 4038 
Q 1056 3838 1056 3469 
Q 1056 3159 1242 3001 
Q 1428 2844 1947 2747 
L 2328 2669 
Q 3034 2534 3370 2195 
Q 3706 1856 3706 1288 
Q 3706 609 3251 259 
Q 2797 -91 1919 -91 
Q 1588 -91 1214 -16 
Q 841 59 441 206 
L 441 856 
Q 825 641 1194 531 
Q 1563 422 1919 422 
Q 2459 422 2753 634 
Q 3047 847 3047 1241 
Q 3047 1584 2836 1778 
Q 2625 1972 2144 2069 
L 1759 2144 
Q 1053 2284 737 2584 
Q 422 2884 422 3419 
Q 422 4038 858 4394 
Q 1294 4750 2059 4750 
Q 2388 4750 2728 4690 
Q 3069 4631 3425 4513 
z
" transform="scale(0.015625)"/>
      <path id="DejaVuSans-70" d="M 1159 525 
L 1159 -1331 
L 581 -1331 
L 581 3500 
L 1159 3500 
L 1159 2969 
Q 1341 3281 1617 3432 
Q 1894 3584 2278 3584 
Q 2916 3584 3314 3078 
Q 3713 2572 3713 1747 
Q 3713 922 3314 415 
Q 2916 -91 2278 -91 
Q 1894 -91 1617 61 
Q 1341 213 1159 525 
z
M 3116 1747 
Q 3116 2381 2855 2742 
Q 2594 3103 2138 3103 
Q 1681 3103 1420 2742 
Q 1159 2381 1159 1747 
Q 1159 1113 1420 752 
Q 1681 391 2138 391 
Q 2594 391 2855 752 
Q 3116 1113 3116 1747 
z
" transform="scale(0.015625)"/>
     </defs>
     <use xlink:href="#DejaVuSans-53"/>
     <use xlink:href="#DejaVuSans-75" x="63.476562"/>
     <use xlink:href="#DejaVuSans-70" x="126.855469"/>
     <use xlink:href="#DejaVuSans-70" x="190.332031"/>
     <use xlink:href="#DejaVuSans-6f" x="253.808594"/>
     <use xlink:href="#DejaVuSans-72" x="314.990234"/>
     <use xlink:href="#DejaVuSans-74" x="356.103516"/>
     <use xlink:href="#DejaVuSans-20" x="395.3125"/>
     <use xlink:href="#DejaVuSans-50" x="427.099609"/>
     <use xlink:href="#DejaVuSans-61" x="482.902344"/>
     <use xlink:href="#DejaVuSans-72" x="544.181641"/>
     <use xlink:href="#DejaVuSans-74" x="585.294922"/>
     <use xlink:href="#DejaVuSans-79" x="624.503906"/>
    </g>
   </g>
  </g>
 </g>
 <defs>
  <clipPath id="p60cd79d01b">
   <rect x="91.039615" y="7.2" width="279" height="138.6"/>
  </clipPath>
 </defs>
</svg>
