<?xml version="1.0" encoding="utf-8" standalone="no"?>
<!DOCTYPE svg PUBLIC "-//W3C//DTD SVG 1.1//EN"
  "http://www.w3.org/Graphics/SVG/1.1/DTD/svg11.dtd">
<svg xmlns:xlink="http://www.w3.org/1999/xlink" width="390.064231pt" height="97.56pt" viewBox="0 0 390.064231 97.56" xmlns="http://www.w3.org/2000/svg" version="1.1">
 <metadata>
  <rdf:RDF xmlns:dc="http://purl.org/dc/elements/1.1/" xmlns:cc="http://creativecommons.org/ns#" xmlns:rdf="http://www.w3.org/1999/02/22-rdf-syntax-ns#">
   <cc:Work>
    <dc:type rdf:resource="http://purl.org/dc/dcmitype/StillImage"/>
    <dc:date>2024-10-04T19:54:20.959752</dc:date>
    <dc:format>image/svg+xml</dc:format>
    <dc:creator>
     <cc:Agent>
      <dc:title>Matplotlib v3.9.2, https://matplotlib.org/</dc:title>
     </cc:Agent>
    </dc:creator>
   </cc:Work>
  </rdf:RDF>
 </metadata>
 <defs>
  <style type="text/css">*{stroke-linejoin: round; stroke-linecap: butt}</style>
 </defs>
 <g id="figure_1">
  <g id="patch_1">
   <path d="M 0 97.56 
L 390.064231 97.56 
L 390.064231 0 
L 0 0 
z
" style="fill: #ffffff"/>
  </g>
  <g id="axes_1">
   <g id="PolyCollection_1">
    <defs>
     <path id="m1feea4878c" d="M 67.216434 -31.14 
L 67.216434 -10.98 
L 72.094056 -10.98 
L 72.094056 -31.14 
L 72.094056 -31.14 
L 67.216434 -31.14 
z
" style="stroke: #db5f57; stroke-opacity: 0.99"/>
    </defs>
    <g clip-path="url(#p01f387acb9)">
     <use xlink:href="#m1feea4878c" x="0" y="97.56" style="fill: #db5f57; fill-opacity: 0.99; stroke: #db5f57; stroke-opacity: 0.99"/>
    </g>
   </g>
   <g id="PolyCollection_2">
    <defs>
     <path id="m3fa9b3575c" d="M 67.216434 -58.860001 
L 67.216434 -38.7 
L 72.094056 -38.7 
L 72.094056 -58.860001 
L 72.094056 -58.860001 
L 67.216434 -58.860001 
z
" style="stroke: #d3db57; stroke-opacity: 0.99"/>
    </defs>
    <g clip-path="url(#p01f387acb9)">
     <use xlink:href="#m3fa9b3575c" x="0" y="97.56" style="fill: #d3db57; fill-opacity: 0.99; stroke: #d3db57; stroke-opacity: 0.99"/>
    </g>
   </g>
   <g id="PolyCollection_3">
    <defs>
     <path id="mdc1c40bb77" d="M 67.216434 -86.58 
L 67.216434 -66.420001 
L 72.094056 -66.420001 
L 72.094056 -86.58 
L 72.094056 -86.58 
L 67.216434 -86.58 
z
" style="stroke: #57db5f; stroke-opacity: 0.99"/>
    </defs>
    <g clip-path="url(#p01f387acb9)">
     <use xlink:href="#mdc1c40bb77" x="0" y="97.56" style="fill: #57db5f; fill-opacity: 0.99; stroke: #57db5f; stroke-opacity: 0.99"/>
    </g>
   </g>
   <g id="PolyCollection_4">
    <defs>
     <path id="mf49985d6d9" d="M 315.975175 -11.373189 
L 315.975175 -10.98 
L 320.852797 -10.98 
L 320.852797 -11.373189 
L 320.852797 -11.373189 
L 315.975175 -11.373189 
z
" style="stroke: #57d3db; stroke-opacity: 0.99"/>
    </defs>
    <g clip-path="url(#p01f387acb9)">
     <use xlink:href="#mf49985d6d9" x="0" y="97.56" style="fill: #57d3db; fill-opacity: 0.99; stroke: #57d3db; stroke-opacity: 0.99"/>
    </g>
   </g>
   <g id="PolyCollection_5">
    <defs>
     <path id="m203ee68037" d="M 315.975175 -41.121112 
L 315.975175 -18.933189 
L 320.852797 -18.933189 
L 320.852797 -41.121112 
L 320.852797 -41.121112 
L 315.975175 -41.121112 
z
" style="stroke: #5f57db; stroke-opacity: 0.99"/>
    </defs>
    <g clip-path="url(#p01f387acb9)">
     <use xlink:href="#m203ee68037" x="0" y="97.56" style="fill: #5f57db; fill-opacity: 0.99; stroke: #5f57db; stroke-opacity: 0.99"/>
    </g>
   </g>
   <g id="PolyCollection_6">
    <defs>
     <path id="m2bc88e6a3d" d="M 315.975175 -86.58 
L 315.975175 -48.681112 
L 320.852797 -48.681112 
L 320.852797 -86.58 
L 320.852797 -86.58 
L 315.975175 -86.58 
z
" style="stroke: #db57d3; stroke-opacity: 0.99"/>
    </defs>
    <g clip-path="url(#p01f387acb9)">
     <use xlink:href="#m2bc88e6a3d" x="0" y="97.56" style="fill: #db57d3; fill-opacity: 0.99; stroke: #db57d3; stroke-opacity: 0.99"/>
    </g>
   </g>
   <g id="PolyCollection_7">
    <defs>
     <path id="mc2a5f5eb54" d="M 72.094056 -11.233108 
L 72.094056 -10.98 
L 76.092107 -10.98 
L 80.090158 -10.98 
L 84.088209 -10.98 
L 88.08626 -10.98 
L 92.084312 -10.98 
L 96.082363 -10.98 
L 100.080414 -10.98 
L 104.078465 -10.98 
L 108.076516 -10.98 
L 112.074567 -10.98 
L 116.072618 -10.98 
L 120.070669 -10.98 
L 124.068721 -10.98 
L 128.066772 -10.98 
L 132.064823 -10.98 
L 136.062874 -10.98 
L 140.060925 -10.98 
L 144.058976 -10.98 
L 148.057027 -10.98 
L 152.055079 -10.98 
L 156.05313 -10.98 
L 160.051181 -10.98 
L 164.049232 -10.98 
L 168.047283 -10.98 
L 172.045334 -10.98 
L 176.043385 -10.98 
L 180.041436 -10.98 
L 184.039488 -10.98 
L 188.037539 -10.98 
L 192.03559 -10.98 
L 196.033641 -10.98 
L 200.031692 -10.98 
L 204.029743 -10.98 
L 208.027794 -10.98 
L 212.025845 -10.98 
L 216.023897 -10.98 
L 220.021948 -10.98 
L 224.019999 -10.98 
L 228.01805 -10.98 
L 232.016101 -10.98 
L 236.014152 -10.98 
L 240.012203 -10.98 
L 244.010254 -10.98 
L 248.008306 -10.98 
L 252.006357 -10.98 
L 256.004408 -10.98 
L 260.002459 -10.98 
L 264.00051 -10.98 
L 267.998561 -10.98 
L 271.996612 -10.98 
L 275.994664 -10.98 
L 279.992715 -10.98 
L 283.990766 -10.98 
L 287.988817 -10.98 
L 291.986868 -10.98 
L 295.984919 -10.98 
L 299.98297 -10.98 
L 303.981021 -10.98 
L 307.979073 -10.98 
L 311.977124 -10.98 
L 315.975175 -10.98 
L 315.975175 -11.233108 
L 315.975175 -11.233108 
L 311.977124 -11.233108 
L 307.979073 -11.233108 
L 303.981021 -11.233108 
L 299.98297 -11.233108 
L 295.984919 -11.233108 
L 291.986868 -11.233108 
L 287.988817 -11.233108 
L 283.990766 -11.233108 
L 279.992715 -11.233108 
L 275.994664 -11.233108 
L 271.996612 -11.233108 
L 267.998561 -11.233108 
L 264.00051 -11.233108 
L 260.002459 -11.233108 
L 256.004408 -11.233108 
L 252.006357 -11.233108 
L 248.008306 -11.233108 
L 244.010254 -11.233108 
L 240.012203 -11.233108 
L 236.014152 -11.233108 
L 232.016101 -11.233108 
L 228.01805 -11.233108 
L 224.019999 -11.233108 
L 220.021948 -11.233108 
L 216.023897 -11.233108 
L 212.025845 -11.233108 
L 208.027794 -11.233108 
L 204.029743 -11.233108 
L 200.031692 -11.233108 
L 196.033641 -11.233108 
L 192.03559 -11.233108 
L 188.037539 -11.233108 
L 184.039488 -11.233108 
L 180.041436 -11.233108 
L 176.043385 -11.233108 
L 172.045334 -11.233108 
L 168.047283 -11.233108 
L 164.049232 -11.233108 
L 160.051181 -11.233108 
L 156.05313 -11.233108 
L 152.055079 -11.233108 
L 148.057027 -11.233108 
L 144.058976 -11.233108 
L 140.060925 -11.233108 
L 136.062874 -11.233108 
L 132.064823 -11.233108 
L 128.066772 -11.233108 
L 124.068721 -11.233108 
L 120.070669 -11.233108 
L 116.072618 -11.233108 
L 112.074567 -11.233108 
L 108.076516 -11.233108 
L 104.078465 -11.233108 
L 100.080414 -11.233108 
L 96.082363 -11.233108 
L 92.084312 -11.233108 
L 88.08626 -11.233108 
L 84.088209 -11.233108 
L 80.090158 -11.233108 
L 76.092107 -11.233108 
L 72.094056 -11.233108 
z
" style="stroke: #db5f57; stroke-opacity: 0.65"/>
    </defs>
    <g clip-path="url(#p01f387acb9)">
     <use xlink:href="#mc2a5f5eb54" x="0" y="97.56" style="fill: #db5f57; fill-opacity: 0.65; stroke: #db5f57; stroke-opacity: 0.65"/>
    </g>
   </g>
   <g id="PolyCollection_8">
    <defs>
     <path id="m6216e7deec" d="M 72.094056 -12.608695 
L 72.094056 -11.233108 
L 76.092107 -11.233108 
L 80.090158 -11.233108 
L 84.088209 -11.233108 
L 88.08626 -11.233108 
L 92.084312 -11.233108 
L 96.082363 -11.233108 
L 100.080414 -11.233108 
L 104.078465 -11.233108 
L 108.076516 -11.233108 
L 112.074567 -11.233108 
L 116.072618 -11.233108 
L 120.070669 -11.252358 
L 124.068721 -11.290859 
L 128.066772 -11.348609 
L 132.064823 -11.42561 
L 136.062874 -11.521861 
L 140.060925 -11.637362 
L 144.058976 -11.772114 
L 148.057027 -11.926115 
L 152.055079 -12.099367 
L 156.05313 -12.291869 
L 160.051181 -12.503622 
L 164.049232 -12.734624 
L 168.047283 -12.984877 
L 172.045334 -13.254379 
L 176.043385 -13.543132 
L 180.041436 -13.851136 
L 184.039488 -14.178389 
L 188.037539 -14.524893 
L 192.03559 -14.890647 
L 196.033641 -15.275651 
L 200.031692 -15.641405 
L 204.029743 -15.987908 
L 208.027794 -16.315162 
L 212.025845 -16.623165 
L 216.023897 -16.911918 
L 220.021948 -17.181421 
L 224.019999 -17.431674 
L 228.01805 -17.662676 
L 232.016101 -17.874428 
L 236.014152 -18.06693 
L 240.012203 -18.240182 
L 244.010254 -18.394184 
L 248.008306 -18.528935 
L 252.006357 -18.644436 
L 256.004408 -18.740687 
L 260.002459 -18.817688 
L 264.00051 -18.875439 
L 267.998561 -18.913939 
L 271.996612 -18.933189 
L 275.994664 -18.933189 
L 279.992715 -18.933189 
L 283.990766 -18.933189 
L 287.988817 -18.933189 
L 291.986868 -18.933189 
L 295.984919 -18.933189 
L 299.98297 -18.933189 
L 303.981021 -18.933189 
L 307.979073 -18.933189 
L 311.977124 -18.933189 
L 315.975175 -18.933189 
L 315.975175 -20.308776 
L 315.975175 -20.308776 
L 311.977124 -20.308776 
L 307.979073 -20.308776 
L 303.981021 -20.308776 
L 299.98297 -20.308776 
L 295.984919 -20.308776 
L 291.986868 -20.308776 
L 287.988817 -20.308776 
L 283.990766 -20.308776 
L 279.992715 -20.308776 
L 275.994664 -20.308776 
L 271.996612 -20.308776 
L 267.998561 -20.289526 
L 264.00051 -20.251025 
L 260.002459 -20.193275 
L 256.004408 -20.116274 
L 252.006357 -20.020023 
L 248.008306 -19.904522 
L 244.010254 -19.76977 
L 240.012203 -19.615769 
L 236.014152 -19.442517 
L 232.016101 -19.250015 
L 228.01805 -19.038263 
L 224.019999 -18.80726 
L 220.021948 -18.557007 
L 216.023897 -18.287505 
L 212.025845 -17.998752 
L 208.027794 -17.690748 
L 204.029743 -17.363495 
L 200.031692 -17.016991 
L 196.033641 -16.651237 
L 192.03559 -16.266233 
L 188.037539 -15.900479 
L 184.039488 -15.553976 
L 180.041436 -15.226722 
L 176.043385 -14.918719 
L 172.045334 -14.629966 
L 168.047283 -14.360463 
L 164.049232 -14.11021 
L 160.051181 -13.879208 
L 156.05313 -13.667456 
L 152.055079 -13.474954 
L 148.057027 -13.301702 
L 144.058976 -13.1477 
L 140.060925 -13.012949 
L 136.062874 -12.897448 
L 132.064823 -12.801197 
L 128.066772 -12.724196 
L 124.068721 -12.666445 
L 120.070669 -12.627945 
L 116.072618 -12.608695 
L 112.074567 -12.608695 
L 108.076516 -12.608695 
L 104.078465 -12.608695 
L 100.080414 -12.608695 
L 96.082363 -12.608695 
L 92.084312 -12.608695 
L 88.08626 -12.608695 
L 84.088209 -12.608695 
L 80.090158 -12.608695 
L 76.092107 -12.608695 
L 72.094056 -12.608695 
z
" style="stroke: #db5f57; stroke-opacity: 0.65"/>
    </defs>
    <g clip-path="url(#p01f387acb9)">
     <use xlink:href="#m6216e7deec" x="0" y="97.56" style="fill: #db5f57; fill-opacity: 0.65; stroke: #db5f57; stroke-opacity: 0.65"/>
    </g>
   </g>
   <g id="PolyCollection_9">
    <defs>
     <path id="medfbff1af4" d="M 72.094056 -31.14 
L 72.094056 -12.608695 
L 76.092107 -12.608695 
L 80.090158 -12.608695 
L 84.088209 -12.608695 
L 88.08626 -12.608695 
L 92.084312 -12.608695 
L 96.082363 -12.608695 
L 100.080414 -12.608695 
L 104.078465 -12.608695 
L 108.076516 -12.608695 
L 112.074567 -12.608695 
L 116.072618 -12.608695 
L 120.070669 -12.698876 
L 124.068721 -12.879238 
L 128.066772 -13.149781 
L 132.064823 -13.510505 
L 136.062874 -13.96141 
L 140.060925 -14.502497 
L 144.058976 -15.133764 
L 148.057027 -15.855212 
L 152.055079 -16.666842 
L 156.05313 -17.568652 
L 160.051181 -18.560643 
L 164.049232 -19.642816 
L 168.047283 -20.81517 
L 172.045334 -22.077704 
L 176.043385 -23.43042 
L 180.041436 -24.873316 
L 184.039488 -26.406394 
L 188.037539 -28.029653 
L 192.03559 -29.743093 
L 196.033641 -31.546714 
L 200.031692 -33.260153 
L 204.029743 -34.883412 
L 208.027794 -36.41649 
L 212.025845 -37.859387 
L 216.023897 -39.212102 
L 220.021948 -40.474637 
L 224.019999 -41.64699 
L 228.01805 -42.729163 
L 232.016101 -43.721154 
L 236.014152 -44.622965 
L 240.012203 -45.434594 
L 244.010254 -46.156043 
L 248.008306 -46.78731 
L 252.006357 -47.328396 
L 256.004408 -47.779301 
L 260.002459 -48.140026 
L 264.00051 -48.410569 
L 267.998561 -48.590931 
L 271.996612 -48.681112 
L 275.994664 -48.681112 
L 279.992715 -48.681112 
L 283.990766 -48.681112 
L 287.988817 -48.681112 
L 291.986868 -48.681112 
L 295.984919 -48.681112 
L 299.98297 -48.681112 
L 303.981021 -48.681112 
L 307.979073 -48.681112 
L 311.977124 -48.681112 
L 315.975175 -48.681112 
L 315.975175 -67.212418 
L 315.975175 -67.212418 
L 311.977124 -67.212418 
L 307.979073 -67.212418 
L 303.981021 -67.212418 
L 299.98297 -67.212418 
L 295.984919 -67.212418 
L 291.986868 -67.212418 
L 287.988817 -67.212418 
L 283.990766 -67.212418 
L 279.992715 -67.212418 
L 275.994664 -67.212418 
L 271.996612 -67.212418 
L 267.998561 -67.122237 
L 264.00051 -66.941874 
L 260.002459 -66.671331 
L 256.004408 -66.310607 
L 252.006357 -65.859702 
L 248.008306 -65.318616 
L 244.010254 -64.687348 
L 240.012203 -63.9659 
L 236.014152 -63.154271 
L 232.016101 -62.25246 
L 228.01805 -61.260469 
L 224.019999 -60.178296 
L 220.021948 -59.005943 
L 216.023897 -57.743408 
L 212.025845 -56.390692 
L 208.027794 -54.947796 
L 204.029743 -53.414718 
L 200.031692 -51.791459 
L 196.033641 -50.078019 
L 192.03559 -48.274399 
L 188.037539 -46.560959 
L 184.039488 -44.9377 
L 180.041436 -43.404622 
L 176.043385 -41.961725 
L 172.045334 -40.60901 
L 168.047283 -39.346475 
L 164.049232 -38.174122 
L 160.051181 -37.091949 
L 156.05313 -36.099958 
L 152.055079 -35.198147 
L 148.057027 -34.386518 
L 144.058976 -33.66507 
L 140.060925 -33.033802 
L 136.062874 -32.492716 
L 132.064823 -32.041811 
L 128.066772 -31.681087 
L 124.068721 -31.410543 
L 120.070669 -31.230181 
L 116.072618 -31.14 
L 112.074567 -31.14 
L 108.076516 -31.14 
L 104.078465 -31.14 
L 100.080414 -31.14 
L 96.082363 -31.14 
L 92.084312 -31.14 
L 88.08626 -31.14 
L 84.088209 -31.14 
L 80.090158 -31.14 
L 76.092107 -31.14 
L 72.094056 -31.14 
z
" style="stroke: #db5f57; stroke-opacity: 0.65"/>
    </defs>
    <g clip-path="url(#p01f387acb9)">
     <use xlink:href="#medfbff1af4" x="0" y="97.56" style="fill: #db5f57; fill-opacity: 0.65; stroke: #db5f57; stroke-opacity: 0.65"/>
    </g>
   </g>
   <g id="PolyCollection_10">
    <defs>
     <path id="mb2f5fae917" d="M 72.094056 -38.840082 
L 72.094056 -38.7 
L 76.092107 -38.7 
L 80.090158 -38.7 
L 84.088209 -38.7 
L 88.08626 -38.7 
L 92.084312 -38.7 
L 96.082363 -38.7 
L 100.080414 -38.7 
L 104.078465 -38.7 
L 108.076516 -38.7 
L 112.074567 -38.7 
L 116.072618 -38.7 
L 120.070669 -38.631333 
L 124.068721 -38.493999 
L 128.066772 -38.287997 
L 132.064823 -38.013328 
L 136.062874 -37.669992 
L 140.060925 -37.257988 
L 144.058976 -36.777318 
L 148.057027 -36.22798 
L 152.055079 -35.609975 
L 156.05313 -34.923303 
L 160.051181 -34.167963 
L 164.049232 -33.343956 
L 168.047283 -32.451282 
L 172.045334 -31.489941 
L 176.043385 -30.459933 
L 180.041436 -29.361257 
L 184.039488 -28.193914 
L 188.037539 -26.957904 
L 192.03559 -25.653227 
L 196.033641 -24.279882 
L 200.031692 -22.975205 
L 204.029743 -21.739194 
L 208.027794 -20.571851 
L 212.025845 -19.473176 
L 216.023897 -18.443167 
L 220.021948 -17.481826 
L 224.019999 -16.589152 
L 228.01805 -15.765145 
L 232.016101 -15.009806 
L 236.014152 -14.323133 
L 240.012203 -13.705128 
L 244.010254 -13.155791 
L 248.008306 -12.67512 
L 252.006357 -12.263117 
L 256.004408 -11.91978 
L 260.002459 -11.645111 
L 264.00051 -11.43911 
L 267.998561 -11.301775 
L 271.996612 -11.233108 
L 275.994664 -11.233108 
L 279.992715 -11.233108 
L 283.990766 -11.233108 
L 287.988817 -11.233108 
L 291.986868 -11.233108 
L 295.984919 -11.233108 
L 299.98297 -11.233108 
L 303.981021 -11.233108 
L 307.979073 -11.233108 
L 311.977124 -11.233108 
L 315.975175 -11.233108 
L 315.975175 -11.373189 
L 315.975175 -11.373189 
L 311.977124 -11.373189 
L 307.979073 -11.373189 
L 303.981021 -11.373189 
L 299.98297 -11.373189 
L 295.984919 -11.373189 
L 291.986868 -11.373189 
L 287.988817 -11.373189 
L 283.990766 -11.373189 
L 279.992715 -11.373189 
L 275.994664 -11.373189 
L 271.996612 -11.373189 
L 267.998561 -11.441857 
L 264.00051 -11.579191 
L 260.002459 -11.785193 
L 256.004408 -12.059862 
L 252.006357 -12.403198 
L 248.008306 -12.815201 
L 244.010254 -13.295872 
L 240.012203 -13.84521 
L 236.014152 -14.463215 
L 232.016101 -15.149887 
L 228.01805 -15.905227 
L 224.019999 -16.729233 
L 220.021948 -17.621907 
L 216.023897 -18.583249 
L 212.025845 -19.613257 
L 208.027794 -20.711933 
L 204.029743 -21.879276 
L 200.031692 -23.115286 
L 196.033641 -24.419963 
L 192.03559 -25.793308 
L 188.037539 -27.097985 
L 184.039488 -28.333995 
L 180.041436 -29.501338 
L 176.043385 -30.600014 
L 172.045334 -31.630022 
L 168.047283 -32.591364 
L 164.049232 -33.484038 
L 160.051181 -34.308044 
L 156.05313 -35.063384 
L 152.055079 -35.750056 
L 148.057027 -36.368061 
L 144.058976 -36.917399 
L 140.060925 -37.39807 
L 136.062874 -37.810073 
L 132.064823 -38.153409 
L 128.066772 -38.428078 
L 124.068721 -38.63408 
L 120.070669 -38.771414 
L 116.072618 -38.840082 
L 112.074567 -38.840082 
L 108.076516 -38.840082 
L 104.078465 -38.840082 
L 100.080414 -38.840082 
L 96.082363 -38.840082 
L 92.084312 -38.840082 
L 88.08626 -38.840082 
L 84.088209 -38.840082 
L 80.090158 -38.840082 
L 76.092107 -38.840082 
L 72.094056 -38.840082 
z
" style="stroke: #d3db57; stroke-opacity: 0.65"/>
    </defs>
    <g clip-path="url(#p01f387acb9)">
     <use xlink:href="#mb2f5fae917" x="0" y="97.56" style="fill: #d3db57; fill-opacity: 0.65; stroke: #d3db57; stroke-opacity: 0.65"/>
    </g>
   </g>
   <g id="PolyCollection_11">
    <defs>
     <path id="mef572777b4" d="M 72.094056 -41.014918 
L 72.094056 -38.840082 
L 76.092107 -38.840082 
L 80.090158 -38.840082 
L 84.088209 -38.840082 
L 88.08626 -38.840082 
L 92.084312 -38.840082 
L 96.082363 -38.840082 
L 100.080414 -38.840082 
L 104.078465 -38.840082 
L 108.076516 -38.840082 
L 112.074567 -38.840082 
L 116.072618 -38.840082 
L 120.070669 -38.793753 
L 124.068721 -38.701097 
L 128.066772 -38.562112 
L 132.064823 -38.376799 
L 136.062874 -38.145158 
L 140.060925 -37.867188 
L 144.058976 -37.54289 
L 148.057027 -37.172264 
L 152.055079 -36.75531 
L 156.05313 -36.292027 
L 160.051181 -35.782416 
L 164.049232 -35.226477 
L 168.047283 -34.62421 
L 172.045334 -33.975614 
L 176.043385 -33.28069 
L 180.041436 -32.539438 
L 184.039488 -31.751857 
L 188.037539 -30.917948 
L 192.03559 -30.037711 
L 196.033641 -29.111146 
L 200.031692 -28.230909 
L 204.029743 -27.397 
L 208.027794 -26.60942 
L 212.025845 -25.868168 
L 216.023897 -25.173244 
L 220.021948 -24.524648 
L 224.019999 -23.922381 
L 228.01805 -23.366441 
L 232.016101 -22.85683 
L 236.014152 -22.393548 
L 240.012203 -21.976593 
L 244.010254 -21.605967 
L 248.008306 -21.281669 
L 252.006357 -21.0037 
L 256.004408 -20.772059 
L 260.002459 -20.586746 
L 264.00051 -20.447761 
L 267.998561 -20.355104 
L 271.996612 -20.308776 
L 275.994664 -20.308776 
L 279.992715 -20.308776 
L 283.990766 -20.308776 
L 287.988817 -20.308776 
L 291.986868 -20.308776 
L 295.984919 -20.308776 
L 299.98297 -20.308776 
L 303.981021 -20.308776 
L 307.979073 -20.308776 
L 311.977124 -20.308776 
L 315.975175 -20.308776 
L 315.975175 -22.483612 
L 315.975175 -22.483612 
L 311.977124 -22.483612 
L 307.979073 -22.483612 
L 303.981021 -22.483612 
L 299.98297 -22.483612 
L 295.984919 -22.483612 
L 291.986868 -22.483612 
L 287.988817 -22.483612 
L 283.990766 -22.483612 
L 279.992715 -22.483612 
L 275.994664 -22.483612 
L 271.996612 -22.483612 
L 267.998561 -22.529941 
L 264.00051 -22.622597 
L 260.002459 -22.761582 
L 256.004408 -22.946895 
L 252.006357 -23.178536 
L 248.008306 -23.456506 
L 244.010254 -23.780804 
L 240.012203 -24.15143 
L 236.014152 -24.568384 
L 232.016101 -25.031667 
L 228.01805 -25.541278 
L 224.019999 -26.097217 
L 220.021948 -26.699484 
L 216.023897 -27.34808 
L 212.025845 -28.043004 
L 208.027794 -28.784256 
L 204.029743 -29.571837 
L 200.031692 -30.405746 
L 196.033641 -31.285983 
L 192.03559 -32.212548 
L 188.037539 -33.092785 
L 184.039488 -33.926694 
L 180.041436 -34.714274 
L 176.043385 -35.455526 
L 172.045334 -36.15045 
L 168.047283 -36.799046 
L 164.049232 -37.401314 
L 160.051181 -37.957253 
L 156.05313 -38.466864 
L 152.055079 -38.930146 
L 148.057027 -39.347101 
L 144.058976 -39.717727 
L 140.060925 -40.042025 
L 136.062874 -40.319994 
L 132.064823 -40.551636 
L 128.066772 -40.736949 
L 124.068721 -40.875933 
L 120.070669 -40.96859 
L 116.072618 -41.014918 
L 112.074567 -41.014918 
L 108.076516 -41.014918 
L 104.078465 -41.014918 
L 100.080414 -41.014918 
L 96.082363 -41.014918 
L 92.084312 -41.014918 
L 88.08626 -41.014918 
L 84.088209 -41.014918 
L 80.090158 -41.014918 
L 76.092107 -41.014918 
L 72.094056 -41.014918 
z
" style="stroke: #d3db57; stroke-opacity: 0.65"/>
    </defs>
    <g clip-path="url(#p01f387acb9)">
     <use xlink:href="#mef572777b4" x="0" y="97.56" style="fill: #d3db57; fill-opacity: 0.65; stroke: #d3db57; stroke-opacity: 0.65"/>
    </g>
   </g>
   <g id="PolyCollection_12">
    <defs>
     <path id="m3f7e7e0eb0" d="M 72.094056 -58.860001 
L 72.094056 -41.014918 
L 76.092107 -41.014918 
L 80.090158 -41.014918 
L 84.088209 -41.014918 
L 88.08626 -41.014918 
L 92.084312 -41.014918 
L 96.082363 -41.014918 
L 100.080414 -41.014918 
L 104.078465 -41.014918 
L 108.076516 -41.014918 
L 112.074567 -41.014918 
L 116.072618 -41.014918 
L 120.070669 -41.080412 
L 124.068721 -41.211399 
L 128.066772 -41.407881 
L 132.064823 -41.669856 
L 136.062874 -41.997324 
L 140.060925 -42.390287 
L 144.058976 -42.848743 
L 148.057027 -43.372693 
L 152.055079 -43.962137 
L 156.05313 -44.617074 
L 160.051181 -45.337506 
L 164.049232 -46.123431 
L 168.047283 -46.974849 
L 172.045334 -47.891762 
L 176.043385 -48.874168 
L 180.041436 -49.922068 
L 184.039488 -51.035462 
L 188.037539 -52.214349 
L 192.03559 -53.45873 
L 196.033641 -54.768605 
L 200.031692 -56.012987 
L 204.029743 -57.191874 
L 208.027794 -58.305268 
L 212.025845 -59.353168 
L 216.023897 -60.335574 
L 220.021948 -61.252486 
L 224.019999 -62.103905 
L 228.01805 -62.88983 
L 232.016101 -63.610261 
L 236.014152 -64.265199 
L 240.012203 -64.854643 
L 244.010254 -65.378593 
L 248.008306 -65.837049 
L 252.006357 -66.230011 
L 256.004408 -66.55748 
L 260.002459 -66.819455 
L 264.00051 -67.015936 
L 267.998561 -67.146924 
L 271.996612 -67.212418 
L 275.994664 -67.212418 
L 279.992715 -67.212418 
L 283.990766 -67.212418 
L 287.988817 -67.212418 
L 291.986868 -67.212418 
L 295.984919 -67.212418 
L 299.98297 -67.212418 
L 303.981021 -67.212418 
L 307.979073 -67.212418 
L 311.977124 -67.212418 
L 315.975175 -67.212418 
L 315.975175 -85.0575 
L 315.975175 -85.0575 
L 311.977124 -85.0575 
L 307.979073 -85.0575 
L 303.981021 -85.0575 
L 299.98297 -85.0575 
L 295.984919 -85.0575 
L 291.986868 -85.0575 
L 287.988817 -85.0575 
L 283.990766 -85.0575 
L 279.992715 -85.0575 
L 275.994664 -85.0575 
L 271.996612 -85.0575 
L 267.998561 -84.992006 
L 264.00051 -84.861019 
L 260.002459 -84.664538 
L 256.004408 -84.402563 
L 252.006357 -84.075094 
L 248.008306 -83.682131 
L 244.010254 -83.223675 
L 240.012203 -82.699725 
L 236.014152 -82.110281 
L 232.016101 -81.455344 
L 228.01805 -80.734913 
L 224.019999 -79.948988 
L 220.021948 -79.097569 
L 216.023897 -78.180656 
L 212.025845 -77.19825 
L 208.027794 -76.15035 
L 204.029743 -75.036957 
L 200.031692 -73.858069 
L 196.033641 -72.613688 
L 192.03559 -71.303813 
L 188.037539 -70.059432 
L 184.039488 -68.880544 
L 180.041436 -67.76715 
L 176.043385 -66.71925 
L 172.045334 -65.736844 
L 168.047283 -64.819932 
L 164.049232 -63.968513 
L 160.051181 -63.182588 
L 156.05313 -62.462157 
L 152.055079 -61.807219 
L 148.057027 -61.217776 
L 144.058976 -60.693826 
L 140.060925 -60.235369 
L 136.062874 -59.842407 
L 132.064823 -59.514938 
L 128.066772 -59.252963 
L 124.068721 -59.056482 
L 120.070669 -58.925494 
L 116.072618 -58.860001 
L 112.074567 -58.860001 
L 108.076516 -58.860001 
L 104.078465 -58.860001 
L 100.080414 -58.860001 
L 96.082363 -58.860001 
L 92.084312 -58.860001 
L 88.08626 -58.860001 
L 84.088209 -58.860001 
L 80.090158 -58.860001 
L 76.092107 -58.860001 
L 72.094056 -58.860001 
z
" style="stroke: #d3db57; stroke-opacity: 0.65"/>
    </defs>
    <g clip-path="url(#p01f387acb9)">
     <use xlink:href="#m3f7e7e0eb0" x="0" y="97.56" style="fill: #d3db57; fill-opacity: 0.65; stroke: #d3db57; stroke-opacity: 0.65"/>
    </g>
   </g>
   <g id="PolyCollection_13">
    <defs>
     <path id="mbf299711f6" d="M 72.094056 -85.0575 
L 72.094056 -66.420001 
L 76.092107 -66.420001 
L 80.090158 -66.420001 
L 84.088209 -66.420001 
L 88.08626 -66.420001 
L 92.084312 -66.420001 
L 96.082363 -66.420001 
L 100.080414 -66.420001 
L 104.078465 -66.420001 
L 108.076516 -66.420001 
L 112.074567 -66.420001 
L 116.072618 -66.420001 
L 120.070669 -66.31016 
L 124.068721 -66.090478 
L 128.066772 -65.760955 
L 132.064823 -65.321591 
L 136.062874 -64.772386 
L 140.060925 -64.11334 
L 144.058976 -63.344453 
L 148.057027 -62.465726 
L 152.055079 -61.477157 
L 156.05313 -60.378747 
L 160.051181 -59.170497 
L 164.049232 -57.852405 
L 168.047283 -56.424472 
L 172.045334 -54.886699 
L 176.043385 -53.239084 
L 180.041436 -51.481629 
L 184.039488 -49.614332 
L 188.037539 -47.637195 
L 192.03559 -45.550216 
L 196.033641 -43.353397 
L 200.031692 -41.266418 
L 204.029743 -39.289281 
L 208.027794 -37.421984 
L 212.025845 -35.664529 
L 216.023897 -34.016914 
L 220.021948 -32.479141 
L 224.019999 -31.051208 
L 228.01805 -29.733116 
L 232.016101 -28.524866 
L 236.014152 -27.426456 
L 240.012203 -26.437887 
L 244.010254 -25.55916 
L 248.008306 -24.790273 
L 252.006357 -24.131227 
L 256.004408 -23.582022 
L 260.002459 -23.142658 
L 264.00051 -22.813135 
L 267.998561 -22.593453 
L 271.996612 -22.483612 
L 275.994664 -22.483612 
L 279.992715 -22.483612 
L 283.990766 -22.483612 
L 287.988817 -22.483612 
L 291.986868 -22.483612 
L 295.984919 -22.483612 
L 299.98297 -22.483612 
L 303.981021 -22.483612 
L 307.979073 -22.483612 
L 311.977124 -22.483612 
L 315.975175 -22.483612 
L 315.975175 -41.121112 
L 315.975175 -41.121112 
L 311.977124 -41.121112 
L 307.979073 -41.121112 
L 303.981021 -41.121112 
L 299.98297 -41.121112 
L 295.984919 -41.121112 
L 291.986868 -41.121112 
L 287.988817 -41.121112 
L 283.990766 -41.121112 
L 279.992715 -41.121112 
L 275.994664 -41.121112 
L 271.996612 -41.121112 
L 267.998561 -41.230953 
L 264.00051 -41.450635 
L 260.002459 -41.780158 
L 256.004408 -42.219522 
L 252.006357 -42.768726 
L 248.008306 -43.427772 
L 244.010254 -44.196659 
L 240.012203 -45.075387 
L 236.014152 -46.063956 
L 232.016101 -47.162365 
L 228.01805 -48.370616 
L 224.019999 -49.688708 
L 220.021948 -51.11664 
L 216.023897 -52.654414 
L 212.025845 -54.302028 
L 208.027794 -56.059484 
L 204.029743 -57.92678 
L 200.031692 -59.903918 
L 196.033641 -61.990896 
L 192.03559 -64.187716 
L 188.037539 -66.274694 
L 184.039488 -68.251832 
L 180.041436 -70.119128 
L 176.043385 -71.876584 
L 172.045334 -73.524198 
L 168.047283 -75.061972 
L 164.049232 -76.489904 
L 160.051181 -77.807996 
L 156.05313 -79.016247 
L 152.055079 -80.114656 
L 148.057027 -81.103225 
L 144.058976 -81.981953 
L 140.060925 -82.75084 
L 136.062874 -83.409885 
L 132.064823 -83.95909 
L 128.066772 -84.398454 
L 124.068721 -84.727977 
L 120.070669 -84.947659 
L 116.072618 -85.0575 
L 112.074567 -85.0575 
L 108.076516 -85.0575 
L 104.078465 -85.0575 
L 100.080414 -85.0575 
L 96.082363 -85.0575 
L 92.084312 -85.0575 
L 88.08626 -85.0575 
L 84.088209 -85.0575 
L 80.090158 -85.0575 
L 76.092107 -85.0575 
L 72.094056 -85.0575 
z
" style="stroke: #57db5f; stroke-opacity: 0.65"/>
    </defs>
    <g clip-path="url(#p01f387acb9)">
     <use xlink:href="#mbf299711f6" x="0" y="97.56" style="fill: #57db5f; fill-opacity: 0.65; stroke: #57db5f; stroke-opacity: 0.65"/>
    </g>
   </g>
   <g id="PolyCollection_14">
    <defs>
     <path id="m664aa5a6fe" d="M 72.094056 -86.58 
L 72.094056 -85.0575 
L 76.092107 -85.0575 
L 80.090158 -85.0575 
L 84.088209 -85.0575 
L 88.08626 -85.0575 
L 92.084312 -85.0575 
L 96.082363 -85.0575 
L 100.080414 -85.0575 
L 104.078465 -85.0575 
L 108.076516 -85.0575 
L 112.074567 -85.0575 
L 116.072618 -85.0575 
L 120.070669 -85.0575 
L 124.068721 -85.0575 
L 128.066772 -85.0575 
L 132.064823 -85.0575 
L 136.062874 -85.0575 
L 140.060925 -85.0575 
L 144.058976 -85.0575 
L 148.057027 -85.0575 
L 152.055079 -85.0575 
L 156.05313 -85.0575 
L 160.051181 -85.0575 
L 164.049232 -85.0575 
L 168.047283 -85.0575 
L 172.045334 -85.0575 
L 176.043385 -85.0575 
L 180.041436 -85.0575 
L 184.039488 -85.0575 
L 188.037539 -85.0575 
L 192.03559 -85.0575 
L 196.033641 -85.0575 
L 200.031692 -85.0575 
L 204.029743 -85.0575 
L 208.027794 -85.0575 
L 212.025845 -85.0575 
L 216.023897 -85.0575 
L 220.021948 -85.0575 
L 224.019999 -85.0575 
L 228.01805 -85.0575 
L 232.016101 -85.0575 
L 236.014152 -85.0575 
L 240.012203 -85.0575 
L 244.010254 -85.0575 
L 248.008306 -85.0575 
L 252.006357 -85.0575 
L 256.004408 -85.0575 
L 260.002459 -85.0575 
L 264.00051 -85.0575 
L 267.998561 -85.0575 
L 271.996612 -85.0575 
L 275.994664 -85.0575 
L 279.992715 -85.0575 
L 283.990766 -85.0575 
L 287.988817 -85.0575 
L 291.986868 -85.0575 
L 295.984919 -85.0575 
L 299.98297 -85.0575 
L 303.981021 -85.0575 
L 307.979073 -85.0575 
L 311.977124 -85.0575 
L 315.975175 -85.0575 
L 315.975175 -86.58 
L 315.975175 -86.58 
L 311.977124 -86.58 
L 307.979073 -86.58 
L 303.981021 -86.58 
L 299.98297 -86.58 
L 295.984919 -86.58 
L 291.986868 -86.58 
L 287.988817 -86.58 
L 283.990766 -86.58 
L 279.992715 -86.58 
L 275.994664 -86.58 
L 271.996612 -86.58 
L 267.998561 -86.58 
L 264.00051 -86.58 
L 260.002459 -86.58 
L 256.004408 -86.58 
L 252.006357 -86.58 
L 248.008306 -86.58 
L 244.010254 -86.58 
L 240.012203 -86.58 
L 236.014152 -86.58 
L 232.016101 -86.58 
L 228.01805 -86.58 
L 224.019999 -86.58 
L 220.021948 -86.58 
L 216.023897 -86.58 
L 212.025845 -86.58 
L 208.027794 -86.58 
L 204.029743 -86.58 
L 200.031692 -86.58 
L 196.033641 -86.58 
L 192.03559 -86.58 
L 188.037539 -86.58 
L 184.039488 -86.58 
L 180.041436 -86.58 
L 176.043385 -86.58 
L 172.045334 -86.58 
L 168.047283 -86.58 
L 164.049232 -86.58 
L 160.051181 -86.58 
L 156.05313 -86.58 
L 152.055079 -86.58 
L 148.057027 -86.58 
L 144.058976 -86.58 
L 140.060925 -86.58 
L 136.062874 -86.58 
L 132.064823 -86.58 
L 128.066772 -86.58 
L 124.068721 -86.58 
L 120.070669 -86.58 
L 116.072618 -86.58 
L 112.074567 -86.58 
L 108.076516 -86.58 
L 104.078465 -86.58 
L 100.080414 -86.58 
L 96.082363 -86.58 
L 92.084312 -86.58 
L 88.08626 -86.58 
L 84.088209 -86.58 
L 80.090158 -86.58 
L 76.092107 -86.58 
L 72.094056 -86.58 
z
" style="stroke: #57db5f; stroke-opacity: 0.65"/>
    </defs>
    <g clip-path="url(#p01f387acb9)">
     <use xlink:href="#m664aa5a6fe" x="0" y="97.56" style="fill: #57db5f; fill-opacity: 0.65; stroke: #57db5f; stroke-opacity: 0.65"/>
    </g>
   </g>
   <g id="text_1">
    <!-- Encrypted -->
    <g transform="translate(19.13625 78.7075) scale(0.08 -0.08)">
     <defs>
      <path id="DejaVuSans-45" d="M 628 4666 
L 3578 4666 
L 3578 4134 
L 1259 4134 
L 1259 2753 
L 3481 2753 
L 3481 2222 
L 1259 2222 
L 1259 531 
L 3634 531 
L 3634 0 
L 628 0 
L 628 4666 
z
" transform="scale(0.015625)"/>
      <path id="DejaVuSans-6e" d="M 3513 2113 
L 3513 0 
L 2938 0 
L 2938 2094 
Q 2938 2591 2744 2837 
Q 2550 3084 2163 3084 
Q 1697 3084 1428 2787 
Q 1159 2491 1159 1978 
L 1159 0 
L 581 0 
L 581 3500 
L 1159 3500 
L 1159 2956 
Q 1366 3272 1645 3428 
Q 1925 3584 2291 3584 
Q 2894 3584 3203 3211 
Q 3513 2838 3513 2113 
z
" transform="scale(0.015625)"/>
      <path id="DejaVuSans-63" d="M 3122 3366 
L 3122 2828 
Q 2878 2963 2633 3030 
Q 2388 3097 2138 3097 
Q 1578 3097 1268 2742 
Q 959 2388 959 1747 
Q 959 1106 1268 751 
Q 1578 397 2138 397 
Q 2388 397 2633 464 
Q 2878 531 3122 666 
L 3122 134 
Q 2881 22 2623 -34 
Q 2366 -91 2075 -91 
Q 1284 -91 818 406 
Q 353 903 353 1747 
Q 353 2603 823 3093 
Q 1294 3584 2113 3584 
Q 2378 3584 2631 3529 
Q 2884 3475 3122 3366 
z
" transform="scale(0.015625)"/>
      <path id="DejaVuSans-72" d="M 2631 2963 
Q 2534 3019 2420 3045 
Q 2306 3072 2169 3072 
Q 1681 3072 1420 2755 
Q 1159 2438 1159 1844 
L 1159 0 
L 581 0 
L 581 3500 
L 1159 3500 
L 1159 2956 
Q 1341 3275 1631 3429 
Q 1922 3584 2338 3584 
Q 2397 3584 2469 3576 
Q 2541 3569 2628 3553 
L 2631 2963 
z
" transform="scale(0.015625)"/>
      <path id="DejaVuSans-79" d="M 2059 -325 
Q 1816 -950 1584 -1140 
Q 1353 -1331 966 -1331 
L 506 -1331 
L 506 -850 
L 844 -850 
Q 1081 -850 1212 -737 
Q 1344 -625 1503 -206 
L 1606 56 
L 191 3500 
L 800 3500 
L 1894 763 
L 2988 3500 
L 3597 3500 
L 2059 -325 
z
" transform="scale(0.015625)"/>
      <path id="DejaVuSans-70" d="M 1159 525 
L 1159 -1331 
L 581 -1331 
L 581 3500 
L 1159 3500 
L 1159 2969 
Q 1341 3281 1617 3432 
Q 1894 3584 2278 3584 
Q 2916 3584 3314 3078 
Q 3713 2572 3713 1747 
Q 3713 922 3314 415 
Q 2916 -91 2278 -91 
Q 1894 -91 1617 61 
Q 1341 213 1159 525 
z
M 3116 1747 
Q 3116 2381 2855 2742 
Q 2594 3103 2138 3103 
Q 1681 3103 1420 2742 
Q 1159 2381 1159 1747 
Q 1159 1113 1420 752 
Q 1681 391 2138 391 
Q 2594 391 2855 752 
Q 3116 1113 3116 1747 
z
" transform="scale(0.015625)"/>
      <path id="DejaVuSans-74" d="M 1172 4494 
L 1172 3500 
L 2356 3500 
L 2356 3053 
L 1172 3053 
L 1172 1153 
Q 1172 725 1289 603 
Q 1406 481 1766 481 
L 2356 481 
L 2356 0 
L 1766 0 
Q 1100 0 847 248 
Q 594 497 594 1153 
L 594 3053 
L 172 3053 
L 172 3500 
L 594 3500 
L 594 4494 
L 1172 4494 
z
" transform="scale(0.015625)"/>
      <path id="DejaVuSans-65" d="M 3597 1894 
L 3597 1613 
L 953 1613 
Q 991 1019 1311 708 
Q 1631 397 2203 397 
Q 2534 397 2845 478 
Q 3156 559 3463 722 
L 3463 178 
Q 3153 47 2828 -22 
Q 2503 -91 2169 -91 
Q 1331 -91 842 396 
Q 353 884 353 1716 
Q 353 2575 817 3079 
Q 1281 3584 2069 3584 
Q 2775 3584 3186 3129 
Q 3597 2675 3597 1894 
z
M 3022 2063 
Q 3016 2534 2758 2815 
Q 2500 3097 2075 3097 
Q 1594 3097 1305 2825 
Q 1016 2553 972 2059 
L 3022 2063 
z
" transform="scale(0.015625)"/>
      <path id="DejaVuSans-64" d="M 2906 2969 
L 2906 4863 
L 3481 4863 
L 3481 0 
L 2906 0 
L 2906 525 
Q 2725 213 2448 61 
Q 2172 -91 1784 -91 
Q 1150 -91 751 415 
Q 353 922 353 1747 
Q 353 2572 751 3078 
Q 1150 3584 1784 3584 
Q 2172 3584 2448 3432 
Q 2725 3281 2906 2969 
z
M 947 1747 
Q 947 1113 1208 752 
Q 1469 391 1925 391 
Q 2381 391 2643 752 
Q 2906 1113 2906 1747 
Q 2906 2381 2643 2742 
Q 2381 3103 1925 3103 
Q 1469 3103 1208 2742 
Q 947 2381 947 1747 
z
" transform="scale(0.015625)"/>
     </defs>
     <use xlink:href="#DejaVuSans-45"/>
     <use xlink:href="#DejaVuSans-6e" x="63.183594"/>
     <use xlink:href="#DejaVuSans-63" x="126.5625"/>
     <use xlink:href="#DejaVuSans-72" x="181.542969"/>
     <use xlink:href="#DejaVuSans-79" x="222.65625"/>
     <use xlink:href="#DejaVuSans-70" x="281.835938"/>
     <use xlink:href="#DejaVuSans-74" x="345.3125"/>
     <use xlink:href="#DejaVuSans-65" x="384.521484"/>
     <use xlink:href="#DejaVuSans-64" x="446.044922"/>
    </g>
   </g>
   <g id="text_2">
    <!-- Unencrypted -->
    <g transform="translate(8.34375 50.9875) scale(0.08 -0.08)">
     <defs>
      <path id="DejaVuSans-55" d="M 556 4666 
L 1191 4666 
L 1191 1831 
Q 1191 1081 1462 751 
Q 1734 422 2344 422 
Q 2950 422 3222 751 
Q 3494 1081 3494 1831 
L 3494 4666 
L 4128 4666 
L 4128 1753 
Q 4128 841 3676 375 
Q 3225 -91 2344 -91 
Q 1459 -91 1007 375 
Q 556 841 556 1753 
L 556 4666 
z
" transform="scale(0.015625)"/>
     </defs>
     <use xlink:href="#DejaVuSans-55"/>
     <use xlink:href="#DejaVuSans-6e" x="73.193359"/>
     <use xlink:href="#DejaVuSans-65" x="136.572266"/>
     <use xlink:href="#DejaVuSans-6e" x="198.095703"/>
     <use xlink:href="#DejaVuSans-63" x="261.474609"/>
     <use xlink:href="#DejaVuSans-72" x="316.455078"/>
     <use xlink:href="#DejaVuSans-79" x="357.568359"/>
     <use xlink:href="#DejaVuSans-70" x="416.748047"/>
     <use xlink:href="#DejaVuSans-74" x="480.224609"/>
     <use xlink:href="#DejaVuSans-65" x="519.433594"/>
     <use xlink:href="#DejaVuSans-64" x="580.957031"/>
    </g>
   </g>
   <g id="text_3">
    <!-- Management -->
    <g transform="translate(7.2 23.2675) scale(0.08 -0.08)">
     <defs>
      <path id="DejaVuSans-4d" d="M 628 4666 
L 1569 4666 
L 2759 1491 
L 3956 4666 
L 4897 4666 
L 4897 0 
L 4281 0 
L 4281 4097 
L 3078 897 
L 2444 897 
L 1241 4097 
L 1241 0 
L 628 0 
L 628 4666 
z
" transform="scale(0.015625)"/>
      <path id="DejaVuSans-61" d="M 2194 1759 
Q 1497 1759 1228 1600 
Q 959 1441 959 1056 
Q 959 750 1161 570 
Q 1363 391 1709 391 
Q 2188 391 2477 730 
Q 2766 1069 2766 1631 
L 2766 1759 
L 2194 1759 
z
M 3341 1997 
L 3341 0 
L 2766 0 
L 2766 531 
Q 2569 213 2275 61 
Q 1981 -91 1556 -91 
Q 1019 -91 701 211 
Q 384 513 384 1019 
Q 384 1609 779 1909 
Q 1175 2209 1959 2209 
L 2766 2209 
L 2766 2266 
Q 2766 2663 2505 2880 
Q 2244 3097 1772 3097 
Q 1472 3097 1187 3025 
Q 903 2953 641 2809 
L 641 3341 
Q 956 3463 1253 3523 
Q 1550 3584 1831 3584 
Q 2591 3584 2966 3190 
Q 3341 2797 3341 1997 
z
" transform="scale(0.015625)"/>
      <path id="DejaVuSans-67" d="M 2906 1791 
Q 2906 2416 2648 2759 
Q 2391 3103 1925 3103 
Q 1463 3103 1205 2759 
Q 947 2416 947 1791 
Q 947 1169 1205 825 
Q 1463 481 1925 481 
Q 2391 481 2648 825 
Q 2906 1169 2906 1791 
z
M 3481 434 
Q 3481 -459 3084 -895 
Q 2688 -1331 1869 -1331 
Q 1566 -1331 1297 -1286 
Q 1028 -1241 775 -1147 
L 775 -588 
Q 1028 -725 1275 -790 
Q 1522 -856 1778 -856 
Q 2344 -856 2625 -561 
Q 2906 -266 2906 331 
L 2906 616 
Q 2728 306 2450 153 
Q 2172 0 1784 0 
Q 1141 0 747 490 
Q 353 981 353 1791 
Q 353 2603 747 3093 
Q 1141 3584 1784 3584 
Q 2172 3584 2450 3431 
Q 2728 3278 2906 2969 
L 2906 3500 
L 3481 3500 
L 3481 434 
z
" transform="scale(0.015625)"/>
      <path id="DejaVuSans-6d" d="M 3328 2828 
Q 3544 3216 3844 3400 
Q 4144 3584 4550 3584 
Q 5097 3584 5394 3201 
Q 5691 2819 5691 2113 
L 5691 0 
L 5113 0 
L 5113 2094 
Q 5113 2597 4934 2840 
Q 4756 3084 4391 3084 
Q 3944 3084 3684 2787 
Q 3425 2491 3425 1978 
L 3425 0 
L 2847 0 
L 2847 2094 
Q 2847 2600 2669 2842 
Q 2491 3084 2119 3084 
Q 1678 3084 1418 2786 
Q 1159 2488 1159 1978 
L 1159 0 
L 581 0 
L 581 3500 
L 1159 3500 
L 1159 2956 
Q 1356 3278 1631 3431 
Q 1906 3584 2284 3584 
Q 2666 3584 2933 3390 
Q 3200 3197 3328 2828 
z
" transform="scale(0.015625)"/>
     </defs>
     <use xlink:href="#DejaVuSans-4d"/>
     <use xlink:href="#DejaVuSans-61" x="86.279297"/>
     <use xlink:href="#DejaVuSans-6e" x="147.558594"/>
     <use xlink:href="#DejaVuSans-61" x="210.9375"/>
     <use xlink:href="#DejaVuSans-67" x="272.216797"/>
     <use xlink:href="#DejaVuSans-65" x="335.693359"/>
     <use xlink:href="#DejaVuSans-6d" x="397.216797"/>
     <use xlink:href="#DejaVuSans-65" x="494.628906"/>
     <use xlink:href="#DejaVuSans-6e" x="556.152344"/>
     <use xlink:href="#DejaVuSans-74" x="619.53125"/>
    </g>
   </g>
   <g id="text_4">
    <!-- Third Party -->
    <g transform="translate(328.169231 88.590905) scale(0.08 -0.08)">
     <defs>
      <path id="DejaVuSans-54" d="M -19 4666 
L 3928 4666 
L 3928 4134 
L 2272 4134 
L 2272 0 
L 1638 0 
L 1638 4134 
L -19 4134 
L -19 4666 
z
" transform="scale(0.015625)"/>
      <path id="DejaVuSans-68" d="M 3513 2113 
L 3513 0 
L 2938 0 
L 2938 2094 
Q 2938 2591 2744 2837 
Q 2550 3084 2163 3084 
Q 1697 3084 1428 2787 
Q 1159 2491 1159 1978 
L 1159 0 
L 581 0 
L 581 4863 
L 1159 4863 
L 1159 2956 
Q 1366 3272 1645 3428 
Q 1925 3584 2291 3584 
Q 2894 3584 3203 3211 
Q 3513 2838 3513 2113 
z
" transform="scale(0.015625)"/>
      <path id="DejaVuSans-69" d="M 603 3500 
L 1178 3500 
L 1178 0 
L 603 0 
L 603 3500 
z
M 603 4863 
L 1178 4863 
L 1178 4134 
L 603 4134 
L 603 4863 
z
" transform="scale(0.015625)"/>
      <path id="DejaVuSans-20" transform="scale(0.015625)"/>
      <path id="DejaVuSans-50" d="M 1259 4147 
L 1259 2394 
L 2053 2394 
Q 2494 2394 2734 2622 
Q 2975 2850 2975 3272 
Q 2975 3691 2734 3919 
Q 2494 4147 2053 4147 
L 1259 4147 
z
M 628 4666 
L 2053 4666 
Q 2838 4666 3239 4311 
Q 3641 3956 3641 3272 
Q 3641 2581 3239 2228 
Q 2838 1875 2053 1875 
L 1259 1875 
L 1259 0 
L 628 0 
L 628 4666 
z
" transform="scale(0.015625)"/>
     </defs>
     <use xlink:href="#DejaVuSans-54"/>
     <use xlink:href="#DejaVuSans-68" x="61.083984"/>
     <use xlink:href="#DejaVuSans-69" x="124.462891"/>
     <use xlink:href="#DejaVuSans-72" x="152.246094"/>
     <use xlink:href="#DejaVuSans-64" x="191.609375"/>
     <use xlink:href="#DejaVuSans-20" x="255.085938"/>
     <use xlink:href="#DejaVuSans-50" x="286.873047"/>
     <use xlink:href="#DejaVuSans-61" x="342.675781"/>
     <use xlink:href="#DejaVuSans-72" x="403.955078"/>
     <use xlink:href="#DejaVuSans-74" x="445.068359"/>
     <use xlink:href="#DejaVuSans-79" x="484.277344"/>
    </g>
   </g>
   <g id="text_5">
    <!-- Support Party -->
    <g transform="translate(328.169231 69.740349) scale(0.08 -0.08)">
     <defs>
      <path id="DejaVuSans-53" d="M 3425 4513 
L 3425 3897 
Q 3066 4069 2747 4153 
Q 2428 4238 2131 4238 
Q 1616 4238 1336 4038 
Q 1056 3838 1056 3469 
Q 1056 3159 1242 3001 
Q 1428 2844 1947 2747 
L 2328 2669 
Q 3034 2534 3370 2195 
Q 3706 1856 3706 1288 
Q 3706 609 3251 259 
Q 2797 -91 1919 -91 
Q 1588 -91 1214 -16 
Q 841 59 441 206 
L 441 856 
Q 825 641 1194 531 
Q 1563 422 1919 422 
Q 2459 422 2753 634 
Q 3047 847 3047 1241 
Q 3047 1584 2836 1778 
Q 2625 1972 2144 2069 
L 1759 2144 
Q 1053 2284 737 2584 
Q 422 2884 422 3419 
Q 422 4038 858 4394 
Q 1294 4750 2059 4750 
Q 2388 4750 2728 4690 
Q 3069 4631 3425 4513 
z
" transform="scale(0.015625)"/>
      <path id="DejaVuSans-75" d="M 544 1381 
L 544 3500 
L 1119 3500 
L 1119 1403 
Q 1119 906 1312 657 
Q 1506 409 1894 409 
Q 2359 409 2629 706 
Q 2900 1003 2900 1516 
L 2900 3500 
L 3475 3500 
L 3475 0 
L 2900 0 
L 2900 538 
Q 2691 219 2414 64 
Q 2138 -91 1772 -91 
Q 1169 -91 856 284 
Q 544 659 544 1381 
z
M 1991 3584 
L 1991 3584 
z
" transform="scale(0.015625)"/>
      <path id="DejaVuSans-6f" d="M 1959 3097 
Q 1497 3097 1228 2736 
Q 959 2375 959 1747 
Q 959 1119 1226 758 
Q 1494 397 1959 397 
Q 2419 397 2687 759 
Q 2956 1122 2956 1747 
Q 2956 2369 2687 2733 
Q 2419 3097 1959 3097 
z
M 1959 3584 
Q 2709 3584 3137 3096 
Q 3566 2609 3566 1747 
Q 3566 888 3137 398 
Q 2709 -91 1959 -91 
Q 1206 -91 779 398 
Q 353 888 353 1747 
Q 353 2609 779 3096 
Q 1206 3584 1959 3584 
z
" transform="scale(0.015625)"/>
     </defs>
     <use xlink:href="#DejaVuSans-53"/>
     <use xlink:href="#DejaVuSans-75" x="63.476562"/>
     <use xlink:href="#DejaVuSans-70" x="126.855469"/>
     <use xlink:href="#DejaVuSans-70" x="190.332031"/>
     <use xlink:href="#DejaVuSans-6f" x="253.808594"/>
     <use xlink:href="#DejaVuSans-72" x="314.990234"/>
     <use xlink:href="#DejaVuSans-74" x="356.103516"/>
     <use xlink:href="#DejaVuSans-20" x="395.3125"/>
     <use xlink:href="#DejaVuSans-50" x="427.099609"/>
     <use xlink:href="#DejaVuSans-61" x="482.902344"/>
     <use xlink:href="#DejaVuSans-72" x="544.181641"/>
     <use xlink:href="#DejaVuSans-74" x="585.294922"/>
     <use xlink:href="#DejaVuSans-79" x="624.503906"/>
    </g>
   </g>
   <g id="text_6">
    <!-- First Party -->
    <g transform="translate(328.169231 32.136944) scale(0.08 -0.08)">
     <defs>
      <path id="DejaVuSans-46" d="M 628 4666 
L 3309 4666 
L 3309 4134 
L 1259 4134 
L 1259 2759 
L 3109 2759 
L 3109 2228 
L 1259 2228 
L 1259 0 
L 628 0 
L 628 4666 
z
" transform="scale(0.015625)"/>
      <path id="DejaVuSans-73" d="M 2834 3397 
L 2834 2853 
Q 2591 2978 2328 3040 
Q 2066 3103 1784 3103 
Q 1356 3103 1142 2972 
Q 928 2841 928 2578 
Q 928 2378 1081 2264 
Q 1234 2150 1697 2047 
L 1894 2003 
Q 2506 1872 2764 1633 
Q 3022 1394 3022 966 
Q 3022 478 2636 193 
Q 2250 -91 1575 -91 
Q 1294 -91 989 -36 
Q 684 19 347 128 
L 347 722 
Q 666 556 975 473 
Q 1284 391 1588 391 
Q 1994 391 2212 530 
Q 2431 669 2431 922 
Q 2431 1156 2273 1281 
Q 2116 1406 1581 1522 
L 1381 1569 
Q 847 1681 609 1914 
Q 372 2147 372 2553 
Q 372 3047 722 3315 
Q 1072 3584 1716 3584 
Q 2034 3584 2315 3537 
Q 2597 3491 2834 3397 
z
" transform="scale(0.015625)"/>
     </defs>
     <use xlink:href="#DejaVuSans-46"/>
     <use xlink:href="#DejaVuSans-69" x="50.269531"/>
     <use xlink:href="#DejaVuSans-72" x="78.052734"/>
     <use xlink:href="#DejaVuSans-73" x="119.166016"/>
     <use xlink:href="#DejaVuSans-74" x="171.265625"/>
     <use xlink:href="#DejaVuSans-20" x="210.474609"/>
     <use xlink:href="#DejaVuSans-50" x="242.261719"/>
     <use xlink:href="#DejaVuSans-61" x="298.064453"/>
     <use xlink:href="#DejaVuSans-72" x="359.34375"/>
     <use xlink:href="#DejaVuSans-74" x="400.457031"/>
     <use xlink:href="#DejaVuSans-79" x="439.666016"/>
    </g>
   </g>
  </g>
 </g>
 <defs>
  <clipPath id="p01f387acb9">
   <rect x="54.534615" y="7.2" width="279" height="83.16"/>
  </clipPath>
 </defs>
</svg>
