<?xml version="1.0" encoding="utf-8" standalone="no"?>
<!DOCTYPE svg PUBLIC "-//W3C//DTD SVG 1.1//EN"
  "http://www.w3.org/Graphics/SVG/1.1/DTD/svg11.dtd">
<svg xmlns:xlink="http://www.w3.org/1999/xlink" width="390.064231pt" height="97.56pt" viewBox="0 0 390.064231 97.56" xmlns="http://www.w3.org/2000/svg" version="1.1">
 <metadata>
  <rdf:RDF xmlns:dc="http://purl.org/dc/elements/1.1/" xmlns:cc="http://creativecommons.org/ns#" xmlns:rdf="http://www.w3.org/1999/02/22-rdf-syntax-ns#">
   <cc:Work>
    <dc:type rdf:resource="http://purl.org/dc/dcmitype/StillImage"/>
    <dc:date>2024-10-04T02:20:55.437340</dc:date>
    <dc:format>image/svg+xml</dc:format>
    <dc:creator>
     <cc:Agent>
      <dc:title>Matplotlib v3.9.0, https://matplotlib.org/</dc:title>
     </cc:Agent>
    </dc:creator>
   </cc:Work>
  </rdf:RDF>
 </metadata>
 <defs>
  <style type="text/css">*{stroke-linejoin: round; stroke-linecap: butt}</style>
 </defs>
 <g id="figure_1">
  <g id="patch_1">
   <path d="M 0 97.56 
L 390.064231 97.56 
L 390.064231 0 
L 0 0 
z
" style="fill: #ffffff"/>
  </g>
  <g id="axes_1">
   <g id="PolyCollection_1">
    <defs>
     <path id="m0145b7dc49" d="M 67.216434 -31.14 
L 67.216434 -10.98 
L 72.094056 -10.98 
L 72.094056 -31.14 
L 72.094056 -31.14 
L 67.216434 -31.14 
z
" style="stroke: #db5f57; stroke-opacity: 0.99"/>
    </defs>
    <g clip-path="url(#pe43ceeb150)">
     <use xlink:href="#m0145b7dc49" x="0" y="97.56" style="fill: #db5f57; fill-opacity: 0.99; stroke: #db5f57; stroke-opacity: 0.99"/>
    </g>
   </g>
   <g id="PolyCollection_2">
    <defs>
     <path id="mb5012586ce" d="M 67.216434 -58.86 
L 67.216434 -38.7 
L 72.094056 -38.7 
L 72.094056 -58.86 
L 72.094056 -58.86 
L 67.216434 -58.86 
z
" style="stroke: #d3db57; stroke-opacity: 0.99"/>
    </defs>
    <g clip-path="url(#pe43ceeb150)">
     <use xlink:href="#mb5012586ce" x="0" y="97.56" style="fill: #d3db57; fill-opacity: 0.99; stroke: #d3db57; stroke-opacity: 0.99"/>
    </g>
   </g>
   <g id="PolyCollection_3">
    <defs>
     <path id="m9c5ad2f40e" d="M 67.216434 -86.58 
L 67.216434 -66.42 
L 72.094056 -66.42 
L 72.094056 -86.58 
L 72.094056 -86.58 
L 67.216434 -86.58 
z
" style="stroke: #57db5f; stroke-opacity: 0.99"/>
    </defs>
    <g clip-path="url(#pe43ceeb150)">
     <use xlink:href="#m9c5ad2f40e" x="0" y="97.56" style="fill: #57db5f; fill-opacity: 0.99; stroke: #57db5f; stroke-opacity: 0.99"/>
    </g>
   </g>
   <g id="PolyCollection_4">
    <defs>
     <path id="mecb49af039" d="M 315.975175 -13.490917 
L 315.975175 -10.98 
L 320.852797 -10.98 
L 320.852797 -13.490917 
L 320.852797 -13.490917 
L 315.975175 -13.490917 
z
" style="stroke: #57d3db; stroke-opacity: 0.99"/>
    </defs>
    <g clip-path="url(#pe43ceeb150)">
     <use xlink:href="#mecb49af039" x="0" y="97.56" style="fill: #57d3db; fill-opacity: 0.99; stroke: #57d3db; stroke-opacity: 0.99"/>
    </g>
   </g>
   <g id="PolyCollection_5">
    <defs>
     <path id="mfa05698afe" d="M 315.975175 -55.954193 
L 315.975175 -21.050917 
L 320.852797 -21.050917 
L 320.852797 -55.954193 
L 320.852797 -55.954193 
L 315.975175 -55.954193 
z
" style="stroke: #5f57db; stroke-opacity: 0.99"/>
    </defs>
    <g clip-path="url(#pe43ceeb150)">
     <use xlink:href="#mfa05698afe" x="0" y="97.56" style="fill: #5f57db; fill-opacity: 0.99; stroke: #5f57db; stroke-opacity: 0.99"/>
    </g>
   </g>
   <g id="PolyCollection_6">
    <defs>
     <path id="m0e8ca979e5" d="M 315.975175 -86.58 
L 315.975175 -63.514193 
L 320.852797 -63.514193 
L 320.852797 -86.58 
L 320.852797 -86.58 
L 315.975175 -86.58 
z
" style="stroke: #db57d3; stroke-opacity: 0.99"/>
    </defs>
    <g clip-path="url(#pe43ceeb150)">
     <use xlink:href="#m0e8ca979e5" x="0" y="97.56" style="fill: #db57d3; fill-opacity: 0.99; stroke: #db57d3; stroke-opacity: 0.99"/>
    </g>
   </g>
   <g id="PolyCollection_7">
    <defs>
     <path id="m58db7913a6" d="M 72.094056 -11.936952 
L 72.094056 -10.98 
L 76.092107 -10.98 
L 80.090158 -10.98 
L 84.088209 -10.98 
L 88.08626 -10.98 
L 92.084312 -10.98 
L 96.082363 -10.98 
L 100.080414 -10.98 
L 104.078465 -10.98 
L 108.076516 -10.98 
L 112.074567 -10.98 
L 116.072618 -10.98 
L 120.070669 -10.98 
L 124.068721 -10.98 
L 128.066772 -10.98 
L 132.064823 -10.98 
L 136.062874 -10.98 
L 140.060925 -10.98 
L 144.058976 -10.98 
L 148.057027 -10.98 
L 152.055079 -10.98 
L 156.05313 -10.98 
L 160.051181 -10.98 
L 164.049232 -10.98 
L 168.047283 -10.98 
L 172.045334 -10.98 
L 176.043385 -10.98 
L 180.041436 -10.98 
L 184.039488 -10.98 
L 188.037539 -10.98 
L 192.03559 -10.98 
L 196.033641 -10.98 
L 200.031692 -10.98 
L 204.029743 -10.98 
L 208.027794 -10.98 
L 212.025845 -10.98 
L 216.023897 -10.98 
L 220.021948 -10.98 
L 224.019999 -10.98 
L 228.01805 -10.98 
L 232.016101 -10.98 
L 236.014152 -10.98 
L 240.012203 -10.98 
L 244.010254 -10.98 
L 248.008306 -10.98 
L 252.006357 -10.98 
L 256.004408 -10.98 
L 260.002459 -10.98 
L 264.00051 -10.98 
L 267.998561 -10.98 
L 271.996612 -10.98 
L 275.994664 -10.98 
L 279.992715 -10.98 
L 283.990766 -10.98 
L 287.988817 -10.98 
L 291.986868 -10.98 
L 295.984919 -10.98 
L 299.98297 -10.98 
L 303.981021 -10.98 
L 307.979073 -10.98 
L 311.977124 -10.98 
L 315.975175 -10.98 
L 315.975175 -11.936952 
L 315.975175 -11.936952 
L 311.977124 -11.936952 
L 307.979073 -11.936952 
L 303.981021 -11.936952 
L 299.98297 -11.936952 
L 295.984919 -11.936952 
L 291.986868 -11.936952 
L 287.988817 -11.936952 
L 283.990766 -11.936952 
L 279.992715 -11.936952 
L 275.994664 -11.936952 
L 271.996612 -11.936952 
L 267.998561 -11.936952 
L 264.00051 -11.936952 
L 260.002459 -11.936952 
L 256.004408 -11.936952 
L 252.006357 -11.936952 
L 248.008306 -11.936952 
L 244.010254 -11.936952 
L 240.012203 -11.936952 
L 236.014152 -11.936952 
L 232.016101 -11.936952 
L 228.01805 -11.936952 
L 224.019999 -11.936952 
L 220.021948 -11.936952 
L 216.023897 -11.936952 
L 212.025845 -11.936952 
L 208.027794 -11.936952 
L 204.029743 -11.936952 
L 200.031692 -11.936952 
L 196.033641 -11.936952 
L 192.03559 -11.936952 
L 188.037539 -11.936952 
L 184.039488 -11.936952 
L 180.041436 -11.936952 
L 176.043385 -11.936952 
L 172.045334 -11.936952 
L 168.047283 -11.936952 
L 164.049232 -11.936952 
L 160.051181 -11.936952 
L 156.05313 -11.936952 
L 152.055079 -11.936952 
L 148.057027 -11.936952 
L 144.058976 -11.936952 
L 140.060925 -11.936952 
L 136.062874 -11.936952 
L 132.064823 -11.936952 
L 128.066772 -11.936952 
L 124.068721 -11.936952 
L 120.070669 -11.936952 
L 116.072618 -11.936952 
L 112.074567 -11.936952 
L 108.076516 -11.936952 
L 104.078465 -11.936952 
L 100.080414 -11.936952 
L 96.082363 -11.936952 
L 92.084312 -11.936952 
L 88.08626 -11.936952 
L 84.088209 -11.936952 
L 80.090158 -11.936952 
L 76.092107 -11.936952 
L 72.094056 -11.936952 
z
" style="stroke: #db5f57; stroke-opacity: 0.65"/>
    </defs>
    <g clip-path="url(#pe43ceeb150)">
     <use xlink:href="#m58db7913a6" x="0" y="97.56" style="fill: #db5f57; fill-opacity: 0.65; stroke: #db5f57; stroke-opacity: 0.65"/>
    </g>
   </g>
   <g id="PolyCollection_8">
    <defs>
     <path id="m95c5fb8ae7" d="M 72.094056 -17.670026 
L 72.094056 -11.936952 
L 76.092107 -11.936952 
L 80.090158 -11.936952 
L 84.088209 -11.936952 
L 88.08626 -11.936952 
L 92.084312 -11.936952 
L 96.082363 -11.936952 
L 100.080414 -11.936952 
L 104.078465 -11.936952 
L 108.076516 -11.936952 
L 112.074567 -11.936952 
L 116.072618 -11.936952 
L 120.070669 -11.959737 
L 124.068721 -12.005307 
L 128.066772 -12.073662 
L 132.064823 -12.164801 
L 136.062874 -12.278726 
L 140.060925 -12.415435 
L 144.058976 -12.57493 
L 148.057027 -12.757209 
L 152.055079 -12.962273 
L 156.05313 -13.190122 
L 160.051181 -13.440756 
L 164.049232 -13.714175 
L 168.047283 -14.010379 
L 172.045334 -14.329368 
L 176.043385 -14.671142 
L 180.041436 -15.0357 
L 184.039488 -15.423044 
L 188.037539 -15.833172 
L 192.03559 -16.266086 
L 196.033641 -16.721784 
L 200.031692 -17.154697 
L 204.029743 -17.564826 
L 208.027794 -17.952169 
L 212.025845 -18.316728 
L 216.023897 -18.658501 
L 220.021948 -18.97749 
L 224.019999 -19.273694 
L 228.01805 -19.547113 
L 232.016101 -19.797747 
L 236.014152 -20.025596 
L 240.012203 -20.23066 
L 244.010254 -20.41294 
L 248.008306 -20.572434 
L 252.006357 -20.709144 
L 256.004408 -20.823068 
L 260.002459 -20.914208 
L 264.00051 -20.982562 
L 267.998561 -21.028132 
L 271.996612 -21.050917 
L 275.994664 -21.050917 
L 279.992715 -21.050917 
L 283.990766 -21.050917 
L 287.988817 -21.050917 
L 291.986868 -21.050917 
L 295.984919 -21.050917 
L 299.98297 -21.050917 
L 303.981021 -21.050917 
L 307.979073 -21.050917 
L 311.977124 -21.050917 
L 315.975175 -21.050917 
L 315.975175 -26.783991 
L 315.975175 -26.783991 
L 311.977124 -26.783991 
L 307.979073 -26.783991 
L 303.981021 -26.783991 
L 299.98297 -26.783991 
L 295.984919 -26.783991 
L 291.986868 -26.783991 
L 287.988817 -26.783991 
L 283.990766 -26.783991 
L 279.992715 -26.783991 
L 275.994664 -26.783991 
L 271.996612 -26.783991 
L 267.998561 -26.761206 
L 264.00051 -26.715636 
L 260.002459 -26.647281 
L 256.004408 -26.556142 
L 252.006357 -26.442217 
L 248.008306 -26.305508 
L 244.010254 -26.146013 
L 240.012203 -25.963734 
L 236.014152 -25.75867 
L 232.016101 -25.530821 
L 228.01805 -25.280187 
L 224.019999 -25.006768 
L 220.021948 -24.710564 
L 216.023897 -24.391575 
L 212.025845 -24.049801 
L 208.027794 -23.685243 
L 204.029743 -23.297899 
L 200.031692 -22.887771 
L 196.033641 -22.454857 
L 192.03559 -21.999159 
L 188.037539 -21.566246 
L 184.039488 -21.156117 
L 180.041436 -20.768774 
L 176.043385 -20.404215 
L 172.045334 -20.062442 
L 168.047283 -19.743453 
L 164.049232 -19.447249 
L 160.051181 -19.17383 
L 156.05313 -18.923196 
L 152.055079 -18.695347 
L 148.057027 -18.490283 
L 144.058976 -18.308003 
L 140.060925 -18.148509 
L 136.062874 -18.011799 
L 132.064823 -17.897875 
L 128.066772 -17.806735 
L 124.068721 -17.73838 
L 120.070669 -17.692811 
L 116.072618 -17.670026 
L 112.074567 -17.670026 
L 108.076516 -17.670026 
L 104.078465 -17.670026 
L 100.080414 -17.670026 
L 96.082363 -17.670026 
L 92.084312 -17.670026 
L 88.08626 -17.670026 
L 84.088209 -17.670026 
L 80.090158 -17.670026 
L 76.092107 -17.670026 
L 72.094056 -17.670026 
z
" style="stroke: #db5f57; stroke-opacity: 0.65"/>
    </defs>
    <g clip-path="url(#pe43ceeb150)">
     <use xlink:href="#m95c5fb8ae7" x="0" y="97.56" style="fill: #db5f57; fill-opacity: 0.65; stroke: #db5f57; stroke-opacity: 0.65"/>
    </g>
   </g>
   <g id="PolyCollection_9">
    <defs>
     <path id="m1d2839d4e4" d="M 72.094056 -31.14 
L 72.094056 -17.670026 
L 76.092107 -17.670026 
L 80.090158 -17.670026 
L 84.088209 -17.670026 
L 88.08626 -17.670026 
L 92.084312 -17.670026 
L 96.082363 -17.670026 
L 100.080414 -17.670026 
L 104.078465 -17.670026 
L 108.076516 -17.670026 
L 112.074567 -17.670026 
L 116.072618 -17.670026 
L 120.070669 -17.784636 
L 124.068721 -18.013857 
L 128.066772 -18.357688 
L 132.064823 -18.81613 
L 136.062874 -19.389182 
L 140.060925 -20.076844 
L 144.058976 -20.879117 
L 148.057027 -21.796001 
L 152.055079 -22.827495 
L 156.05313 -23.973599 
L 160.051181 -25.234313 
L 164.049232 -26.609638 
L 168.047283 -28.099574 
L 172.045334 -29.70412 
L 176.043385 -31.423276 
L 180.041436 -33.257043 
L 184.039488 -35.20542 
L 188.037539 -37.268407 
L 192.03559 -39.446005 
L 196.033641 -41.738214 
L 200.031692 -43.915812 
L 204.029743 -45.978799 
L 208.027794 -47.927176 
L 212.025845 -49.760943 
L 216.023897 -51.480099 
L 220.021948 -53.084645 
L 224.019999 -54.574581 
L 228.01805 -55.949906 
L 232.016101 -57.21062 
L 236.014152 -58.356724 
L 240.012203 -59.388218 
L 244.010254 -60.305101 
L 248.008306 -61.107374 
L 252.006357 -61.795037 
L 256.004408 -62.368089 
L 260.002459 -62.826531 
L 264.00051 -63.170362 
L 267.998561 -63.399583 
L 271.996612 -63.514193 
L 275.994664 -63.514193 
L 279.992715 -63.514193 
L 283.990766 -63.514193 
L 287.988817 -63.514193 
L 291.986868 -63.514193 
L 295.984919 -63.514193 
L 299.98297 -63.514193 
L 303.981021 -63.514193 
L 307.979073 -63.514193 
L 311.977124 -63.514193 
L 315.975175 -63.514193 
L 315.975175 -76.984167 
L 315.975175 -76.984167 
L 311.977124 -76.984167 
L 307.979073 -76.984167 
L 303.981021 -76.984167 
L 299.98297 -76.984167 
L 295.984919 -76.984167 
L 291.986868 -76.984167 
L 287.988817 -76.984167 
L 283.990766 -76.984167 
L 279.992715 -76.984167 
L 275.994664 -76.984167 
L 271.996612 -76.984167 
L 267.998561 -76.869557 
L 264.00051 -76.640336 
L 260.002459 -76.296505 
L 256.004408 -75.838063 
L 252.006357 -75.265011 
L 248.008306 -74.577349 
L 244.010254 -73.775076 
L 240.012203 -72.858192 
L 236.014152 -71.826699 
L 232.016101 -70.680594 
L 228.01805 -69.41988 
L 224.019999 -68.044555 
L 220.021948 -66.554619 
L 216.023897 -64.950074 
L 212.025845 -63.230917 
L 208.027794 -61.397151 
L 204.029743 -59.448773 
L 200.031692 -57.385786 
L 196.033641 -55.208188 
L 192.03559 -52.91598 
L 188.037539 -50.738382 
L 184.039488 -48.675394 
L 180.041436 -46.727017 
L 176.043385 -44.89325 
L 172.045334 -43.174094 
L 168.047283 -41.569548 
L 164.049232 -40.079613 
L 160.051181 -38.704288 
L 156.05313 -37.443573 
L 152.055079 -36.297469 
L 148.057027 -35.265975 
L 144.058976 -34.349092 
L 140.060925 -33.546819 
L 136.062874 -32.859156 
L 132.064823 -32.286104 
L 128.066772 -31.827663 
L 124.068721 -31.483831 
L 120.070669 -31.25461 
L 116.072618 -31.14 
L 112.074567 -31.14 
L 108.076516 -31.14 
L 104.078465 -31.14 
L 100.080414 -31.14 
L 96.082363 -31.14 
L 92.084312 -31.14 
L 88.08626 -31.14 
L 84.088209 -31.14 
L 80.090158 -31.14 
L 76.092107 -31.14 
L 72.094056 -31.14 
z
" style="stroke: #db5f57; stroke-opacity: 0.65"/>
    </defs>
    <g clip-path="url(#pe43ceeb150)">
     <use xlink:href="#m1d2839d4e4" x="0" y="97.56" style="fill: #db5f57; fill-opacity: 0.65; stroke: #db5f57; stroke-opacity: 0.65"/>
    </g>
   </g>
   <g id="PolyCollection_10">
    <defs>
     <path id="mb00c779468" d="M 72.094056 -40.253965 
L 72.094056 -38.7 
L 76.092107 -38.7 
L 80.090158 -38.7 
L 84.088209 -38.7 
L 88.08626 -38.7 
L 92.084312 -38.7 
L 96.082363 -38.7 
L 100.080414 -38.7 
L 104.078465 -38.7 
L 108.076516 -38.7 
L 112.074567 -38.7 
L 116.072618 -38.7 
L 120.070669 -38.633092 
L 124.068721 -38.499277 
L 128.066772 -38.298554 
L 132.064823 -38.030924 
L 136.062874 -37.696386 
L 140.060925 -37.29494 
L 144.058976 -36.826587 
L 148.057027 -36.291326 
L 152.055079 -35.689157 
L 156.05313 -35.020081 
L 160.051181 -34.284097 
L 164.049232 -33.481206 
L 168.047283 -32.611407 
L 172.045334 -31.6747 
L 176.043385 -30.671086 
L 180.041436 -29.600564 
L 184.039488 -28.463134 
L 188.037539 -27.258797 
L 192.03559 -25.987552 
L 196.033641 -24.6494 
L 200.031692 -23.378155 
L 204.029743 -22.173818 
L 208.027794 -21.036388 
L 212.025845 -19.965867 
L 216.023897 -18.962252 
L 220.021948 -18.025546 
L 224.019999 -17.155747 
L 228.01805 -16.352855 
L 232.016101 -15.616871 
L 236.014152 -14.947795 
L 240.012203 -14.345626 
L 244.010254 -13.810366 
L 248.008306 -13.342012 
L 252.006357 -12.940566 
L 256.004408 -12.606028 
L 260.002459 -12.338398 
L 264.00051 -12.137675 
L 267.998561 -12.00386 
L 271.996612 -11.936952 
L 275.994664 -11.936952 
L 279.992715 -11.936952 
L 283.990766 -11.936952 
L 287.988817 -11.936952 
L 291.986868 -11.936952 
L 295.984919 -11.936952 
L 299.98297 -11.936952 
L 303.981021 -11.936952 
L 307.979073 -11.936952 
L 311.977124 -11.936952 
L 315.975175 -11.936952 
L 315.975175 -13.490917 
L 315.975175 -13.490917 
L 311.977124 -13.490917 
L 307.979073 -13.490917 
L 303.981021 -13.490917 
L 299.98297 -13.490917 
L 295.984919 -13.490917 
L 291.986868 -13.490917 
L 287.988817 -13.490917 
L 283.990766 -13.490917 
L 279.992715 -13.490917 
L 275.994664 -13.490917 
L 271.996612 -13.490917 
L 267.998561 -13.557825 
L 264.00051 -13.69164 
L 260.002459 -13.892363 
L 256.004408 -14.159993 
L 252.006357 -14.494532 
L 248.008306 -14.895977 
L 244.010254 -15.364331 
L 240.012203 -15.899592 
L 236.014152 -16.50176 
L 232.016101 -17.170836 
L 228.01805 -17.90682 
L 224.019999 -18.709712 
L 220.021948 -19.579511 
L 216.023897 -20.516217 
L 212.025845 -21.519832 
L 208.027794 -22.590353 
L 204.029743 -23.727783 
L 200.031692 -24.93212 
L 196.033641 -26.203365 
L 192.03559 -27.541517 
L 188.037539 -28.812762 
L 184.039488 -30.017099 
L 180.041436 -31.154529 
L 176.043385 -32.225051 
L 172.045334 -33.228665 
L 168.047283 -34.165372 
L 164.049232 -35.035171 
L 160.051181 -35.838062 
L 156.05313 -36.574046 
L 152.055079 -37.243122 
L 148.057027 -37.845291 
L 144.058976 -38.380552 
L 140.060925 -38.848905 
L 136.062874 -39.250351 
L 132.064823 -39.584889 
L 128.066772 -39.852519 
L 124.068721 -40.053242 
L 120.070669 -40.187057 
L 116.072618 -40.253965 
L 112.074567 -40.253965 
L 108.076516 -40.253965 
L 104.078465 -40.253965 
L 100.080414 -40.253965 
L 96.082363 -40.253965 
L 92.084312 -40.253965 
L 88.08626 -40.253965 
L 84.088209 -40.253965 
L 80.090158 -40.253965 
L 76.092107 -40.253965 
L 72.094056 -40.253965 
z
" style="stroke: #d3db57; stroke-opacity: 0.65"/>
    </defs>
    <g clip-path="url(#pe43ceeb150)">
     <use xlink:href="#mb00c779468" x="0" y="97.56" style="fill: #d3db57; fill-opacity: 0.65; stroke: #d3db57; stroke-opacity: 0.65"/>
    </g>
   </g>
   <g id="PolyCollection_11">
    <defs>
     <path id="mfcd2034992" d="M 72.094056 -51.725483 
L 72.094056 -40.253965 
L 76.092107 -40.253965 
L 80.090158 -40.253965 
L 84.088209 -40.253965 
L 88.08626 -40.253965 
L 92.084312 -40.253965 
L 96.082363 -40.253965 
L 100.080414 -40.253965 
L 104.078465 -40.253965 
L 108.076516 -40.253965 
L 112.074567 -40.253965 
L 116.072618 -40.253965 
L 120.070669 -40.22029 
L 124.068721 -40.15294 
L 128.066772 -40.051915 
L 132.064823 -39.917216 
L 136.062874 -39.748841 
L 140.060925 -39.546791 
L 144.058976 -39.311067 
L 148.057027 -39.041667 
L 152.055079 -38.738593 
L 156.05313 -38.401844 
L 160.051181 -38.031419 
L 164.049232 -37.62732 
L 168.047283 -37.189546 
L 172.045334 -36.718097 
L 176.043385 -36.212973 
L 180.041436 -35.674174 
L 184.039488 -35.1017 
L 188.037539 -34.495551 
L 192.03559 -33.855727 
L 196.033641 -33.182229 
L 200.031692 -32.542405 
L 204.029743 -31.936256 
L 208.027794 -31.363782 
L 212.025845 -30.824983 
L 216.023897 -30.319859 
L 220.021948 -29.84841 
L 224.019999 -29.410636 
L 228.01805 -29.006536 
L 232.016101 -28.636112 
L 236.014152 -28.299363 
L 240.012203 -27.996288 
L 244.010254 -27.726889 
L 248.008306 -27.491164 
L 252.006357 -27.289115 
L 256.004408 -27.12074 
L 260.002459 -26.98604 
L 264.00051 -26.885016 
L 267.998561 -26.817666 
L 271.996612 -26.783991 
L 275.994664 -26.783991 
L 279.992715 -26.783991 
L 283.990766 -26.783991 
L 287.988817 -26.783991 
L 291.986868 -26.783991 
L 295.984919 -26.783991 
L 299.98297 -26.783991 
L 303.981021 -26.783991 
L 307.979073 -26.783991 
L 311.977124 -26.783991 
L 315.975175 -26.783991 
L 315.975175 -38.255508 
L 315.975175 -38.255508 
L 311.977124 -38.255508 
L 307.979073 -38.255508 
L 303.981021 -38.255508 
L 299.98297 -38.255508 
L 295.984919 -38.255508 
L 291.986868 -38.255508 
L 287.988817 -38.255508 
L 283.990766 -38.255508 
L 279.992715 -38.255508 
L 275.994664 -38.255508 
L 271.996612 -38.255508 
L 267.998561 -38.289183 
L 264.00051 -38.356533 
L 260.002459 -38.457558 
L 256.004408 -38.592258 
L 252.006357 -38.760632 
L 248.008306 -38.962682 
L 244.010254 -39.198406 
L 240.012203 -39.467806 
L 236.014152 -39.77088 
L 232.016101 -40.10763 
L 228.01805 -40.478054 
L 224.019999 -40.882153 
L 220.021948 -41.319927 
L 216.023897 -41.791376 
L 212.025845 -42.2965 
L 208.027794 -42.835299 
L 204.029743 -43.407773 
L 200.031692 -44.013922 
L 196.033641 -44.653746 
L 192.03559 -45.327245 
L 188.037539 -45.967068 
L 184.039488 -46.573217 
L 180.041436 -47.145691 
L 176.043385 -47.68449 
L 172.045334 -48.189614 
L 168.047283 -48.661063 
L 164.049232 -49.098838 
L 160.051181 -49.502937 
L 156.05313 -49.873361 
L 152.055079 -50.21011 
L 148.057027 -50.513185 
L 144.058976 -50.782584 
L 140.060925 -51.018309 
L 136.062874 -51.220358 
L 132.064823 -51.388733 
L 128.066772 -51.523433 
L 124.068721 -51.624458 
L 120.070669 -51.691808 
L 116.072618 -51.725483 
L 112.074567 -51.725483 
L 108.076516 -51.725483 
L 104.078465 -51.725483 
L 100.080414 -51.725483 
L 96.082363 -51.725483 
L 92.084312 -51.725483 
L 88.08626 -51.725483 
L 84.088209 -51.725483 
L 80.090158 -51.725483 
L 76.092107 -51.725483 
L 72.094056 -51.725483 
z
" style="stroke: #d3db57; stroke-opacity: 0.65"/>
    </defs>
    <g clip-path="url(#pe43ceeb150)">
     <use xlink:href="#mfcd2034992" x="0" y="97.56" style="fill: #d3db57; fill-opacity: 0.65; stroke: #d3db57; stroke-opacity: 0.65"/>
    </g>
   </g>
   <g id="PolyCollection_12">
    <defs>
     <path id="m8625e25ca9" d="M 72.094056 -58.86 
L 72.094056 -51.725483 
L 76.092107 -51.725483 
L 80.090158 -51.725483 
L 84.088209 -51.725483 
L 88.08626 -51.725483 
L 92.084312 -51.725483 
L 96.082363 -51.725483 
L 100.080414 -51.725483 
L 104.078465 -51.725483 
L 108.076516 -51.725483 
L 112.074567 -51.725483 
L 116.072618 -51.725483 
L 120.070669 -51.788629 
L 124.068721 -51.914923 
L 128.066772 -52.104363 
L 132.064823 -52.35695 
L 136.062874 -52.672683 
L 140.060925 -53.051563 
L 144.058976 -53.49359 
L 148.057027 -53.998764 
L 152.055079 -54.567085 
L 156.05313 -55.198552 
L 160.051181 -55.893166 
L 164.049232 -56.650926 
L 168.047283 -57.471833 
L 172.045334 -58.355887 
L 176.043385 -59.303088 
L 180.041436 -60.313435 
L 184.039488 -61.38693 
L 188.037539 -62.52357 
L 192.03559 -63.723358 
L 196.033641 -64.986292 
L 200.031692 -66.18608 
L 204.029743 -67.32272 
L 208.027794 -68.396215 
L 212.025845 -69.406562 
L 216.023897 -70.353763 
L 220.021948 -71.237817 
L 224.019999 -72.058724 
L 228.01805 -72.816484 
L 232.016101 -73.511098 
L 236.014152 -74.142565 
L 240.012203 -74.710886 
L 244.010254 -75.21606 
L 248.008306 -75.658087 
L 252.006357 -76.036967 
L 256.004408 -76.3527 
L 260.002459 -76.605287 
L 264.00051 -76.794727 
L 267.998561 -76.921021 
L 271.996612 -76.984167 
L 275.994664 -76.984167 
L 279.992715 -76.984167 
L 283.990766 -76.984167 
L 287.988817 -76.984167 
L 291.986868 -76.984167 
L 295.984919 -76.984167 
L 299.98297 -76.984167 
L 303.981021 -76.984167 
L 307.979073 -76.984167 
L 311.977124 -76.984167 
L 315.975175 -76.984167 
L 315.975175 -84.118685 
L 315.975175 -84.118685 
L 311.977124 -84.118685 
L 307.979073 -84.118685 
L 303.981021 -84.118685 
L 299.98297 -84.118685 
L 295.984919 -84.118685 
L 291.986868 -84.118685 
L 287.988817 -84.118685 
L 283.990766 -84.118685 
L 279.992715 -84.118685 
L 275.994664 -84.118685 
L 271.996612 -84.118685 
L 267.998561 -84.055538 
L 264.00051 -83.929245 
L 260.002459 -83.739805 
L 256.004408 -83.487218 
L 252.006357 -83.171484 
L 248.008306 -82.792604 
L 244.010254 -82.350577 
L 240.012203 -81.845403 
L 236.014152 -81.277083 
L 232.016101 -80.645616 
L 228.01805 -79.951002 
L 224.019999 -79.193241 
L 220.021948 -78.372334 
L 216.023897 -77.48828 
L 212.025845 -76.541079 
L 208.027794 -75.530732 
L 204.029743 -74.457238 
L 200.031692 -73.320597 
L 196.033641 -72.12081 
L 192.03559 -70.857875 
L 188.037539 -69.658088 
L 184.039488 -68.521447 
L 180.041436 -67.447953 
L 176.043385 -66.437605 
L 172.045334 -65.490405 
L 168.047283 -64.606351 
L 164.049232 -63.785444 
L 160.051181 -63.027683 
L 156.05313 -62.333069 
L 152.055079 -61.701602 
L 148.057027 -61.133282 
L 144.058976 -60.628108 
L 140.060925 -60.186081 
L 136.062874 -59.807201 
L 132.064823 -59.491467 
L 128.066772 -59.23888 
L 124.068721 -59.04944 
L 120.070669 -58.923147 
L 116.072618 -58.86 
L 112.074567 -58.86 
L 108.076516 -58.86 
L 104.078465 -58.86 
L 100.080414 -58.86 
L 96.082363 -58.86 
L 92.084312 -58.86 
L 88.08626 -58.86 
L 84.088209 -58.86 
L 80.090158 -58.86 
L 76.092107 -58.86 
L 72.094056 -58.86 
z
" style="stroke: #d3db57; stroke-opacity: 0.65"/>
    </defs>
    <g clip-path="url(#pe43ceeb150)">
     <use xlink:href="#m8625e25ca9" x="0" y="97.56" style="fill: #d3db57; fill-opacity: 0.65; stroke: #d3db57; stroke-opacity: 0.65"/>
    </g>
   </g>
   <g id="PolyCollection_13">
    <defs>
     <path id="m21a3eed43e" d="M 72.094056 -66.42 
L 72.094056 -66.42 
L 76.092107 -66.42 
L 80.090158 -66.42 
L 84.088209 -66.42 
L 88.08626 -66.42 
L 92.084312 -66.42 
L 96.082363 -66.42 
L 100.080414 -66.42 
L 104.078465 -66.42 
L 108.076516 -66.42 
L 112.074567 -66.42 
L 116.072618 -66.42 
L 120.070669 -66.287677 
L 124.068721 -66.023032 
L 128.066772 -65.626064 
L 132.064823 -65.096773 
L 136.062874 -64.435159 
L 140.060925 -63.641223 
L 144.058976 -62.714964 
L 148.057027 -61.656383 
L 152.055079 -60.465478 
L 156.05313 -59.142251 
L 160.051181 -57.686701 
L 164.049232 -56.098829 
L 168.047283 -54.378634 
L 172.045334 -52.526116 
L 176.043385 -50.541275 
L 180.041436 -48.424112 
L 184.039488 -46.174626 
L 188.037539 -43.792817 
L 192.03559 -41.278686 
L 196.033641 -38.632232 
L 200.031692 -36.1181 
L 204.029743 -33.736291 
L 208.027794 -31.486805 
L 212.025845 -29.369642 
L 216.023897 -27.384801 
L 220.021948 -25.532284 
L 224.019999 -23.812088 
L 228.01805 -22.224216 
L 232.016101 -20.768666 
L 236.014152 -19.445439 
L 240.012203 -18.254535 
L 244.010254 -17.195953 
L 248.008306 -16.269694 
L 252.006357 -15.475758 
L 256.004408 -14.814144 
L 260.002459 -14.284853 
L 264.00051 -13.887885 
L 267.998561 -13.62324 
L 271.996612 -13.490917 
L 275.994664 -13.490917 
L 279.992715 -13.490917 
L 283.990766 -13.490917 
L 287.988817 -13.490917 
L 291.986868 -13.490917 
L 295.984919 -13.490917 
L 299.98297 -13.490917 
L 303.981021 -13.490917 
L 307.979073 -13.490917 
L 311.977124 -13.490917 
L 315.975175 -13.490917 
L 315.975175 -13.490917 
L 315.975175 -13.490917 
L 311.977124 -13.490917 
L 307.979073 -13.490917 
L 303.981021 -13.490917 
L 299.98297 -13.490917 
L 295.984919 -13.490917 
L 291.986868 -13.490917 
L 287.988817 -13.490917 
L 283.990766 -13.490917 
L 279.992715 -13.490917 
L 275.994664 -13.490917 
L 271.996612 -13.490917 
L 267.998561 -13.62324 
L 264.00051 -13.887885 
L 260.002459 -14.284853 
L 256.004408 -14.814144 
L 252.006357 -15.475758 
L 248.008306 -16.269694 
L 244.010254 -17.195953 
L 240.012203 -18.254535 
L 236.014152 -19.445439 
L 232.016101 -20.768666 
L 228.01805 -22.224216 
L 224.019999 -23.812088 
L 220.021948 -25.532284 
L 216.023897 -27.384801 
L 212.025845 -29.369642 
L 208.027794 -31.486805 
L 204.029743 -33.736291 
L 200.031692 -36.1181 
L 196.033641 -38.632232 
L 192.03559 -41.278686 
L 188.037539 -43.792817 
L 184.039488 -46.174626 
L 180.041436 -48.424112 
L 176.043385 -50.541275 
L 172.045334 -52.526116 
L 168.047283 -54.378634 
L 164.049232 -56.098829 
L 160.051181 -57.686701 
L 156.05313 -59.142251 
L 152.055079 -60.465478 
L 148.057027 -61.656383 
L 144.058976 -62.714964 
L 140.060925 -63.641223 
L 136.062874 -64.435159 
L 132.064823 -65.096773 
L 128.066772 -65.626064 
L 124.068721 -66.023032 
L 120.070669 -66.287677 
L 116.072618 -66.42 
L 112.074567 -66.42 
L 108.076516 -66.42 
L 104.078465 -66.42 
L 100.080414 -66.42 
L 96.082363 -66.42 
L 92.084312 -66.42 
L 88.08626 -66.42 
L 84.088209 -66.42 
L 80.090158 -66.42 
L 76.092107 -66.42 
L 72.094056 -66.42 
z
" style="stroke: #57db5f; stroke-opacity: 0.65"/>
    </defs>
    <g clip-path="url(#pe43ceeb150)">
     <use xlink:href="#m21a3eed43e" x="0" y="97.56" style="fill: #57db5f; fill-opacity: 0.65; stroke: #57db5f; stroke-opacity: 0.65"/>
    </g>
   </g>
   <g id="PolyCollection_14">
    <defs>
     <path id="m952b836e32" d="M 72.094056 -84.118685 
L 72.094056 -66.42 
L 76.092107 -66.42 
L 80.090158 -66.42 
L 84.088209 -66.42 
L 88.08626 -66.42 
L 92.084312 -66.42 
L 96.082363 -66.42 
L 100.080414 -66.42 
L 104.078465 -66.42 
L 108.076516 -66.42 
L 112.074567 -66.42 
L 116.072618 -66.42 
L 120.070669 -66.349589 
L 124.068721 -66.208766 
L 128.066772 -65.997533 
L 132.064823 -65.715888 
L 136.062874 -65.363832 
L 140.060925 -64.941364 
L 144.058976 -64.448486 
L 148.057027 -63.885196 
L 152.055079 -63.251495 
L 156.05313 -62.547382 
L 160.051181 -61.772859 
L 164.049232 -60.927924 
L 168.047283 -60.012578 
L 172.045334 -59.026821 
L 176.043385 -57.970652 
L 180.041436 -56.844073 
L 184.039488 -55.647082 
L 188.037539 -54.37968 
L 192.03559 -53.041866 
L 196.033641 -51.633642 
L 200.031692 -50.295828 
L 204.029743 -49.028426 
L 208.027794 -47.831435 
L 212.025845 -46.704856 
L 216.023897 -45.648687 
L 220.021948 -44.66293 
L 224.019999 -43.747584 
L 228.01805 -42.902649 
L 232.016101 -42.128126 
L 236.014152 -41.424014 
L 240.012203 -40.790312 
L 244.010254 -40.227023 
L 248.008306 -39.734144 
L 252.006357 -39.311677 
L 256.004408 -38.959621 
L 260.002459 -38.677976 
L 264.00051 -38.466742 
L 267.998561 -38.325919 
L 271.996612 -38.255508 
L 275.994664 -38.255508 
L 279.992715 -38.255508 
L 283.990766 -38.255508 
L 287.988817 -38.255508 
L 291.986868 -38.255508 
L 295.984919 -38.255508 
L 299.98297 -38.255508 
L 303.981021 -38.255508 
L 307.979073 -38.255508 
L 311.977124 -38.255508 
L 315.975175 -38.255508 
L 315.975175 -55.954193 
L 315.975175 -55.954193 
L 311.977124 -55.954193 
L 307.979073 -55.954193 
L 303.981021 -55.954193 
L 299.98297 -55.954193 
L 295.984919 -55.954193 
L 291.986868 -55.954193 
L 287.988817 -55.954193 
L 283.990766 -55.954193 
L 279.992715 -55.954193 
L 275.994664 -55.954193 
L 271.996612 -55.954193 
L 267.998561 -56.024604 
L 264.00051 -56.165427 
L 260.002459 -56.376661 
L 256.004408 -56.658305 
L 252.006357 -57.010362 
L 248.008306 -57.432829 
L 244.010254 -57.925708 
L 240.012203 -58.488997 
L 236.014152 -59.122699 
L 232.016101 -59.826811 
L 228.01805 -60.601334 
L 224.019999 -61.446269 
L 220.021948 -62.361615 
L 216.023897 -63.347372 
L 212.025845 -64.403541 
L 208.027794 -65.53012 
L 204.029743 -66.727111 
L 200.031692 -67.994513 
L 196.033641 -69.332327 
L 192.03559 -70.740551 
L 188.037539 -72.078365 
L 184.039488 -73.345767 
L 180.041436 -74.542758 
L 176.043385 -75.669337 
L 172.045334 -76.725506 
L 168.047283 -77.711263 
L 164.049232 -78.626609 
L 160.051181 -79.471544 
L 156.05313 -80.246067 
L 152.055079 -80.95018 
L 148.057027 -81.583881 
L 144.058976 -82.147171 
L 140.060925 -82.640049 
L 136.062874 -83.062517 
L 132.064823 -83.414573 
L 128.066772 -83.696218 
L 124.068721 -83.907451 
L 120.070669 -84.048274 
L 116.072618 -84.118685 
L 112.074567 -84.118685 
L 108.076516 -84.118685 
L 104.078465 -84.118685 
L 100.080414 -84.118685 
L 96.082363 -84.118685 
L 92.084312 -84.118685 
L 88.08626 -84.118685 
L 84.088209 -84.118685 
L 80.090158 -84.118685 
L 76.092107 -84.118685 
L 72.094056 -84.118685 
z
" style="stroke: #57db5f; stroke-opacity: 0.65"/>
    </defs>
    <g clip-path="url(#pe43ceeb150)">
     <use xlink:href="#m952b836e32" x="0" y="97.56" style="fill: #57db5f; fill-opacity: 0.65; stroke: #57db5f; stroke-opacity: 0.65"/>
    </g>
   </g>
   <g id="PolyCollection_15">
    <defs>
     <path id="mc450c3a99f" d="M 72.094056 -86.58 
L 72.094056 -84.118685 
L 76.092107 -84.118685 
L 80.090158 -84.118685 
L 84.088209 -84.118685 
L 88.08626 -84.118685 
L 92.084312 -84.118685 
L 96.082363 -84.118685 
L 100.080414 -84.118685 
L 104.078465 -84.118685 
L 108.076516 -84.118685 
L 112.074567 -84.118685 
L 116.072618 -84.118685 
L 120.070669 -84.118685 
L 124.068721 -84.118685 
L 128.066772 -84.118685 
L 132.064823 -84.118685 
L 136.062874 -84.118685 
L 140.060925 -84.118685 
L 144.058976 -84.118685 
L 148.057027 -84.118685 
L 152.055079 -84.118685 
L 156.05313 -84.118685 
L 160.051181 -84.118685 
L 164.049232 -84.118685 
L 168.047283 -84.118685 
L 172.045334 -84.118685 
L 176.043385 -84.118685 
L 180.041436 -84.118685 
L 184.039488 -84.118685 
L 188.037539 -84.118685 
L 192.03559 -84.118685 
L 196.033641 -84.118685 
L 200.031692 -84.118685 
L 204.029743 -84.118685 
L 208.027794 -84.118685 
L 212.025845 -84.118685 
L 216.023897 -84.118685 
L 220.021948 -84.118685 
L 224.019999 -84.118685 
L 228.01805 -84.118685 
L 232.016101 -84.118685 
L 236.014152 -84.118685 
L 240.012203 -84.118685 
L 244.010254 -84.118685 
L 248.008306 -84.118685 
L 252.006357 -84.118685 
L 256.004408 -84.118685 
L 260.002459 -84.118685 
L 264.00051 -84.118685 
L 267.998561 -84.118685 
L 271.996612 -84.118685 
L 275.994664 -84.118685 
L 279.992715 -84.118685 
L 283.990766 -84.118685 
L 287.988817 -84.118685 
L 291.986868 -84.118685 
L 295.984919 -84.118685 
L 299.98297 -84.118685 
L 303.981021 -84.118685 
L 307.979073 -84.118685 
L 311.977124 -84.118685 
L 315.975175 -84.118685 
L 315.975175 -86.58 
L 315.975175 -86.58 
L 311.977124 -86.58 
L 307.979073 -86.58 
L 303.981021 -86.58 
L 299.98297 -86.58 
L 295.984919 -86.58 
L 291.986868 -86.58 
L 287.988817 -86.58 
L 283.990766 -86.58 
L 279.992715 -86.58 
L 275.994664 -86.58 
L 271.996612 -86.58 
L 267.998561 -86.58 
L 264.00051 -86.58 
L 260.002459 -86.58 
L 256.004408 -86.58 
L 252.006357 -86.58 
L 248.008306 -86.58 
L 244.010254 -86.58 
L 240.012203 -86.58 
L 236.014152 -86.58 
L 232.016101 -86.58 
L 228.01805 -86.58 
L 224.019999 -86.58 
L 220.021948 -86.58 
L 216.023897 -86.58 
L 212.025845 -86.58 
L 208.027794 -86.58 
L 204.029743 -86.58 
L 200.031692 -86.58 
L 196.033641 -86.58 
L 192.03559 -86.58 
L 188.037539 -86.58 
L 184.039488 -86.58 
L 180.041436 -86.58 
L 176.043385 -86.58 
L 172.045334 -86.58 
L 168.047283 -86.58 
L 164.049232 -86.58 
L 160.051181 -86.58 
L 156.05313 -86.58 
L 152.055079 -86.58 
L 148.057027 -86.58 
L 144.058976 -86.58 
L 140.060925 -86.58 
L 136.062874 -86.58 
L 132.064823 -86.58 
L 128.066772 -86.58 
L 124.068721 -86.58 
L 120.070669 -86.58 
L 116.072618 -86.58 
L 112.074567 -86.58 
L 108.076516 -86.58 
L 104.078465 -86.58 
L 100.080414 -86.58 
L 96.082363 -86.58 
L 92.084312 -86.58 
L 88.08626 -86.58 
L 84.088209 -86.58 
L 80.090158 -86.58 
L 76.092107 -86.58 
L 72.094056 -86.58 
z
" style="stroke: #57db5f; stroke-opacity: 0.65"/>
    </defs>
    <g clip-path="url(#pe43ceeb150)">
     <use xlink:href="#mc450c3a99f" x="0" y="97.56" style="fill: #57db5f; fill-opacity: 0.65; stroke: #57db5f; stroke-opacity: 0.65"/>
    </g>
   </g>
   <g id="text_1">
    <!-- Encrypted -->
    <g transform="translate(19.13625 78.7075) scale(0.08 -0.08)">
     <defs>
      <path id="DejaVuSans-45" d="M 628 4666 
L 3578 4666 
L 3578 4134 
L 1259 4134 
L 1259 2753 
L 3481 2753 
L 3481 2222 
L 1259 2222 
L 1259 531 
L 3634 531 
L 3634 0 
L 628 0 
L 628 4666 
z
" transform="scale(0.015625)"/>
      <path id="DejaVuSans-6e" d="M 3513 2113 
L 3513 0 
L 2938 0 
L 2938 2094 
Q 2938 2591 2744 2837 
Q 2550 3084 2163 3084 
Q 1697 3084 1428 2787 
Q 1159 2491 1159 1978 
L 1159 0 
L 581 0 
L 581 3500 
L 1159 3500 
L 1159 2956 
Q 1366 3272 1645 3428 
Q 1925 3584 2291 3584 
Q 2894 3584 3203 3211 
Q 3513 2838 3513 2113 
z
" transform="scale(0.015625)"/>
      <path id="DejaVuSans-63" d="M 3122 3366 
L 3122 2828 
Q 2878 2963 2633 3030 
Q 2388 3097 2138 3097 
Q 1578 3097 1268 2742 
Q 959 2388 959 1747 
Q 959 1106 1268 751 
Q 1578 397 2138 397 
Q 2388 397 2633 464 
Q 2878 531 3122 666 
L 3122 134 
Q 2881 22 2623 -34 
Q 2366 -91 2075 -91 
Q 1284 -91 818 406 
Q 353 903 353 1747 
Q 353 2603 823 3093 
Q 1294 3584 2113 3584 
Q 2378 3584 2631 3529 
Q 2884 3475 3122 3366 
z
" transform="scale(0.015625)"/>
      <path id="DejaVuSans-72" d="M 2631 2963 
Q 2534 3019 2420 3045 
Q 2306 3072 2169 3072 
Q 1681 3072 1420 2755 
Q 1159 2438 1159 1844 
L 1159 0 
L 581 0 
L 581 3500 
L 1159 3500 
L 1159 2956 
Q 1341 3275 1631 3429 
Q 1922 3584 2338 3584 
Q 2397 3584 2469 3576 
Q 2541 3569 2628 3553 
L 2631 2963 
z
" transform="scale(0.015625)"/>
      <path id="DejaVuSans-79" d="M 2059 -325 
Q 1816 -950 1584 -1140 
Q 1353 -1331 966 -1331 
L 506 -1331 
L 506 -850 
L 844 -850 
Q 1081 -850 1212 -737 
Q 1344 -625 1503 -206 
L 1606 56 
L 191 3500 
L 800 3500 
L 1894 763 
L 2988 3500 
L 3597 3500 
L 2059 -325 
z
" transform="scale(0.015625)"/>
      <path id="DejaVuSans-70" d="M 1159 525 
L 1159 -1331 
L 581 -1331 
L 581 3500 
L 1159 3500 
L 1159 2969 
Q 1341 3281 1617 3432 
Q 1894 3584 2278 3584 
Q 2916 3584 3314 3078 
Q 3713 2572 3713 1747 
Q 3713 922 3314 415 
Q 2916 -91 2278 -91 
Q 1894 -91 1617 61 
Q 1341 213 1159 525 
z
M 3116 1747 
Q 3116 2381 2855 2742 
Q 2594 3103 2138 3103 
Q 1681 3103 1420 2742 
Q 1159 2381 1159 1747 
Q 1159 1113 1420 752 
Q 1681 391 2138 391 
Q 2594 391 2855 752 
Q 3116 1113 3116 1747 
z
" transform="scale(0.015625)"/>
      <path id="DejaVuSans-74" d="M 1172 4494 
L 1172 3500 
L 2356 3500 
L 2356 3053 
L 1172 3053 
L 1172 1153 
Q 1172 725 1289 603 
Q 1406 481 1766 481 
L 2356 481 
L 2356 0 
L 1766 0 
Q 1100 0 847 248 
Q 594 497 594 1153 
L 594 3053 
L 172 3053 
L 172 3500 
L 594 3500 
L 594 4494 
L 1172 4494 
z
" transform="scale(0.015625)"/>
      <path id="DejaVuSans-65" d="M 3597 1894 
L 3597 1613 
L 953 1613 
Q 991 1019 1311 708 
Q 1631 397 2203 397 
Q 2534 397 2845 478 
Q 3156 559 3463 722 
L 3463 178 
Q 3153 47 2828 -22 
Q 2503 -91 2169 -91 
Q 1331 -91 842 396 
Q 353 884 353 1716 
Q 353 2575 817 3079 
Q 1281 3584 2069 3584 
Q 2775 3584 3186 3129 
Q 3597 2675 3597 1894 
z
M 3022 2063 
Q 3016 2534 2758 2815 
Q 2500 3097 2075 3097 
Q 1594 3097 1305 2825 
Q 1016 2553 972 2059 
L 3022 2063 
z
" transform="scale(0.015625)"/>
      <path id="DejaVuSans-64" d="M 2906 2969 
L 2906 4863 
L 3481 4863 
L 3481 0 
L 2906 0 
L 2906 525 
Q 2725 213 2448 61 
Q 2172 -91 1784 -91 
Q 1150 -91 751 415 
Q 353 922 353 1747 
Q 353 2572 751 3078 
Q 1150 3584 1784 3584 
Q 2172 3584 2448 3432 
Q 2725 3281 2906 2969 
z
M 947 1747 
Q 947 1113 1208 752 
Q 1469 391 1925 391 
Q 2381 391 2643 752 
Q 2906 1113 2906 1747 
Q 2906 2381 2643 2742 
Q 2381 3103 1925 3103 
Q 1469 3103 1208 2742 
Q 947 2381 947 1747 
z
" transform="scale(0.015625)"/>
     </defs>
     <use xlink:href="#DejaVuSans-45"/>
     <use xlink:href="#DejaVuSans-6e" x="63.183594"/>
     <use xlink:href="#DejaVuSans-63" x="126.5625"/>
     <use xlink:href="#DejaVuSans-72" x="181.542969"/>
     <use xlink:href="#DejaVuSans-79" x="222.65625"/>
     <use xlink:href="#DejaVuSans-70" x="281.835938"/>
     <use xlink:href="#DejaVuSans-74" x="345.3125"/>
     <use xlink:href="#DejaVuSans-65" x="384.521484"/>
     <use xlink:href="#DejaVuSans-64" x="446.044922"/>
    </g>
   </g>
   <g id="text_2">
    <!-- Unencrypted -->
    <g transform="translate(8.34375 50.9875) scale(0.08 -0.08)">
     <defs>
      <path id="DejaVuSans-55" d="M 556 4666 
L 1191 4666 
L 1191 1831 
Q 1191 1081 1462 751 
Q 1734 422 2344 422 
Q 2950 422 3222 751 
Q 3494 1081 3494 1831 
L 3494 4666 
L 4128 4666 
L 4128 1753 
Q 4128 841 3676 375 
Q 3225 -91 2344 -91 
Q 1459 -91 1007 375 
Q 556 841 556 1753 
L 556 4666 
z
" transform="scale(0.015625)"/>
     </defs>
     <use xlink:href="#DejaVuSans-55"/>
     <use xlink:href="#DejaVuSans-6e" x="73.193359"/>
     <use xlink:href="#DejaVuSans-65" x="136.572266"/>
     <use xlink:href="#DejaVuSans-6e" x="198.095703"/>
     <use xlink:href="#DejaVuSans-63" x="261.474609"/>
     <use xlink:href="#DejaVuSans-72" x="316.455078"/>
     <use xlink:href="#DejaVuSans-79" x="357.568359"/>
     <use xlink:href="#DejaVuSans-70" x="416.748047"/>
     <use xlink:href="#DejaVuSans-74" x="480.224609"/>
     <use xlink:href="#DejaVuSans-65" x="519.433594"/>
     <use xlink:href="#DejaVuSans-64" x="580.957031"/>
    </g>
   </g>
   <g id="text_3">
    <!-- Management -->
    <g transform="translate(7.2 23.2675) scale(0.08 -0.08)">
     <defs>
      <path id="DejaVuSans-4d" d="M 628 4666 
L 1569 4666 
L 2759 1491 
L 3956 4666 
L 4897 4666 
L 4897 0 
L 4281 0 
L 4281 4097 
L 3078 897 
L 2444 897 
L 1241 4097 
L 1241 0 
L 628 0 
L 628 4666 
z
" transform="scale(0.015625)"/>
      <path id="DejaVuSans-61" d="M 2194 1759 
Q 1497 1759 1228 1600 
Q 959 1441 959 1056 
Q 959 750 1161 570 
Q 1363 391 1709 391 
Q 2188 391 2477 730 
Q 2766 1069 2766 1631 
L 2766 1759 
L 2194 1759 
z
M 3341 1997 
L 3341 0 
L 2766 0 
L 2766 531 
Q 2569 213 2275 61 
Q 1981 -91 1556 -91 
Q 1019 -91 701 211 
Q 384 513 384 1019 
Q 384 1609 779 1909 
Q 1175 2209 1959 2209 
L 2766 2209 
L 2766 2266 
Q 2766 2663 2505 2880 
Q 2244 3097 1772 3097 
Q 1472 3097 1187 3025 
Q 903 2953 641 2809 
L 641 3341 
Q 956 3463 1253 3523 
Q 1550 3584 1831 3584 
Q 2591 3584 2966 3190 
Q 3341 2797 3341 1997 
z
" transform="scale(0.015625)"/>
      <path id="DejaVuSans-67" d="M 2906 1791 
Q 2906 2416 2648 2759 
Q 2391 3103 1925 3103 
Q 1463 3103 1205 2759 
Q 947 2416 947 1791 
Q 947 1169 1205 825 
Q 1463 481 1925 481 
Q 2391 481 2648 825 
Q 2906 1169 2906 1791 
z
M 3481 434 
Q 3481 -459 3084 -895 
Q 2688 -1331 1869 -1331 
Q 1566 -1331 1297 -1286 
Q 1028 -1241 775 -1147 
L 775 -588 
Q 1028 -725 1275 -790 
Q 1522 -856 1778 -856 
Q 2344 -856 2625 -561 
Q 2906 -266 2906 331 
L 2906 616 
Q 2728 306 2450 153 
Q 2172 0 1784 0 
Q 1141 0 747 490 
Q 353 981 353 1791 
Q 353 2603 747 3093 
Q 1141 3584 1784 3584 
Q 2172 3584 2450 3431 
Q 2728 3278 2906 2969 
L 2906 3500 
L 3481 3500 
L 3481 434 
z
" transform="scale(0.015625)"/>
      <path id="DejaVuSans-6d" d="M 3328 2828 
Q 3544 3216 3844 3400 
Q 4144 3584 4550 3584 
Q 5097 3584 5394 3201 
Q 5691 2819 5691 2113 
L 5691 0 
L 5113 0 
L 5113 2094 
Q 5113 2597 4934 2840 
Q 4756 3084 4391 3084 
Q 3944 3084 3684 2787 
Q 3425 2491 3425 1978 
L 3425 0 
L 2847 0 
L 2847 2094 
Q 2847 2600 2669 2842 
Q 2491 3084 2119 3084 
Q 1678 3084 1418 2786 
Q 1159 2488 1159 1978 
L 1159 0 
L 581 0 
L 581 3500 
L 1159 3500 
L 1159 2956 
Q 1356 3278 1631 3431 
Q 1906 3584 2284 3584 
Q 2666 3584 2933 3390 
Q 3200 3197 3328 2828 
z
" transform="scale(0.015625)"/>
     </defs>
     <use xlink:href="#DejaVuSans-4d"/>
     <use xlink:href="#DejaVuSans-61" x="86.279297"/>
     <use xlink:href="#DejaVuSans-6e" x="147.558594"/>
     <use xlink:href="#DejaVuSans-61" x="210.9375"/>
     <use xlink:href="#DejaVuSans-67" x="272.216797"/>
     <use xlink:href="#DejaVuSans-65" x="335.693359"/>
     <use xlink:href="#DejaVuSans-6d" x="397.216797"/>
     <use xlink:href="#DejaVuSans-65" x="494.628906"/>
     <use xlink:href="#DejaVuSans-6e" x="556.152344"/>
     <use xlink:href="#DejaVuSans-74" x="619.53125"/>
    </g>
   </g>
   <g id="text_4">
    <!-- Third Party -->
    <g transform="translate(328.169231 87.532041) scale(0.08 -0.08)">
     <defs>
      <path id="DejaVuSans-54" d="M -19 4666 
L 3928 4666 
L 3928 4134 
L 2272 4134 
L 2272 0 
L 1638 0 
L 1638 4134 
L -19 4134 
L -19 4666 
z
" transform="scale(0.015625)"/>
      <path id="DejaVuSans-68" d="M 3513 2113 
L 3513 0 
L 2938 0 
L 2938 2094 
Q 2938 2591 2744 2837 
Q 2550 3084 2163 3084 
Q 1697 3084 1428 2787 
Q 1159 2491 1159 1978 
L 1159 0 
L 581 0 
L 581 4863 
L 1159 4863 
L 1159 2956 
Q 1366 3272 1645 3428 
Q 1925 3584 2291 3584 
Q 2894 3584 3203 3211 
Q 3513 2838 3513 2113 
z
" transform="scale(0.015625)"/>
      <path id="DejaVuSans-69" d="M 603 3500 
L 1178 3500 
L 1178 0 
L 603 0 
L 603 3500 
z
M 603 4863 
L 1178 4863 
L 1178 4134 
L 603 4134 
L 603 4863 
z
" transform="scale(0.015625)"/>
      <path id="DejaVuSans-20" transform="scale(0.015625)"/>
      <path id="DejaVuSans-50" d="M 1259 4147 
L 1259 2394 
L 2053 2394 
Q 2494 2394 2734 2622 
Q 2975 2850 2975 3272 
Q 2975 3691 2734 3919 
Q 2494 4147 2053 4147 
L 1259 4147 
z
M 628 4666 
L 2053 4666 
Q 2838 4666 3239 4311 
Q 3641 3956 3641 3272 
Q 3641 2581 3239 2228 
Q 2838 1875 2053 1875 
L 1259 1875 
L 1259 0 
L 628 0 
L 628 4666 
z
" transform="scale(0.015625)"/>
     </defs>
     <use xlink:href="#DejaVuSans-54"/>
     <use xlink:href="#DejaVuSans-68" x="61.083984"/>
     <use xlink:href="#DejaVuSans-69" x="124.462891"/>
     <use xlink:href="#DejaVuSans-72" x="152.246094"/>
     <use xlink:href="#DejaVuSans-64" x="191.609375"/>
     <use xlink:href="#DejaVuSans-20" x="255.085938"/>
     <use xlink:href="#DejaVuSans-50" x="286.873047"/>
     <use xlink:href="#DejaVuSans-61" x="342.675781"/>
     <use xlink:href="#DejaVuSans-72" x="403.955078"/>
     <use xlink:href="#DejaVuSans-74" x="445.068359"/>
     <use xlink:href="#DejaVuSans-79" x="484.277344"/>
    </g>
   </g>
   <g id="text_5">
    <!-- Support Party -->
    <g transform="translate(328.169231 61.264945) scale(0.08 -0.08)">
     <defs>
      <path id="DejaVuSans-53" d="M 3425 4513 
L 3425 3897 
Q 3066 4069 2747 4153 
Q 2428 4238 2131 4238 
Q 1616 4238 1336 4038 
Q 1056 3838 1056 3469 
Q 1056 3159 1242 3001 
Q 1428 2844 1947 2747 
L 2328 2669 
Q 3034 2534 3370 2195 
Q 3706 1856 3706 1288 
Q 3706 609 3251 259 
Q 2797 -91 1919 -91 
Q 1588 -91 1214 -16 
Q 841 59 441 206 
L 441 856 
Q 825 641 1194 531 
Q 1563 422 1919 422 
Q 2459 422 2753 634 
Q 3047 847 3047 1241 
Q 3047 1584 2836 1778 
Q 2625 1972 2144 2069 
L 1759 2144 
Q 1053 2284 737 2584 
Q 422 2884 422 3419 
Q 422 4038 858 4394 
Q 1294 4750 2059 4750 
Q 2388 4750 2728 4690 
Q 3069 4631 3425 4513 
z
" transform="scale(0.015625)"/>
      <path id="DejaVuSans-75" d="M 544 1381 
L 544 3500 
L 1119 3500 
L 1119 1403 
Q 1119 906 1312 657 
Q 1506 409 1894 409 
Q 2359 409 2629 706 
Q 2900 1003 2900 1516 
L 2900 3500 
L 3475 3500 
L 3475 0 
L 2900 0 
L 2900 538 
Q 2691 219 2414 64 
Q 2138 -91 1772 -91 
Q 1169 -91 856 284 
Q 544 659 544 1381 
z
M 1991 3584 
L 1991 3584 
z
" transform="scale(0.015625)"/>
      <path id="DejaVuSans-6f" d="M 1959 3097 
Q 1497 3097 1228 2736 
Q 959 2375 959 1747 
Q 959 1119 1226 758 
Q 1494 397 1959 397 
Q 2419 397 2687 759 
Q 2956 1122 2956 1747 
Q 2956 2369 2687 2733 
Q 2419 3097 1959 3097 
z
M 1959 3584 
Q 2709 3584 3137 3096 
Q 3566 2609 3566 1747 
Q 3566 888 3137 398 
Q 2709 -91 1959 -91 
Q 1206 -91 779 398 
Q 353 888 353 1747 
Q 353 2609 779 3096 
Q 1206 3584 1959 3584 
z
" transform="scale(0.015625)"/>
     </defs>
     <use xlink:href="#DejaVuSans-53"/>
     <use xlink:href="#DejaVuSans-75" x="63.476562"/>
     <use xlink:href="#DejaVuSans-70" x="126.855469"/>
     <use xlink:href="#DejaVuSans-70" x="190.332031"/>
     <use xlink:href="#DejaVuSans-6f" x="253.808594"/>
     <use xlink:href="#DejaVuSans-72" x="314.990234"/>
     <use xlink:href="#DejaVuSans-74" x="356.103516"/>
     <use xlink:href="#DejaVuSans-20" x="395.3125"/>
     <use xlink:href="#DejaVuSans-50" x="427.099609"/>
     <use xlink:href="#DejaVuSans-61" x="482.902344"/>
     <use xlink:href="#DejaVuSans-72" x="544.181641"/>
     <use xlink:href="#DejaVuSans-74" x="585.294922"/>
     <use xlink:href="#DejaVuSans-79" x="624.503906"/>
    </g>
   </g>
   <g id="text_6">
    <!-- First Party -->
    <g transform="translate(328.169231 24.720403) scale(0.08 -0.08)">
     <defs>
      <path id="DejaVuSans-46" d="M 628 4666 
L 3309 4666 
L 3309 4134 
L 1259 4134 
L 1259 2759 
L 3109 2759 
L 3109 2228 
L 1259 2228 
L 1259 0 
L 628 0 
L 628 4666 
z
" transform="scale(0.015625)"/>
      <path id="DejaVuSans-73" d="M 2834 3397 
L 2834 2853 
Q 2591 2978 2328 3040 
Q 2066 3103 1784 3103 
Q 1356 3103 1142 2972 
Q 928 2841 928 2578 
Q 928 2378 1081 2264 
Q 1234 2150 1697 2047 
L 1894 2003 
Q 2506 1872 2764 1633 
Q 3022 1394 3022 966 
Q 3022 478 2636 193 
Q 2250 -91 1575 -91 
Q 1294 -91 989 -36 
Q 684 19 347 128 
L 347 722 
Q 666 556 975 473 
Q 1284 391 1588 391 
Q 1994 391 2212 530 
Q 2431 669 2431 922 
Q 2431 1156 2273 1281 
Q 2116 1406 1581 1522 
L 1381 1569 
Q 847 1681 609 1914 
Q 372 2147 372 2553 
Q 372 3047 722 3315 
Q 1072 3584 1716 3584 
Q 2034 3584 2315 3537 
Q 2597 3491 2834 3397 
z
" transform="scale(0.015625)"/>
     </defs>
     <use xlink:href="#DejaVuSans-46"/>
     <use xlink:href="#DejaVuSans-69" x="50.269531"/>
     <use xlink:href="#DejaVuSans-72" x="78.052734"/>
     <use xlink:href="#DejaVuSans-73" x="119.166016"/>
     <use xlink:href="#DejaVuSans-74" x="171.265625"/>
     <use xlink:href="#DejaVuSans-20" x="210.474609"/>
     <use xlink:href="#DejaVuSans-50" x="242.261719"/>
     <use xlink:href="#DejaVuSans-61" x="298.064453"/>
     <use xlink:href="#DejaVuSans-72" x="359.34375"/>
     <use xlink:href="#DejaVuSans-74" x="400.457031"/>
     <use xlink:href="#DejaVuSans-79" x="439.666016"/>
    </g>
   </g>
  </g>
 </g>
 <defs>
  <clipPath id="pe43ceeb150">
   <rect x="54.534615" y="7.2" width="279" height="83.16"/>
  </clipPath>
 </defs>
</svg>
